STARTFONT 2.1
COMMENT
COMMENT Converted from OpenType font "Patriot-Regular.otf" by "otf2bdf 3.0".
COMMENT
FONT -FreeType-Patriot-Medium-R-Normal--55-400-100-100-P-264-ISO10646-1
SIZE 40 100 100
FONTBOUNDINGBOX 88 73 -20 -15
STARTPROPERTIES 19
FOUNDRY "FreeType"
FAMILY_NAME "Patriot"
WEIGHT_NAME "Medium"
SLANT "R"
SETWIDTH_NAME "Normal"
ADD_STYLE_NAME ""
PIXEL_SIZE 55
POINT_SIZE 400
RESOLUTION_X 100
RESOLUTION_Y 100
SPACING "P"
AVERAGE_WIDTH 264
CHARSET_REGISTRY "ISO10646"
CHARSET_ENCODING "1"
FONT_ASCENT 56
FONT_DESCENT 11
COPYRIGHT "Copyright © 2020 by Behalf Studio. All rights reserved."
_OTF_FONTFILE "Patriot-Regular.otf"
_OTF_PSNAME "Patriot-Regular"
ENDPROPERTIES
CHARS 426
STARTCHAR 0020
ENCODING 32
SWIDTH 360 0
DWIDTH 20 0
BBX 0 0 0 0
BITMAP
ENDCHAR
STARTCHAR 0021
ENCODING 33
SWIDTH 252 0
DWIDTH 14 0
BBX 8 40 3 -1
BITMAP
3C
3C
3C
3C
3C
3C
3C
3C
3C
3C
3C
3C
3C
3C
3C
3C
3C
3C
3C
3C
3C
3C
3C
3C
3C
00
00
00
00
00
00
00
7E
7F
FF
FF
FF
FF
7E
18
ENDCHAR
STARTCHAR 0022
ENCODING 34
SWIDTH 306 0
DWIDTH 17 0
BBX 11 12 3 27
BITMAP
F0E0
F0E0
F0E0
F0E0
F0E0
F0E0
F0E0
F0E0
F0E0
F0E0
F0E0
F0E0
ENDCHAR
STARTCHAR 0023
ENCODING 35
SWIDTH 630 0
DWIDTH 35 0
BBX 29 39 3 0
BITMAP
007803C0
007807C0
007807C0
00780780
00F80780
00F80780
00F00780
00F00780
00F00F80
00F00F80
00F00F00
01F00F00
7FFFFFF8
7FFFFFF8
7FFFFFF8
7FFFFFF8
01E01F00
01E01E00
03E01E00
03E01E00
03C01E00
03C01E00
03C03E00
03C03E00
FFFFFFF0
FFFFFFF0
FFFFFFF0
FFFFFFF0
07803C00
07807C00
07807C00
07807800
0F807800
0F807800
0F007800
0F007800
0F00F800
0F00F800
0F00F800
ENDCHAR
STARTCHAR 0024
ENCODING 36
SWIDTH 540 0
DWIDTH 30 0
BBX 24 49 3 -5
BITMAP
001E00
001E00
001E00
001E00
007E00
03FFC0
07FFE0
0FFFF0
1FFFF8
1FDFFC
3F1CFC
3F1C7E
3E1C3E
3E1C3E
3E1C38
3E1C00
3F1C00
3F9C00
1FDC00
0FFC00
0FFC00
07FC00
01FF00
00FFC0
003FE0
001FF0
001FF8
001FFC
001CFE
001C7E
001C3F
001C3F
001C1F
181C1F
F81C1F
FC1C1F
FC1C3F
7E1C3F
7F1C7E
3FDDFE
1FFFFC
0FFFF8
07FFF0
03FFE0
003F00
001E00
001E00
001E00
001E00
ENDCHAR
STARTCHAR 0025
ENCODING 37
SWIDTH 864 0
DWIDTH 48 0
BBX 43 41 3 -1
BITMAP
01F000000000
07FE0000F800
1FFF0000F000
3FFF8001E000
7F0FC003E000
7C07C003C000
F803E0078000
F803E00F8000
F001E00F0000
F001E01E0000
F001E03E0000
F803E07C0000
F803E0780000
7C07C0F00000
7E0FC1F00000
3FFF81E00000
1FFF03C00000
0FFE07C00000
01F807800000
00000F000000
00001F000000
00003E000000
00003C03F000
0000780FFC00
0000F83FFF00
0000F03FFF80
0001E07E1F80
0003E0F807C0
0003C0F807C0
000780F003E0
000F81F003E0
001F01F003E0
001E01F003E0
003C00F003E0
007C00F807C0
007800FC07C0
00F0007E1F80
01F0003FFF80
01E0001FFF00
03C0000FFC00
00000001F000
ENDCHAR
STARTCHAR 0026
ENCODING 38
SWIDTH 648 0
DWIDTH 36 0
BBX 31 41 3 -1
BITMAP
00080000
00FFC000
03FFF000
07FFF800
0FFFFC00
1FE3FE00
3F807E00
3F003E00
3E001C00
3E001800
7E000000
7E000000
3E000000
3E000000
3F000000
3F000000
1FC00000
0FFFFFFE
07FFFFFE
07FFFFFE
1FFFFFFE
1FFFFFFE
3FC003F0
7F0003F0
7E0003E0
FC0003E0
FC0003E0
F80003E0
F80007E0
F80007E0
FC0007C0
FC000FC0
FE000FC0
7E001F80
7F807F80
3FE1FF00
1FFFFE00
0FFFFC00
07FFF800
01FFE000
000C0000
ENDCHAR
STARTCHAR 0027
ENCODING 39
SWIDTH 162 0
DWIDTH 9 0
BBX 4 12 3 27
BITMAP
F0
F0
F0
F0
F0
F0
F0
F0
F0
F0
F0
F0
ENDCHAR
STARTCHAR 0028
ENCODING 40
SWIDTH 324 0
DWIDTH 18 0
BBX 12 51 3 -8
BITMAP
00C0
00F0
01F0
03E0
03E0
07C0
0780
0F80
0F00
1F00
1E00
1E00
3C00
3C00
7C00
7800
7800
7800
7800
F000
F000
F000
F000
F000
F000
F000
F000
F000
F000
F000
F000
F000
F800
7800
7800
7800
7C00
3C00
3C00
3E00
1E00
1F00
0F00
0F80
0780
07C0
03C0
03E0
01F0
01F0
00E0
ENDCHAR
STARTCHAR 0029
ENCODING 41
SWIDTH 324 0
DWIDTH 18 0
BBX 12 51 3 -8
BITMAP
3000
F800
F800
7C00
3C00
3E00
1E00
1F00
0F00
0F80
0780
07C0
03C0
03C0
01E0
01E0
01E0
01E0
00F0
00F0
00F0
00F0
00F0
00F0
00F0
00F0
00F0
00F0
00F0
00F0
00F0
00F0
00F0
01E0
01E0
01E0
01E0
03C0
03C0
03C0
0780
0780
0F80
0F00
1F00
3E00
3E00
7C00
7800
F800
3000
ENDCHAR
STARTCHAR 002A
ENCODING 42
SWIDTH 450 0
DWIDTH 25 0
BBX 19 19 3 20
BITMAP
004000
00F000
01F000
01F000
01F000
01F000
F8F3E0
FEEFE0
FFFFE0
7FFFE0
3FFF80
01F000
03FC00
0FBE00
0FBF00
1F9F00
1F1F00
1E0F00
0C0600
ENDCHAR
STARTCHAR 002B
ENCODING 43
SWIDTH 558 0
DWIDTH 31 0
BBX 25 25 3 6
BITMAP
003E0000
003E0000
003E0000
003E0000
003E0000
003E0000
003E0000
003E0000
003E0000
003E0000
FFFFFF80
FFFFFF80
FFFFFF80
FFFFFF80
FFFFFF80
003E0000
003E0000
003E0000
003E0000
003E0000
003E0000
003E0000
003E0000
003E0000
003E0000
ENDCHAR
STARTCHAR 002C
ENCODING 44
SWIDTH 252 0
DWIDTH 14 0
BBX 9 11 3 -7
BITMAP
0F80
1F00
1E00
3E00
3C00
3C00
7800
7800
7000
F000
E000
ENDCHAR
STARTCHAR 002D
ENCODING 45
SWIDTH 432 0
DWIDTH 24 0
BBX 19 4 3 11
BITMAP
FFFFE0
FFFFE0
FFFFE0
FFFFE0
ENDCHAR
STARTCHAR 002E
ENCODING 46
SWIDTH 252 0
DWIDTH 14 0
BBX 8 8 3 -1
BITMAP
7E
7F
FF
FF
FF
FF
7E
18
ENDCHAR
STARTCHAR 002F
ENCODING 47
SWIDTH 378 0
DWIDTH 21 0
BBX 16 41 3 -1
BITMAP
000F
001F
001E
001E
003E
003C
003C
007C
007C
0078
0078
00F8
00F0
00F0
01F0
01F0
01E0
01E0
03E0
03C0
03C0
07C0
07C0
0780
0780
0F80
0F00
0F00
1F00
1F00
1E00
1E00
3E00
3C00
3C00
7C00
7C00
7800
7800
F800
F000
ENDCHAR
STARTCHAR 0030
ENCODING 48
SWIDTH 702 0
DWIDTH 39 0
BBX 36 41 2 -1
BITMAP
0001F80000
001FFF0000
007FFFC000
01FFFFF000
03FFFFF800
07FC07FC00
0FF000FE00
1FC0007F00
1F80003F80
3F00001F80
3E00000FC0
7E000007C0
7C000007C0
7C000007E0
FC000003E0
F8000003E0
F8000003E0
F8000003E0
F8000001F0
F8000001F0
F8000001F0
F8000001F0
F8000001F0
F8000003E0
F8000003E0
F8000003E0
FC000003E0
7C000007E0
7C000007C0
7E000007C0
3E00000FC0
3F00001F80
1F80003F80
1FC0007F00
0FF000FE00
07FC07FC00
03FFFFF800
01FFFFF000
007FFFC000
001FFF8000
0003F80000
ENDCHAR
STARTCHAR 0031
ENCODING 49
SWIDTH 288 0
DWIDTH 16 0
BBX 12 39 2 0
BITMAP
03F0
03F0
03F0
FFF0
FFF0
FFF0
FFF0
FFF0
03F0
03F0
03F0
03F0
03F0
03F0
03F0
03F0
03F0
03F0
03F0
03F0
03F0
03F0
03F0
03F0
03F0
03F0
03F0
03F0
03F0
03F0
03F0
03F0
03F0
03F0
03F0
03F0
03F0
03F0
03F0
ENDCHAR
STARTCHAR 0032
ENCODING 50
SWIDTH 540 0
DWIDTH 30 0
BBX 26 40 2 0
BITMAP
001F0000
01FFE000
07FFF800
0FFFFC00
1FFFFE00
3FC0FF00
3F803F00
7F001F80
7E001F80
7C000F80
FC000F80
FC000F80
F8000F80
08000F80
00000F80
00000F80
00001F80
00001F00
00003F00
00003E00
00007E00
0000FC00
0001F800
0003F800
0007F000
000FE000
001FC000
003F8000
007F0000
00FE0000
01FC0000
03F80000
07F00000
0FE00000
1FC00000
1FFFFFC0
3FFFFFC0
7FFFFFC0
FFFFFFC0
FFFFFFC0
ENDCHAR
STARTCHAR 0033
ENCODING 51
SWIDTH 522 0
DWIDTH 29 0
BBX 26 40 2 -1
BITMAP
7FFFFF00
7FFFFF00
7FFFFE00
7FFFFC00
7FFFF800
0001F000
0007E000
000FC000
001F8000
003F0000
007E0000
00FC0000
01FE0000
03FFC000
07FFF000
0FFFF800
3FFFFC00
1F81FE00
0E007F00
00003F00
00001F80
00000F80
00000F80
00000F80
00000FC0
00000FC0
00000FC0
00000F80
00000F80
00000F80
00001F80
10001F00
78003F00
FC007E00
FF01FE00
7FFFFC00
3FFFF800
0FFFF000
07FFC000
00FE0000
ENDCHAR
STARTCHAR 0034
ENCODING 52
SWIDTH 522 0
DWIDTH 29 0
BBX 27 39 1 0
BITMAP
00007F00
0007FF00
001FFF00
007FFF00
00FFFF00
01FF1F00
03FC1F00
07F01F00
0FE01F00
1FC01F00
1F801F00
3F001F00
3F001F00
3E001F00
7E001F00
7C001F00
7C001F00
FC001F00
F8001F00
F8001F00
F8001F00
F8001F00
F8001F00
FFFFFFE0
FFFFFFE0
FFFFFFE0
FFFFFFE0
00001F00
00001F00
00001F00
00001F00
00001F00
00001F00
00001F00
00001F00
00001F00
00001F00
00001F00
00001F00
ENDCHAR
STARTCHAR 0035
ENCODING 53
SWIDTH 540 0
DWIDTH 30 0
BBX 25 40 3 -1
BITMAP
7FFFFE00
7FFFFE00
7FFFFE00
7FFFFE00
7FFFFE00
7C000000
7C000000
7C000000
78000000
78000000
78000000
F8000000
F87F0000
FBFFC000
FFFFF000
FFFFF800
FFFFFC00
FF81FE00
FC007F00
78003F00
10001F80
00001F80
00000F80
00000F80
00000F80
00000F80
00000F80
00000F80
00000F80
00000F80
00001F80
10003F00
78003F00
FC00FE00
FF03FC00
7FFFFC00
3FFFF800
1FFFE000
07FFC000
00FE0000
ENDCHAR
STARTCHAR 0036
ENCODING 54
SWIDTH 594 0
DWIDTH 33 0
BBX 30 40 2 -1
BITMAP
0003F000
0003E000
0007E000
000FC000
001F8000
001F8000
003F0000
007E0000
007E0000
00FC0000
01F80000
01F7F000
03FFFE00
07FFFF00
0FFFFFC0
0FFC7FC0
1FE00FE0
1F8007F0
3F0003F0
3E0001F8
7E0000F8
7C0000FC
7C00007C
FC00007C
F800007C
F800007C
FC00007C
7C00007C
7C0000FC
7C0000F8
7E0000F8
3F0001F8
3F8003F0
1FC007F0
0FF01FE0
0FFFFFC0
03FFFF80
01FFFE00
007FFC00
000FC000
ENDCHAR
STARTCHAR 0037
ENCODING 55
SWIDTH 450 0
DWIDTH 25 0
BBX 23 39 2 0
BITMAP
FFFFFE
FFFFFE
FFFFFE
FFFFFE
FFFFFC
00007C
0000FC
0000F8
0000F8
0001F0
0001F0
0003F0
0003E0
0003E0
0007C0
3FFFF8
3FFFF8
3FFFF8
3FFFF8
3FFFF8
001F00
003F00
003E00
007E00
007C00
007C00
00FC00
00F800
01F800
01F000
01F000
03E000
03E000
07E000
07C000
07C000
0F8000
0F8000
1F8000
ENDCHAR
STARTCHAR 0038
ENCODING 56
SWIDTH 558 0
DWIDTH 31 0
BBX 28 41 2 -1
BITMAP
001F0000
007FE000
01FFF000
03FFF800
03FFFC00
07E07C00
07C03E00
0F803E00
0F803E00
0F803E00
0F803E00
0FC03E00
07C07E00
07F1FC00
03FFF800
01FFF800
07FFFC00
0FFFFF00
1FE07F80
3F801FC0
7E000FC0
7C0007E0
FC0003E0
F80003E0
F80003F0
F80001F0
F80001F0
F80001F0
F80001F0
F80003F0
F80003E0
FC0003E0
7C0007E0
7E000FC0
3F001FC0
3FC07F80
1FFFFF00
0FFFFE00
03FFFC00
01FFF000
003F8000
ENDCHAR
STARTCHAR 0039
ENCODING 57
SWIDTH 576 0
DWIDTH 32 0
BBX 29 40 2 0
BITMAP
000F8000
007FF800
01FFFE00
07FFFF00
0FFFFF80
1FF03FC0
3F800FE0
3F0007F0
7E0003F0
7C0001F8
FC0001F8
F80000F8
F80000F8
F80000F8
F80000F8
F80000F8
F80000F8
F80000F8
F80000F8
FC0001F8
7E0001F0
7E0003F0
3F0007E0
3FC01FE0
1FF07FC0
0FFFFFC0
07FFFF80
01FFFF00
007FBE00
00007E00
0000FC00
0001F800
0001F800
0003F000
0007E000
0007E000
000FC000
001F8000
001F0000
003F0000
ENDCHAR
STARTCHAR 003A
ENCODING 58
SWIDTH 252 0
DWIDTH 14 0
BBX 8 28 3 -1
BITMAP
3C
7E
FF
FF
FF
FF
7E
3C
00
00
00
00
00
00
00
00
00
00
00
00
7E
7F
FF
FF
FF
FF
7E
18
ENDCHAR
STARTCHAR 003B
ENCODING 59
SWIDTH 270 0
DWIDTH 15 0
BBX 10 34 3 -7
BITMAP
0F00
1F80
3FC0
3FC0
3FC0
3FC0
3F80
1F00
0000
0000
0000
0000
0000
0000
0000
0000
0000
0000
0000
0000
0000
0000
0000
0F80
1F00
1E00
3E00
3C00
3C00
7800
7800
7000
F000
E000
ENDCHAR
STARTCHAR 003C
ENCODING 60
SWIDTH 558 0
DWIDTH 31 0
BBX 25 23 3 6
BITMAP
00000080
00000780
00001F80
0000FF80
0007FF00
003FF800
00FFE000
07FF0000
3FF80000
FFC00000
FE000000
F8000000
FE000000
FFC00000
3FF80000
0FFE0000
01FFC000
003FF800
000FFE00
0001FF80
00003F80
00000F80
00000180
ENDCHAR
STARTCHAR 003D
ENCODING 61
SWIDTH 558 0
DWIDTH 31 0
BBX 25 16 3 10
BITMAP
FFFFFF80
FFFFFF80
FFFFFF80
FFFFFF80
00000000
00000000
00000000
00000000
00000000
00000000
00000000
FFFFFF80
FFFFFF80
FFFFFF80
FFFFFF80
FFFFFF80
ENDCHAR
STARTCHAR 003E
ENCODING 62
SWIDTH 558 0
DWIDTH 31 0
BBX 25 23 3 6
BITMAP
80000000
F0000000
FE000000
FF800000
7FF00000
0FFE0000
03FF8000
007FF000
000FFE00
0001FF80
00007F80
00000F80
00003F80
0000FF80
0007FE00
003FF800
01FFC000
0FFE0000
3FF80000
FFC00000
FE000000
F8000000
C0000000
ENDCHAR
STARTCHAR 003F
ENCODING 63
SWIDTH 414 0
DWIDTH 23 0
BBX 18 41 3 -1
BITMAP
008000
07F800
1FFE00
3FFF00
7FFF80
7E1F80
F80FC0
F807C0
7007C0
0007C0
0007C0
000F80
000F80
001F00
003F00
003E00
007C00
00F800
00F800
01F000
01F000
03E000
03E000
03C000
03C000
03C000
07C000
07C000
000000
000000
000000
000000
000000
03E000
07F000
0FF000
0FF000
0FF000
0FF000
07E000
018000
ENDCHAR
STARTCHAR 0040
ENCODING 64
SWIDTH 792 0
DWIDTH 44 0
BBX 38 41 3 -1
BITMAP
00001E0000
0007FFF000
001FFFFC00
007FFFFF00
00FE003F80
01F00007C0
03E00003E0
07800001F0
0F000000F0
1E00000078
1E00380078
3C00FE703C
3803FF703C
7807FFF01C
7807E3F01C
700F81F01C
F00F01F01C
F01F00E01C
F01F00E01C
F01E00E03C
F01E00E03C
F01E01E03C
F01E01E038
F01F01E078
F01F03E0F0
F00FCFF1F0
780FFFFFE0
7807FEFFC0
3803FC7F00
3C00400400
3E00000000
1E00000000
0F00000000
07800000C0
07E00003E0
03F00007E0
00FE003F80
007FFFFF00
001FFFFC00
0007FFF000
00003E0000
ENDCHAR
STARTCHAR 0041
ENCODING 65
SWIDTH 540 0
DWIDTH 30 0
BBX 27 40 3 0
BITMAP
007C0000
03FF8000
0FFFC000
1FFFF000
3FFFF000
3FC7F800
7F01FC00
7E00FC00
FC007E00
FC007E00
F8003E00
F8003E00
F8003E00
F8003E00
F8003E00
F8003E00
F8003E00
F8003E00
F8003E00
F8003E00
F8003E00
F8003E00
F8003E00
F8003E00
F8003E00
F8003E00
F8003E00
F8003E00
F8003E00
F8003E00
F8003E00
F8003E00
F8003E00
F8003E00
F8003E00
FFFFFFE0
FFFFFFE0
FFFFFFE0
FFFFFFE0
FFFFFFE0
ENDCHAR
STARTCHAR 0042
ENCODING 66
SWIDTH 594 0
DWIDTH 33 0
BBX 30 39 2 0
BITMAP
0FFFF000
0FFFFE00
0FFFFF80
0FFFFFC0
0FFFFFE0
0F800FF0
0F8003F0
0F8001F8
0F8001F8
0F8000F8
0F8000F8
0F8000F8
0F8001F8
0F8001F8
0F8001F0
0F8007F0
0F801FE0
FFFFFFE0
FFFFFFC0
FFFFFFC0
FFFFFFE0
FFFFFFF0
0F8007F8
0F8001F8
0F8000FC
0F8000FC
0F80007C
0F80007C
0F80007C
0F80007C
0F8000FC
0F8000FC
0F8001F8
0F8007F8
0FFFFFF0
0FFFFFE0
0FFFFFC0
0FFFFF00
0FFFFC00
ENDCHAR
STARTCHAR 0043
ENCODING 67
SWIDTH 684 0
DWIDTH 38 0
BBX 35 41 2 -1
BITMAP
00003E0000
0007FFE000
001FFFFC00
007FFFFE00
00FFFFFF80
03FF81FFC0
07FC003FE0
0FF0000FE0
0FE00003C0
1FC0000180
3F80000100
3F00000000
7E00000000
7E00000000
7C00000000
FC00000000
FC00000000
F800000000
F800000000
F800000000
F800000000
F800000000
F800000000
F800000000
FC00000000
FC00000000
7C00000000
7E00000000
7E00000000
3F00000000
3F80000000
1F80000180
0FE00003C0
0FF0000FE0
07FC001FE0
03FF80FFC0
01FFFFFF80
007FFFFF00
001FFFFC00
0007FFF000
0000FF0000
ENDCHAR
STARTCHAR 0044
ENCODING 68
SWIDTH 648 0
DWIDTH 36 0
BBX 31 39 3 0
BITMAP
FFFE0000
FFFFE000
FFFFF800
FFFFFE00
FFFFFF80
F801FFC0
F8003FE0
F8000FE0
F80007F0
F80003F8
F80001F8
F80000FC
F80000FC
F800007C
F800007E
F800003E
F800003E
F800003E
F800003E
F800003E
F800003E
F800003E
F800003E
F800003E
F800007E
F800007E
F800007C
F80000FC
F80001F8
F80001F8
F80007F0
F8000FF0
F8003FE0
F801FFC0
FFFFFF80
FFFFFE00
FFFFFC00
FFFFE000
FFFF0000
ENDCHAR
STARTCHAR 0045
ENCODING 69
SWIDTH 486 0
DWIDTH 27 0
BBX 26 39 1 0
BITMAP
0FFFF000
0FFFF000
0FFFF000
0FFFF000
0FFFF000
0F800000
0F800000
0F800000
0F800000
0F800000
0F800000
0F800000
0F800000
0F800000
0F800000
0F800000
0F800000
FFFFFC00
FFFFFC00
FFFFFC00
FFFFFC00
FFFFFC00
0F800000
0F800000
0F800000
0F800000
0F800000
0F800000
0F800000
0F800000
0F800000
0F800000
0F800000
0F800000
0FFFFFC0
0FFFFFC0
0FFFFFC0
0FFFFFC0
0FFFFFC0
ENDCHAR
STARTCHAR 0046
ENCODING 70
SWIDTH 450 0
DWIDTH 25 0
BBX 24 39 1 0
BITMAP
07FFFF
07FFFF
07FFFF
07FFFF
07FFFF
07C000
07C000
07C000
07C000
07C000
07C000
07C000
07C000
07C000
07C000
07C000
07C000
07C000
FFFFFE
FFFFFE
FFFFFE
FFFFFE
FFFFFE
07C000
07C000
07C000
07C000
07C000
07C000
07C000
07C000
07C000
07C000
07C000
07C000
07C000
07C000
07C000
07C000
ENDCHAR
STARTCHAR 0047
ENCODING 71
SWIDTH 828 0
DWIDTH 46 0
BBX 44 41 2 -1
BITMAP
00003E000000
0007FFF00000
001FFFFC0000
007FFFFF0000
00FFFFFF8000
03FF80FFC000
07FC001FE000
0FF0000FE000
0FE00003C000
1FC000018000
3F8000000000
3F0000000000
7E0000000000
7E0000000000
7C0000000000
FC0000000000
FC0000000000
F80000000000
F8001FFFFFF0
F8001FFFFFF0
F8001FFFFFF0
F8001FFFFFF0
F8001FFFFFF0
F80000001F00
FC0000001F00
FC0000003F00
7C0000003F00
7E0000003E00
7E0000007E00
3F0000007E00
3F800000FC00
1FC00001FC00
0FE00003F800
0FF00007F000
07FC001FE000
03FF80FFC000
00FFFFFF8000
007FFFFF0000
001FFFFC0000
0007FFF00000
00007F800000
ENDCHAR
STARTCHAR 0048
ENCODING 72
SWIDTH 558 0
DWIDTH 31 0
BBX 27 39 1 0
BITMAP
0F8003E0
0F8003E0
0F8003E0
0F8003E0
0F8003E0
0F8003E0
0F8003E0
0F8003E0
0F8003E0
0F8003E0
0F8003E0
0F8003E0
0F8003E0
0F8003E0
0F8003E0
0F8003E0
FFFFFFE0
FFFFFFE0
FFFFFFE0
FFFFFFE0
FFFFFFE0
0F8003E0
0F8003E0
0F8003E0
0F8003E0
0F8003E0
0F8003E0
0F8003E0
0F8003E0
0F8003E0
0F8003E0
0F8003E0
0F8003E0
0F8003E0
0F8003E0
0F8003E0
0F8003E0
0F8003E0
0F8003E0
ENDCHAR
STARTCHAR 0049
ENCODING 73
SWIDTH 180 0
DWIDTH 10 0
BBX 14 44 -2 0
BITMAP
0100
0100
0300
0380
0380
FFFC
3FF8
1FE0
0FC0
0FE0
0FE0
1C60
1820
0010
0000
0000
0000
0000
0000
0000
07C0
07C0
07C0
07C0
07C0
07C0
07C0
07C0
07C0
07C0
07C0
07C0
07C0
07C0
07C0
07C0
07C0
07C0
07C0
07C0
07C0
07C0
07C0
07C0
ENDCHAR
STARTCHAR 004A
ENCODING 74
SWIDTH 450 0
DWIDTH 25 0
BBX 22 40 1 -1
BITMAP
000FFC
000FFC
000FFC
000FFC
000FFC
00007C
00007C
00007C
00007C
00007C
00007C
00007C
00007C
00007C
00007C
00007C
00007C
00007C
00007C
00007C
00007C
00007C
00007C
00007C
00007C
00007C
00007C
00007C
00007C
0000FC
1800FC
3800F8
FC01F8
FC03F8
7F07F0
7FFFF0
3FFFE0
1FFFC0
07FF00
00FC00
ENDCHAR
STARTCHAR 004B
ENCODING 75
SWIDTH 522 0
DWIDTH 29 0
BBX 26 39 1 0
BITMAP
0F801F00
0F801F00
0F801F00
0F801F00
0F801F00
0F801F00
0F801F00
0F801F00
0F801F00
0F801F00
0F803F00
0F803F00
0F803E00
0F803E00
0F807E00
0F80FC00
0F87FC00
FFFFF800
FFFFF800
FFFFFE00
FFFFFE00
FFFFFF00
0F803F80
0F801F80
0F800FC0
0F800FC0
0F8007C0
0F8007C0
0F8007C0
0F8007C0
0F8007C0
0F8007C0
0F8007C0
0F8007C0
0F8007C0
0F8007C0
0F8007C0
0F8007C0
0F8007C0
ENDCHAR
STARTCHAR 004C
ENCODING 76
SWIDTH 432 0
DWIDTH 24 0
BBX 20 39 3 0
BITMAP
F80000
F80000
F80000
F80000
F80000
F80000
F80000
F80000
F80000
F80000
F80000
F80000
F80000
F80000
F80000
F80000
F80000
F80000
F80000
F80000
F80000
F80000
F80000
F80000
F80000
F80000
F80000
F80000
F80000
F80000
F80000
F80000
F80000
F80000
FFFFF0
FFFFF0
FFFFF0
FFFFF0
FFFFF0
ENDCHAR
STARTCHAR 004D
ENCODING 77
SWIDTH 864 0
DWIDTH 48 0
BBX 44 40 1 0
BITMAP
300000000000
3800060001F0
7C00078001F0
FE0007C001F0
FF8007E001F0
7FC007F001F0
1FE007FC01F0
1FF007FE01F0
1FFC07FF01F0
1FFE07FFC1F0
1FFF07DFE1F0
1FBFC7CFF1F0
1F9FE7C3F9F0
1F8FF7C1FFF0
1F83FFC0FFF0
1F81FFC07FF0
1F80FFC01FF0
1F807FC00FF0
1F801FC007F0
1F800FC003F0
1F8007C001F0
1F8007C001F0
1F8007C001F0
1F8007C001F0
1F8007C001F0
1F8007C001F0
1F8007C001F0
1F8007C001F0
1F8007C001F0
1F8007C001F0
1F8007C001F0
1F8007C001F0
1F8007C001F0
1F8007C001F0
1F8007C001F0
1F8007C001F0
1F8007C001F0
1F8007C001F0
1F8007C001F0
1F8007C001F0
ENDCHAR
STARTCHAR 004E
ENCODING 78
SWIDTH 522 0
DWIDTH 29 0
BBX 25 40 1 0
BITMAP
30000000
38000F80
7C000F80
FE000F80
FF800F80
3FC00F80
3FE00F80
3FF80F80
3FFC0F80
3FFE0F80
3EFF0F80
3E7FCF80
3E1FEF80
3E0FFF80
3E07FF80
3E03FF80
3E00FF80
3E007F80
3E003F80
3E000F80
3E000F80
3E000F80
3E000F80
3E000F80
3E000F80
3E000F80
3E000F80
3E000F80
3E000F80
3E000F80
3E000F80
3E000F80
3E000F80
3E000F80
3E000F80
3E000F80
3E000F80
3E000F80
3E000F80
3E000F80
ENDCHAR
STARTCHAR 004F
ENCODING 79
SWIDTH 810 0
DWIDTH 45 0
BBX 42 41 2 -1
BITMAP
00003E000000
0007FFF00000
001FFFFC0000
007FFFFF0000
00FFFFFFC000
03FF80FFE000
07FC001FF000
0FF00007F800
0FE00001FC00
1FC00000FC00
3F8000007E00
3F0000007E00
7E0000003F00
7E0000001F00
7C0000001F80
FC0000001F80
FC0000000F80
F80000000F80
F80000000F80
F80000000F80
F80000000FC0
F80000000F80
F80000000F80
F80000000F80
FC0000000F80
FC0000001F80
7C0000001F80
7E0000001F00
7E0000003F00
3F0000007E00
3F8000007E00
1FC00000FC00
0FE00001FC00
0FF00007F800
07FC001FF000
03FF80FFE000
00FFFFFFC000
007FFFFF0000
001FFFFE0000
0007FFF00000
00007F000000
ENDCHAR
STARTCHAR 0050
ENCODING 80
SWIDTH 540 0
DWIDTH 30 0
BBX 29 39 1 0
BITMAP
1FFFE000
1FFFFC00
1FFFFF00
1FFFFFC0
1FFFFFE0
1F001FE0
1F0007F0
1F0003F0
1F0001F8
1F0001F8
1F0000F8
1F0000F8
1F0000F8
1F0000F8
1F0001F8
1F0001F8
1F0003F0
1F0007F0
1F001FE0
FFFFFFC0
FFFFFFC0
FFFFFF00
FFFFFE00
FFFFF000
1F000000
1F000000
1F000000
1F000000
1F000000
1F000000
1F000000
1F000000
1F000000
1F000000
1F000000
1F000000
1F000000
1F000000
1F000000
ENDCHAR
STARTCHAR 0051
ENCODING 81
SWIDTH 810 0
DWIDTH 45 0
BBX 42 41 2 -1
BITMAP
00003E000000
0007FFF00000
001FFFFC0000
007FFFFF0000
00FFFFFFC000
03FF80FFE000
07FC001FF000
0FF00007F800
0FE00001FC00
1FC00000FC00
3F8000007E00
3F0000007E00
7E0000003F00
7E0000001F00
7C0000001F80
FC0000001F80
FC0000000F80
F80000000F80
F80000000F80
F80000000F80
F80000000FC0
F80000000F80
F80000000F80
F80000000F80
FC0000000F80
FC0000001F80
7C0000001F80
7E0000081F00
7E00001C3F00
3F00003E7E00
3F80007F7E00
1FC0003FFC00
0FE0001FFC00
0FF0000FF800
07FC001FF000
03FF80FFF800
00FFFFFFFC00
007FFFFFFE00
001FFFFE7C00
0007FFF03800
00007F801000
ENDCHAR
STARTCHAR 0052
ENCODING 82
SWIDTH 576 0
DWIDTH 32 0
BBX 30 39 1 0
BITMAP
0FFFF000
0FFFFE00
0FFFFF80
0FFFFFC0
0FFFFFE0
0F801FF0
0F8003F8
0F8001F8
0F8000F8
0F8000FC
0F8000FC
0F80007C
0F8000FC
0F8000FC
0F8000F8
0F8001F8
0F8001F8
0F8007F0
0F803FF0
FFFFFFE0
FFFFFFC0
FFFFFF00
FFFFFF00
FFFFFF80
0F801FC0
0F800FC0
0F8007E0
0F8003E0
0F8003E0
0F8003F0
0F8003F0
0F8001F0
0F8001F0
0F8001F0
0F8001F0
0F8001F0
0F8001F0
0F8001F0
0F8001F0
ENDCHAR
STARTCHAR 0053
ENCODING 83
SWIDTH 486 0
DWIDTH 27 0
BBX 24 41 2 -1
BITMAP
007C00
03FF80
07FFE0
0FFFF0
1FFFF8
3FC3F8
3F00FC
3E007C
7E007E
7E003E
7E0038
7E0000
3E0000
3F0000
1F8000
1FE000
0FF000
07FC00
03FF00
00FF80
007FE0
001FF0
0007F8
0003FC
0001FC
00007E
00007E
00003F
00003F
18001F
F8001F
F8003F
FC003F
7E007E
7F00FE
3FC3FC
3FFFFC
1FFFF8
0FFFF0
03FFC0
007E00
ENDCHAR
STARTCHAR 0054
ENCODING 84
SWIDTH 486 0
DWIDTH 27 0
BBX 26 39 1 0
BITMAP
FFFFFFC0
FFFFFFC0
FFFFFFC0
FFFFFFC0
FFFFFFC0
003F0000
003F0000
003F0000
003F0000
003F0000
003F0000
003F0000
003F0000
003F0000
003F0000
003F0000
003F0000
003F0000
003F0000
003F0000
003F0000
003F0000
003F0000
003F0000
003F0000
003F0000
003F0000
003F0000
003F0000
003F0000
003F0000
003F0000
003F0000
003F0000
003F0000
003F0000
003F0000
003F0000
003F0000
ENDCHAR
STARTCHAR 0055
ENCODING 85
SWIDTH 504 0
DWIDTH 28 0
BBX 24 40 2 -1
BITMAP
FC001F
FC001F
FC001F
FC001F
FC001F
FC001F
FC001F
FC001F
FC001F
FC001F
FC001F
FC001F
FC001F
FC001F
FC001F
FC001F
FC001F
FC001F
FC001F
FC001F
FC001F
FC001F
FC001F
FC001F
FC001F
FC001F
FC001F
FC001F
FC003F
7C003F
7C003E
7E003E
7E007E
3F00FC
3FC3FC
1FFFF8
0FFFF0
07FFE0
01FFC0
007E00
ENDCHAR
STARTCHAR 0056
ENCODING 86
SWIDTH 468 0
DWIDTH 26 0
BBX 22 39 1 0
BITMAP
F8007C
F8007C
F8007C
F8007C
F8007C
F8007C
F8007C
F8007C
F8007C
F8007C
F8007C
F8007C
F8007C
F8007C
F8007C
F8007C
F8007C
F8007C
F8007C
F8007C
F8007C
F8007C
F8007C
F800FC
FC00FC
FC00F8
7C00F8
7C00F8
7E01F8
7E01F0
3E03F0
3F03F0
1F07E0
1F87E0
0FCFC0
07FF80
07FF00
03FE00
01FC00
ENDCHAR
STARTCHAR 0057
ENCODING 87
SWIDTH 774 0
DWIDTH 43 0
BBX 40 39 1 0
BITMAP
F8007C003F
F8007C003F
F8007C003F
F8007C003F
F8007C003F
F8007C003F
F8007C003F
F8007C003F
F8007C003F
F8007C003F
F8007C003F
F8007C003F
F8007C003F
F8007C003F
F8007C003F
F8007C003F
F8007C003F
F8007C003F
F8007C003F
F8007C003F
F8007C003F
F8007E003E
F8007E003E
F800FE003E
FC00FE003E
FC00FE003E
7C00FE007E
7C00FF007C
7E01FF007C
7E01FF00FC
3E03FF80F8
3F03FF81F8
1F07EFC1F8
1F87E7E3F0
0FCFC7E7E0
07FF83F7E0
07FF01FFC0
03FE00FF80
01FC007F00
ENDCHAR
STARTCHAR 0058
ENCODING 88
SWIDTH 504 0
DWIDTH 28 0
BBX 23 39 3 0
BITMAP
F8003E
F8003E
F8003E
F8003E
F8003E
F8003E
F8003E
F8003E
F8003E
F8003E
FC007E
FC007C
7E00FC
7F01FC
3FEFF8
3FFFF0
1FFFE0
0FFFE0
1FFFF0
3FFFF8
7F01F8
7E00FC
FC007C
FC007E
F8007E
F8003E
F8003E
F8003E
F8003E
F8003E
F8003E
F8003E
F8003E
F8003E
F8003E
F8003E
F8003E
F8003E
F8003E
ENDCHAR
STARTCHAR 0059
ENCODING 89
SWIDTH 486 0
DWIDTH 27 0
BBX 24 39 2 0
BITMAP
F8003F
F8003F
F8003F
F8003F
F8003F
F8003F
F8003F
F8003F
F8003F
F8003F
F8003F
F8003F
F8003F
F8003F
F8003F
F8003F
F8003F
F8003F
FC003F
FC003E
FC003E
7C007E
7E007E
7F00FC
3F83FC
1FFFF8
0FFFF0
07FFE0
03FFC0
007E00
007E00
007E00
007E00
007E00
007E00
007E00
007E00
007E00
007E00
ENDCHAR
STARTCHAR 005A
ENCODING 90
SWIDTH 504 0
DWIDTH 28 0
BBX 26 39 1 0
BITMAP
7FFFFFC0
7FFFFFC0
7FFFFFC0
7FFFFF80
7FFFFF80
00003F00
00003F00
00007E00
00007C00
0000FC00
0001F800
0001F800
0003F000
0003E000
0007E000
000FC000
000FC000
001F8000
001F0000
003F0000
007E0000
007E0000
00FC0000
00F80000
01F80000
03F00000
03F00000
07E00000
07E00000
0FC00000
1F800000
1F800000
3F000000
3F000000
7FFFFF80
FFFFFF80
FFFFFF80
FFFFFF80
FFFFFF80
ENDCHAR
STARTCHAR 005B
ENCODING 91
SWIDTH 234 0
DWIDTH 13 0
BBX 7 53 3 -8
BITMAP
FE
FE
FE
F0
F0
F0
F0
F0
F0
F0
F0
F0
F0
F0
F0
F0
F0
F0
F0
F0
F0
F0
F0
F0
F0
F0
F0
F0
F0
F0
F0
F0
F0
F0
F0
F0
F0
F0
F0
F0
F0
F0
F0
F0
F0
F0
F0
F0
F0
FE
FE
FE
FE
ENDCHAR
STARTCHAR 005C
ENCODING 92
SWIDTH 378 0
DWIDTH 21 0
BBX 16 41 3 -1
BITMAP
F000
F800
7800
7800
7C00
7C00
3C00
3C00
3E00
1E00
1E00
1F00
1F00
0F00
0F00
0F80
0780
0780
07C0
07C0
03C0
03C0
03E0
01E0
01E0
01F0
01F0
00F0
00F0
00F8
0078
0078
007C
007C
003C
003C
003E
001E
001E
001F
001F
ENDCHAR
STARTCHAR 005D
ENCODING 93
SWIDTH 234 0
DWIDTH 13 0
BBX 7 53 3 -8
BITMAP
FE
FE
FE
1E
1E
1E
1E
1E
1E
1E
1E
1E
1E
1E
1E
1E
1E
1E
1E
1E
1E
1E
1E
1E
1E
1E
1E
1E
1E
1E
1E
1E
1E
1E
1E
1E
1E
1E
1E
1E
1E
1E
1E
1E
1E
1E
1E
1E
1E
FE
FE
FE
FE
ENDCHAR
STARTCHAR 005E
ENCODING 94
SWIDTH 468 0
DWIDTH 26 0
BBX 21 15 3 19
BITMAP
00F800
01FC00
01FC00
03FE00
03DE00
079F00
0F8F00
0F0780
1F0780
1E03C0
3C03E0
3C01E0
7801F0
7800F0
F00078
ENDCHAR
STARTCHAR 005F
ENCODING 95
SWIDTH 522 0
DWIDTH 29 0
BBX 23 4 3 -6
BITMAP
FFFFFE
FFFFFE
FFFFFE
FFFFFE
ENDCHAR
STARTCHAR 0060
ENCODING 96
SWIDTH 144 0
DWIDTH 8 0
BBX 8 7 0 42
BITMAP
F8
7C
3C
1E
0E
0F
07
ENDCHAR
STARTCHAR 0061
ENCODING 97
SWIDTH 540 0
DWIDTH 30 0
BBX 27 40 3 0
BITMAP
007C0000
03FF8000
0FFFC000
1FFFF000
3FFFF000
3FC7F800
7F01FC00
7E00FC00
FC007E00
FC007E00
F8003E00
F8003E00
F8003E00
F8003E00
F8003E00
F8003E00
F8003E00
F8003E00
F8003E00
F8003E00
F8003E00
F8003E00
F8003E00
F8003E00
F8003E00
F8003E00
F8003E00
F8003E00
F8003E00
F8003E00
F8003E00
F8003E00
F8003E00
F8003E00
F8003E00
FFFFFFE0
FFFFFFE0
FFFFFFE0
FFFFFFE0
FFFFFFE0
ENDCHAR
STARTCHAR 0062
ENCODING 98
SWIDTH 594 0
DWIDTH 33 0
BBX 30 39 2 0
BITMAP
0FFFF000
0FFFFE00
0FFFFF80
0FFFFFC0
0FFFFFE0
0F800FF0
0F8003F0
0F8001F8
0F8001F8
0F8000F8
0F8000F8
0F8000F8
0F8001F8
0F8001F8
0F8001F0
0F8007F0
0F801FE0
FFFFFFE0
FFFFFFC0
FFFFFFC0
FFFFFFE0
FFFFFFF0
0F8007F8
0F8001F8
0F8000FC
0F8000FC
0F80007C
0F80007C
0F80007C
0F80007C
0F8000FC
0F8000FC
0F8001F8
0F8007F8
0FFFFFF0
0FFFFFE0
0FFFFFC0
0FFFFF00
0FFFFC00
ENDCHAR
STARTCHAR 0063
ENCODING 99
SWIDTH 684 0
DWIDTH 38 0
BBX 35 41 2 -1
BITMAP
00003E0000
0007FFE000
001FFFFC00
007FFFFE00
00FFFFFF80
03FF81FFC0
07FC003FE0
0FF0000FE0
0FE00003C0
1FC0000180
3F80000100
3F00000000
7E00000000
7E00000000
7C00000000
FC00000000
FC00000000
F800000000
F800000000
F800000000
F800000000
F800000000
F800000000
F800000000
FC00000000
FC00000000
7C00000000
7E00000000
7E00000000
3F00000000
3F80000000
1F80000180
0FE00003C0
0FF0000FE0
07FC001FE0
03FF80FFC0
01FFFFFF80
007FFFFF00
001FFFFC00
0007FFF000
0000FF0000
ENDCHAR
STARTCHAR 0064
ENCODING 100
SWIDTH 648 0
DWIDTH 36 0
BBX 31 39 3 0
BITMAP
FFFE0000
FFFFE000
FFFFF800
FFFFFE00
FFFFFF80
F801FFC0
F8003FE0
F8000FE0
F80007F0
F80003F8
F80001F8
F80000FC
F80000FC
F800007C
F800007E
F800003E
F800003E
F800003E
F800003E
F800003E
F800003E
F800003E
F800003E
F800003E
F800007E
F800007E
F800007C
F80000FC
F80001F8
F80001F8
F80007F0
F8000FF0
F8003FE0
F801FFC0
FFFFFF80
FFFFFE00
FFFFFC00
FFFFE000
FFFF0000
ENDCHAR
STARTCHAR 0065
ENCODING 101
SWIDTH 486 0
DWIDTH 27 0
BBX 26 39 1 0
BITMAP
0FFFF000
0FFFF000
0FFFF000
0FFFF000
0FFFF000
0F800000
0F800000
0F800000
0F800000
0F800000
0F800000
0F800000
0F800000
0F800000
0F800000
0F800000
0F800000
FFFFFC00
FFFFFC00
FFFFFC00
FFFFFC00
FFFFFC00
0F800000
0F800000
0F800000
0F800000
0F800000
0F800000
0F800000
0F800000
0F800000
0F800000
0F800000
0F800000
0FFFFFC0
0FFFFFC0
0FFFFFC0
0FFFFFC0
0FFFFFC0
ENDCHAR
STARTCHAR 0066
ENCODING 102
SWIDTH 450 0
DWIDTH 25 0
BBX 24 39 1 0
BITMAP
07FFFF
07FFFF
07FFFF
07FFFF
07FFFF
07C000
07C000
07C000
07C000
07C000
07C000
07C000
07C000
07C000
07C000
07C000
07C000
07C000
FFFFFE
FFFFFE
FFFFFE
FFFFFE
FFFFFE
07C000
07C000
07C000
07C000
07C000
07C000
07C000
07C000
07C000
07C000
07C000
07C000
07C000
07C000
07C000
07C000
ENDCHAR
STARTCHAR 0067
ENCODING 103
SWIDTH 828 0
DWIDTH 46 0
BBX 44 41 2 -1
BITMAP
00003E000000
0007FFF00000
001FFFFC0000
007FFFFF0000
00FFFFFF8000
03FF80FFC000
07FC001FE000
0FF0000FE000
0FE00003C000
1FC000018000
3F8000000000
3F0000000000
7E0000000000
7E0000000000
7C0000000000
FC0000000000
FC0000000000
F80000000000
F8001FFFFFF0
F8001FFFFFF0
F8001FFFFFF0
F8001FFFFFF0
F8001FFFFFF0
F80000001F00
FC0000001F00
FC0000003F00
7C0000003F00
7E0000003E00
7E0000007E00
3F0000007E00
3F800000FC00
1FC00001FC00
0FE00003F800
0FF00007F000
07FC001FE000
03FF80FFC000
00FFFFFF8000
007FFFFF0000
001FFFFC0000
0007FFF00000
00007F800000
ENDCHAR
STARTCHAR 0068
ENCODING 104
SWIDTH 558 0
DWIDTH 31 0
BBX 27 39 1 0
BITMAP
0F8003E0
0F8003E0
0F8003E0
0F8003E0
0F8003E0
0F8003E0
0F8003E0
0F8003E0
0F8003E0
0F8003E0
0F8003E0
0F8003E0
0F8003E0
0F8003E0
0F8003E0
0F8003E0
FFFFFFE0
FFFFFFE0
FFFFFFE0
FFFFFFE0
FFFFFFE0
0F8003E0
0F8003E0
0F8003E0
0F8003E0
0F8003E0
0F8003E0
0F8003E0
0F8003E0
0F8003E0
0F8003E0
0F8003E0
0F8003E0
0F8003E0
0F8003E0
0F8003E0
0F8003E0
0F8003E0
0F8003E0
ENDCHAR
STARTCHAR 0069
ENCODING 105
SWIDTH 180 0
DWIDTH 10 0
BBX 14 44 -2 0
BITMAP
0100
0100
0300
0380
0380
FFFC
3FF8
1FE0
0FC0
0FE0
0FE0
1C60
1820
0010
0000
0000
0000
0000
0000
0000
07C0
07C0
07C0
07C0
07C0
07C0
07C0
07C0
07C0
07C0
07C0
07C0
07C0
07C0
07C0
07C0
07C0
07C0
07C0
07C0
07C0
07C0
07C0
07C0
ENDCHAR
STARTCHAR 006A
ENCODING 106
SWIDTH 450 0
DWIDTH 25 0
BBX 22 40 1 -1
BITMAP
000FFC
000FFC
000FFC
000FFC
000FFC
00007C
00007C
00007C
00007C
00007C
00007C
00007C
00007C
00007C
00007C
00007C
00007C
00007C
00007C
00007C
00007C
00007C
00007C
00007C
00007C
00007C
00007C
00007C
00007C
0000FC
1800FC
3800F8
FC01F8
FC03F8
7F07F0
7FFFF0
3FFFE0
1FFFC0
07FF00
00FC00
ENDCHAR
STARTCHAR 006B
ENCODING 107
SWIDTH 522 0
DWIDTH 29 0
BBX 26 39 1 0
BITMAP
0F801F00
0F801F00
0F801F00
0F801F00
0F801F00
0F801F00
0F801F00
0F801F00
0F801F00
0F801F00
0F803F00
0F803F00
0F803E00
0F803E00
0F807E00
0F80FC00
0F87FC00
FFFFF800
FFFFF800
FFFFFE00
FFFFFE00
FFFFFF00
0F803F80
0F801F80
0F800FC0
0F800FC0
0F8007C0
0F8007C0
0F8007C0
0F8007C0
0F8007C0
0F8007C0
0F8007C0
0F8007C0
0F8007C0
0F8007C0
0F8007C0
0F8007C0
0F8007C0
ENDCHAR
STARTCHAR 006C
ENCODING 108
SWIDTH 432 0
DWIDTH 24 0
BBX 20 39 3 0
BITMAP
F80000
F80000
F80000
F80000
F80000
F80000
F80000
F80000
F80000
F80000
F80000
F80000
F80000
F80000
F80000
F80000
F80000
F80000
F80000
F80000
F80000
F80000
F80000
F80000
F80000
F80000
F80000
F80000
F80000
F80000
F80000
F80000
F80000
F80000
FFFFF0
FFFFF0
FFFFF0
FFFFF0
FFFFF0
ENDCHAR
STARTCHAR 006D
ENCODING 109
SWIDTH 864 0
DWIDTH 48 0
BBX 44 40 1 0
BITMAP
300000000000
3800060001F0
7C00078001F0
FE0007C001F0
FF8007E001F0
7FC007F001F0
1FE007FC01F0
1FF007FE01F0
1FFC07FF01F0
1FFE07FFC1F0
1FFF07DFE1F0
1FBFC7CFF1F0
1F9FE7C3F9F0
1F8FF7C1FFF0
1F83FFC0FFF0
1F81FFC07FF0
1F80FFC01FF0
1F807FC00FF0
1F801FC007F0
1F800FC003F0
1F8007C001F0
1F8007C001F0
1F8007C001F0
1F8007C001F0
1F8007C001F0
1F8007C001F0
1F8007C001F0
1F8007C001F0
1F8007C001F0
1F8007C001F0
1F8007C001F0
1F8007C001F0
1F8007C001F0
1F8007C001F0
1F8007C001F0
1F8007C001F0
1F8007C001F0
1F8007C001F0
1F8007C001F0
1F8007C001F0
ENDCHAR
STARTCHAR 006E
ENCODING 110
SWIDTH 522 0
DWIDTH 29 0
BBX 25 40 1 0
BITMAP
30000000
38000F80
7C000F80
FE000F80
FF800F80
3FC00F80
3FE00F80
3FF80F80
3FFC0F80
3FFE0F80
3EFF0F80
3E7FCF80
3E1FEF80
3E0FFF80
3E07FF80
3E03FF80
3E00FF80
3E007F80
3E003F80
3E000F80
3E000F80
3E000F80
3E000F80
3E000F80
3E000F80
3E000F80
3E000F80
3E000F80
3E000F80
3E000F80
3E000F80
3E000F80
3E000F80
3E000F80
3E000F80
3E000F80
3E000F80
3E000F80
3E000F80
3E000F80
ENDCHAR
STARTCHAR 006F
ENCODING 111
SWIDTH 810 0
DWIDTH 45 0
BBX 42 41 2 -1
BITMAP
00003E000000
0007FFF00000
001FFFFC0000
007FFFFF0000
00FFFFFFC000
03FF80FFE000
07FC001FF000
0FF00007F800
0FE00001FC00
1FC00000FC00
3F8000007E00
3F0000007E00
7E0000003F00
7E0000001F00
7C0000001F80
FC0000001F80
FC0000000F80
F80000000F80
F80000000F80
F80000000F80
F80000000FC0
F80000000F80
F80000000F80
F80000000F80
FC0000000F80
FC0000001F80
7C0000001F80
7E0000001F00
7E0000003F00
3F0000007E00
3F8000007E00
1FC00000FC00
0FE00001FC00
0FF00007F800
07FC001FF000
03FF80FFE000
00FFFFFFC000
007FFFFF0000
001FFFFE0000
0007FFF00000
00007F000000
ENDCHAR
STARTCHAR 0070
ENCODING 112
SWIDTH 540 0
DWIDTH 30 0
BBX 29 39 1 0
BITMAP
1FFFE000
1FFFFC00
1FFFFF00
1FFFFFC0
1FFFFFE0
1F001FE0
1F0007F0
1F0003F0
1F0001F8
1F0001F8
1F0000F8
1F0000F8
1F0000F8
1F0000F8
1F0001F8
1F0001F8
1F0003F0
1F0007F0
1F001FE0
FFFFFFC0
FFFFFFC0
FFFFFF00
FFFFFE00
FFFFF000
1F000000
1F000000
1F000000
1F000000
1F000000
1F000000
1F000000
1F000000
1F000000
1F000000
1F000000
1F000000
1F000000
1F000000
1F000000
ENDCHAR
STARTCHAR 0071
ENCODING 113
SWIDTH 810 0
DWIDTH 45 0
BBX 42 41 2 -1
BITMAP
00003E000000
0007FFF00000
001FFFFC0000
007FFFFF0000
00FFFFFFC000
03FF80FFE000
07FC001FF000
0FF00007F800
0FE00001FC00
1FC00000FC00
3F8000007E00
3F0000007E00
7E0000003F00
7E0000001F00
7C0000001F80
FC0000001F80
FC0000000F80
F80000000F80
F80000000F80
F80000000F80
F80000000FC0
F80000000F80
F80000000F80
F80000000F80
FC0000000F80
FC0000001F80
7C0000001F80
7E0000081F00
7E00001C3F00
3F00003E7E00
3F80007F7E00
1FC0003FFC00
0FE0001FFC00
0FF0000FF800
07FC001FF000
03FF80FFF800
00FFFFFFFC00
007FFFFFFE00
001FFFFE7C00
0007FFF03800
00007F801000
ENDCHAR
STARTCHAR 0072
ENCODING 114
SWIDTH 576 0
DWIDTH 32 0
BBX 30 39 1 0
BITMAP
0FFFF000
0FFFFE00
0FFFFF80
0FFFFFC0
0FFFFFE0
0F801FF0
0F8003F8
0F8001F8
0F8000F8
0F8000FC
0F8000FC
0F80007C
0F8000FC
0F8000FC
0F8000F8
0F8001F8
0F8001F8
0F8007F0
0F803FF0
FFFFFFE0
FFFFFFC0
FFFFFF00
FFFFFF00
FFFFFF80
0F801FC0
0F800FC0
0F8007E0
0F8003E0
0F8003E0
0F8003F0
0F8003F0
0F8001F0
0F8001F0
0F8001F0
0F8001F0
0F8001F0
0F8001F0
0F8001F0
0F8001F0
ENDCHAR
STARTCHAR 0073
ENCODING 115
SWIDTH 486 0
DWIDTH 27 0
BBX 24 41 2 -1
BITMAP
007C00
03FF80
07FFE0
0FFFF0
1FFFF8
3FC3F8
3F00FC
3E007C
7E007E
7E003E
7E0038
7E0000
3E0000
3F0000
1F8000
1FE000
0FF000
07FC00
03FF00
00FF80
007FE0
001FF0
0007F8
0003FC
0001FC
00007E
00007E
00003F
00003F
18001F
F8001F
F8003F
FC003F
7E007E
7F00FE
3FC3FC
3FFFFC
1FFFF8
0FFFF0
03FFC0
007E00
ENDCHAR
STARTCHAR 0074
ENCODING 116
SWIDTH 486 0
DWIDTH 27 0
BBX 26 39 1 0
BITMAP
FFFFFFC0
FFFFFFC0
FFFFFFC0
FFFFFFC0
FFFFFFC0
003F0000
003F0000
003F0000
003F0000
003F0000
003F0000
003F0000
003F0000
003F0000
003F0000
003F0000
003F0000
003F0000
003F0000
003F0000
003F0000
003F0000
003F0000
003F0000
003F0000
003F0000
003F0000
003F0000
003F0000
003F0000
003F0000
003F0000
003F0000
003F0000
003F0000
003F0000
003F0000
003F0000
003F0000
ENDCHAR
STARTCHAR 0075
ENCODING 117
SWIDTH 504 0
DWIDTH 28 0
BBX 24 40 2 -1
BITMAP
FC001F
FC001F
FC001F
FC001F
FC001F
FC001F
FC001F
FC001F
FC001F
FC001F
FC001F
FC001F
FC001F
FC001F
FC001F
FC001F
FC001F
FC001F
FC001F
FC001F
FC001F
FC001F
FC001F
FC001F
FC001F
FC001F
FC001F
FC001F
FC003F
7C003F
7C003E
7E003E
7E007E
3F00FC
3FC3FC
1FFFF8
0FFFF0
07FFE0
01FFC0
007E00
ENDCHAR
STARTCHAR 0076
ENCODING 118
SWIDTH 468 0
DWIDTH 26 0
BBX 22 39 1 0
BITMAP
F8007C
F8007C
F8007C
F8007C
F8007C
F8007C
F8007C
F8007C
F8007C
F8007C
F8007C
F8007C
F8007C
F8007C
F8007C
F8007C
F8007C
F8007C
F8007C
F8007C
F8007C
F8007C
F8007C
F800FC
FC00FC
FC00F8
7C00F8
7C00F8
7E01F8
7E01F0
3E03F0
3F03F0
1F07E0
1F87E0
0FCFC0
07FF80
07FF00
03FE00
01FC00
ENDCHAR
STARTCHAR 0077
ENCODING 119
SWIDTH 774 0
DWIDTH 43 0
BBX 40 39 1 0
BITMAP
F8007C003F
F8007C003F
F8007C003F
F8007C003F
F8007C003F
F8007C003F
F8007C003F
F8007C003F
F8007C003F
F8007C003F
F8007C003F
F8007C003F
F8007C003F
F8007C003F
F8007C003F
F8007C003F
F8007C003F
F8007C003F
F8007C003F
F8007C003F
F8007C003F
F8007E003E
F8007E003E
F800FE003E
FC00FE003E
FC00FE003E
7C00FE007E
7C00FF007C
7E01FF007C
7E01FF00FC
3E03FF80F8
3F03FF81F8
1F07EFC1F8
1F87E7E3F0
0FCFC7E7E0
07FF83F7E0
07FF01FFC0
03FE00FF80
01FC007F00
ENDCHAR
STARTCHAR 0078
ENCODING 120
SWIDTH 504 0
DWIDTH 28 0
BBX 23 39 3 0
BITMAP
F8003E
F8003E
F8003E
F8003E
F8003E
F8003E
F8003E
F8003E
F8003E
F8003E
FC007E
FC007C
7E00FC
7F01FC
3FEFF8
3FFFF0
1FFFE0
0FFFE0
1FFFF0
3FFFF8
7F01F8
7E00FC
FC007C
FC007E
F8007E
F8003E
F8003E
F8003E
F8003E
F8003E
F8003E
F8003E
F8003E
F8003E
F8003E
F8003E
F8003E
F8003E
F8003E
ENDCHAR
STARTCHAR 0079
ENCODING 121
SWIDTH 486 0
DWIDTH 27 0
BBX 24 39 2 0
BITMAP
F8003F
F8003F
F8003F
F8003F
F8003F
F8003F
F8003F
F8003F
F8003F
F8003F
F8003F
F8003F
F8003F
F8003F
F8003F
F8003F
F8003F
F8003F
FC003F
FC003E
FC003E
7C007E
7E007E
7F00FC
3F83FC
1FFFF8
0FFFF0
07FFE0
03FFC0
007E00
007E00
007E00
007E00
007E00
007E00
007E00
007E00
007E00
007E00
ENDCHAR
STARTCHAR 007A
ENCODING 122
SWIDTH 504 0
DWIDTH 28 0
BBX 26 39 1 0
BITMAP
7FFFFFC0
7FFFFFC0
7FFFFFC0
7FFFFF80
7FFFFF80
00003F00
00003F00
00007E00
00007C00
0000FC00
0001F800
0001F800
0003F000
0003E000
0007E000
000FC000
000FC000
001F8000
001F0000
003F0000
007E0000
007E0000
00FC0000
00F80000
01F80000
03F00000
03F00000
07E00000
07E00000
0FC00000
1F800000
1F800000
3F000000
3F000000
7FFFFF80
FFFFFF80
FFFFFF80
FFFFFF80
FFFFFF80
ENDCHAR
STARTCHAR 007B
ENCODING 123
SWIDTH 324 0
DWIDTH 18 0
BBX 13 53 3 -8
BITMAP
01F8
03F8
07F8
07F8
0F80
0F00
0F00
0F00
0F00
0F00
0F00
0F00
0F00
0F00
0F00
0F00
0F00
0F00
0F00
0F00
0F00
0F00
1F00
3E00
FC00
FC00
F800
FC00
7E00
1E00
1F00
0F00
0F00
0F00
0F00
0F00
0F00
0F00
0F00
0F00
0F00
0F00
0F00
0F00
0F00
0F00
0F00
0F00
0F80
07F8
07F8
03F8
00F8
ENDCHAR
STARTCHAR 007C
ENCODING 124
SWIDTH 162 0
DWIDTH 9 0
BBX 3 45 3 -6
BITMAP
E0
E0
E0
E0
E0
E0
E0
E0
E0
E0
E0
E0
E0
E0
E0
E0
E0
E0
E0
E0
E0
E0
E0
E0
E0
E0
E0
E0
E0
E0
E0
E0
E0
E0
E0
E0
E0
E0
E0
E0
E0
E0
E0
E0
E0
ENDCHAR
STARTCHAR 007D
ENCODING 125
SWIDTH 324 0
DWIDTH 18 0
BBX 13 53 3 -8
BITMAP
FC00
FE00
FF00
FF00
0F80
0780
0780
0780
0780
0780
0780
0780
0780
0780
0780
0780
0780
0780
0780
0780
0780
0780
07C0
03E0
03F8
01F8
00F8
01F8
03F0
03C0
07C0
0780
0780
0780
0780
0780
0780
0780
0780
0780
0780
0780
0780
0780
0780
0780
0780
0780
0F00
FF00
FF00
FE00
F800
ENDCHAR
STARTCHAR 007E
ENCODING 126
SWIDTH 540 0
DWIDTH 30 0
BBX 24 6 3 15
BITMAP
7FC000
FFFE01
FFFFFF
FFFFFF
C0FFFF
0007FE
ENDCHAR
STARTCHAR 00A1
ENCODING 161
SWIDTH 252 0
DWIDTH 14 0
BBX 8 39 3 -6
BITMAP
7E
FF
FF
FF
FF
FF
7E
08
00
00
00
00
00
00
7C
7C
7C
7C
7C
7C
7C
7C
7C
7C
7C
7C
7C
7C
7C
7C
7C
7C
7C
7C
7C
7C
7C
7C
7C
ENDCHAR
STARTCHAR 00A2
ENCODING 162
SWIDTH 504 0
DWIDTH 28 0
BBX 23 35 3 2
BITMAP
001E00
001E00
001E00
001E00
003F00
01FFE0
03FFF8
0FFFFC
1FFDFE
1F9C7C
3E1C18
7C1C00
7C1C00
781C00
F81C00
F01C00
F01C00
F01C00
F01C00
F01C00
F81C00
F81C00
7C1C00
7C1C00
3E1C18
3F1C3C
1FFDFE
0FFFFC
07FFF8
01FFE0
003F00
001E00
001E00
001E00
001E00
ENDCHAR
STARTCHAR 00A3
ENCODING 163
SWIDTH 540 0
DWIDTH 30 0
BBX 24 39 3 1
BITMAP
001FFE
007FFF
01FFFF
03FFFF
07FFFF
07F801
0FE000
0FC000
1F8000
1F8000
1F8000
1F8000
1F8000
1F8000
0F8000
0F8000
0FC000
0FC000
FFFFF8
FFFFF8
FFFFF8
FFFFF8
03F000
01F000
01F000
01F800
01F800
00F800
00F800
01F800
01F800
03F000
07F000
1FE000
FFFFFF
FFFFFF
FFFFFF
FFFFFF
FFFFFF
ENDCHAR
STARTCHAR 00A4
ENCODING 164
SWIDTH 558 0
DWIDTH 31 0
BBX 26 26 3 5
BITMAP
20000100
70000380
F83F07C0
FDFFEF80
7FFFFF00
3FFFFE00
1F807C00
1F003E00
1E001E00
3C000F00
3C000F00
3C000F00
38000700
38000700
38000F00
3C000F00
3C000F00
3E001E00
1E003E00
1F807C00
1FE1FE00
3FFFFF00
7DFFEF80
F87F8FC0
70000780
20000300
ENDCHAR
STARTCHAR 00A5
ENCODING 165
SWIDTH 630 0
DWIDTH 35 0
BBX 29 39 3 0
BITMAP
FC0000F8
7E0001F8
7E0001F0
3F0003F0
3F0003E0
1F8007E0
1F8007C0
0FC00FC0
0FC00F80
07E01F80
07E01F00
03F03F00
03F03E00
01F87E00
01F87C00
00FCFC00
00FCF800
007FF800
007FF000
003FF000
0FFFFFC0
0FFFFFC0
0FFFFFC0
0FFFFFC0
000FC000
000FC000
000FC000
0FFFFFC0
0FFFFFC0
0FFFFFC0
0FFFFFC0
000FC000
000FC000
000FC000
000FC000
000FC000
000FC000
000FC000
000FC000
ENDCHAR
STARTCHAR 00A6
ENCODING 166
SWIDTH 162 0
DWIDTH 9 0
BBX 3 45 3 -6
BITMAP
E0
E0
E0
E0
E0
E0
E0
E0
E0
E0
E0
E0
E0
E0
E0
E0
E0
00
00
00
00
00
00
00
00
00
00
00
E0
E0
E0
E0
E0
E0
E0
E0
E0
E0
E0
E0
E0
E0
E0
E0
E0
ENDCHAR
STARTCHAR 00A7
ENCODING 167
SWIDTH 468 0
DWIDTH 26 0
BBX 20 45 3 -5
BITMAP
03FE00
0FFF80
1FFFC0
3FFFC0
3F8FE0
3E03E0
3E03F0
3E01F0
3E0180
3E0000
3F0000
1FC000
0FE000
07F800
01FE00
07FF00
1FFFC0
3FFFC0
7F0FE0
7C03F0
F801F0
F800F0
F800F0
F800F0
FC01F0
7E03F0
3FCFE0
3FFFC0
0FFF80
07FE00
01FC00
00FF00
003F80
001FC0
0007C0
0007E0
3803E0
7C03E0
7C03E0
7E07E0
3FFFC0
3FFFC0
1FFF80
0FFF00
03FC00
ENDCHAR
STARTCHAR 00A8
ENCODING 168
SWIDTH 360 0
DWIDTH 20 0
BBX 21 8 0 42
BITMAP
080080
3E03F0
7F07F0
FF07F8
FF07F8
FF07F8
7F07F0
3E03E0
ENDCHAR
STARTCHAR 00A9
ENCODING 169
SWIDTH 846 0
DWIDTH 47 0
BBX 41 41 3 -1
BITMAP
00003F000000
0007FFF00000
001FFFFC0000
007F807F0000
00F8000F8000
03E00003E000
07C00001F000
07800000F800
0F0000007800
1E0000003C00
3C007F801E00
3801FFE00E00
3807FFF00F00
700FE3F80700
700F80F00700
701E00000780
F01E00000380
E03C00000380
E03C00000380
E03C00000380
E03C00000380
E03C00000380
E03C00000380
E03C00000380
F01E00000380
F01E00000780
700F00600700
700FE3F80700
7807FFF00F00
3801FFE00E00
3C00FF801E00
1E0000003C00
0F0000007800
0F800000F800
07C00001F000
03E00003E000
01F8000FC000
007F007F0000
001FFFFE0000
0007FFF80000
00007F800000
ENDCHAR
STARTCHAR 00AB
ENCODING 171
SWIDTH 540 0
DWIDTH 30 0
BBX 24 24 3 5
BITMAP
007C1F
00F83F
01F03E
01F07C
03E0F8
07C1F0
0F81F0
0F83E0
1F07C0
3E0F80
7C0F80
7C1F00
FC1F00
7C0F80
3E0FC0
1F07C0
0F83E0
0F81F0
07C1F8
03E0F8
01F07C
01F83E
00F83F
007C1F
ENDCHAR
STARTCHAR 00AC
ENCODING 172
SWIDTH 558 0
DWIDTH 31 0
BBX 25 15 3 6
BITMAP
FFFFFF80
FFFFFF80
FFFFFF80
FFFFFF80
FFFFFF80
00000780
00000780
00000780
00000780
00000780
00000780
00000780
00000780
00000780
00000780
ENDCHAR
STARTCHAR 00AE
ENCODING 174
SWIDTH 486 0
DWIDTH 27 0
BBX 22 22 3 18
BITMAP
01FE00
07FF80
0F03C0
1C00E0
380070
71FC38
61FE18
E1C618
C1C71C
C1C60C
C3FE0C
C3FC0C
C1CE0C
E1C61C
61C618
61C638
300030
380070
1E01E0
0FFF80
03FF00
003000
ENDCHAR
STARTCHAR 00AF
ENCODING 175
SWIDTH 270 0
DWIDTH 15 0
BBX 16 4 0 44
BITMAP
FFFF
FFFF
FFFF
FFFF
ENDCHAR
STARTCHAR 00B0
ENCODING 176
SWIDTH 324 0
DWIDTH 18 0
BBX 13 12 3 28
BITMAP
1FC0
3FE0
78F0
E070
E038
E038
E038
E030
F070
7FF0
3FE0
0F80
ENDCHAR
STARTCHAR 00B1
ENCODING 177
SWIDTH 558 0
DWIDTH 31 0
BBX 25 23 3 6
BITMAP
003E0000
003E0000
003E0000
003E0000
003E0000
003E0000
FFFFFF80
FFFFFF80
FFFFFF80
FFFFFF80
FFFFFF80
003E0000
003E0000
003E0000
003E0000
003E0000
003E0000
00000000
00000000
FFFFFF80
FFFFFF80
FFFFFF80
FFFFFF80
ENDCHAR
STARTCHAR 00B4
ENCODING 180
SWIDTH 144 0
DWIDTH 8 0
BBX 8 7 0 42
BITMAP
0F
1E
1C
3C
78
70
F0
ENDCHAR
STARTCHAR 00B6
ENCODING 182
SWIDTH 468 0
DWIDTH 26 0
BBX 21 45 3 -6
BITMAP
01FC78
07FC78
0FFC78
1FFC78
3FFC78
7FFC78
7FFC78
FFFC78
FFFC78
FFFC78
FFFC78
FFFC78
FFFC78
FFFC78
7FFC78
7FFC78
3FFC78
3FFC78
1FFC78
07FC78
03FC78
003C78
001C78
001C78
001C78
001C78
001C78
001C78
001C78
001C78
001C78
001C78
001C78
001C78
001C78
001C78
001C78
001C78
001C78
001C78
001C78
001C78
001C78
001C78
001C78
ENDCHAR
STARTCHAR 00B7
ENCODING 183
SWIDTH 252 0
DWIDTH 14 0
BBX 8 8 3 11
BITMAP
7E
FF
FF
FF
FF
FF
7E
10
ENDCHAR
STARTCHAR 00B8
ENCODING 184
SWIDTH 216 0
DWIDTH 12 0
BBX 12 12 0 -12
BITMAP
0380
0700
0780
07E0
00E0
0070
0070
6070
F0F0
7FE0
3FC0
0F80
ENDCHAR
STARTCHAR 00BB
ENCODING 187
SWIDTH 540 0
DWIDTH 30 0
BBX 24 24 3 5
BITMAP
FC1F00
7C0F80
3E0FC0
1F07C0
1F83E0
0F81F0
07C1F8
03E0F8
01F07C
01F03E
00F83E
007C1F
007C1F
00F81F
01F03E
01F07C
03E0F8
07C1F0
0F81F0
0F83E0
1F07C0
3E0F80
7C0F80
7C1F00
ENDCHAR
STARTCHAR 00BF
ENCODING 191
SWIDTH 414 0
DWIDTH 23 0
BBX 18 40 3 -6
BITMAP
00F000
01F800
03FC00
03FC00
03FC00
03FC00
01F800
00F000
000000
000000
000000
000000
000000
00F000
00F000
00F000
01F000
01F000
01F000
01E000
03E000
07E000
07C000
0F8000
1F8000
1F0000
3E0000
7E0000
7C0000
F80000
F80000
F80200
F80780
F807C0
FC0F80
7E3F80
7FFF00
3FFE00
1FFC00
07F800
ENDCHAR
STARTCHAR 00C0
ENCODING 192
SWIDTH 540 0
DWIDTH 30 0
BBX 27 49 3 0
BITMAP
03E00000
01E00000
00F00000
00F00000
00780000
00380000
001C0000
00000000
00000000
007C0000
03FF8000
0FFFC000
1FFFF000
3FFFF000
3FC7F800
7F01FC00
7E00FC00
FC007E00
FC007E00
F8003E00
F8003E00
F8003E00
F8003E00
F8003E00
F8003E00
F8003E00
F8003E00
F8003E00
F8003E00
F8003E00
F8003E00
F8003E00
F8003E00
F8003E00
F8003E00
F8003E00
F8003E00
F8003E00
F8003E00
F8003E00
F8003E00
F8003E00
F8003E00
F8003E00
FFFFFFE0
FFFFFFE0
FFFFFFE0
FFFFFFE0
FFFFFFE0
ENDCHAR
STARTCHAR 00C1
ENCODING 193
SWIDTH 540 0
DWIDTH 30 0
BBX 27 49 3 0
BITMAP
00078000
000F0000
001E0000
001E0000
003C0000
00380000
00700000
00000000
00000000
007C0000
03FF8000
0FFFC000
1FFFF000
3FFFF000
3FC7F800
7F01FC00
7E00FC00
FC007E00
FC007E00
F8003E00
F8003E00
F8003E00
F8003E00
F8003E00
F8003E00
F8003E00
F8003E00
F8003E00
F8003E00
F8003E00
F8003E00
F8003E00
F8003E00
F8003E00
F8003E00
F8003E00
F8003E00
F8003E00
F8003E00
F8003E00
F8003E00
F8003E00
F8003E00
F8003E00
FFFFFFE0
FFFFFFE0
FFFFFFE0
FFFFFFE0
FFFFFFE0
ENDCHAR
STARTCHAR 00C2
ENCODING 194
SWIDTH 540 0
DWIDTH 30 0
BBX 27 50 3 0
BITMAP
007C0000
00FE0000
01FF0000
03EF8000
03C78000
0783C000
0F81E000
1F01F000
00000000
00000000
007C0000
03FF8000
0FFFC000
1FFFF000
3FFFF000
3FC7F800
7F01FC00
7E00FC00
FC007E00
FC007E00
F8003E00
F8003E00
F8003E00
F8003E00
F8003E00
F8003E00
F8003E00
F8003E00
F8003E00
F8003E00
F8003E00
F8003E00
F8003E00
F8003E00
F8003E00
F8003E00
F8003E00
F8003E00
F8003E00
F8003E00
F8003E00
F8003E00
F8003E00
F8003E00
F8003E00
FFFFFFE0
FFFFFFE0
FFFFFFE0
FFFFFFE0
FFFFFFE0
ENDCHAR
STARTCHAR 00C3
ENCODING 195
SWIDTH 540 0
DWIDTH 30 0
BBX 27 49 3 0
BITMAP
07E00000
0FFF8000
0FFF8000
0C7F8000
00060000
00000000
00000000
00000000
00000000
007C0000
03FF8000
0FFFC000
1FFFF000
3FFFF000
3FC7F800
7F01FC00
7E00FC00
FC007E00
FC007E00
F8003E00
F8003E00
F8003E00
F8003E00
F8003E00
F8003E00
F8003E00
F8003E00
F8003E00
F8003E00
F8003E00
F8003E00
F8003E00
F8003E00
F8003E00
F8003E00
F8003E00
F8003E00
F8003E00
F8003E00
F8003E00
F8003E00
F8003E00
F8003E00
F8003E00
FFFFFFE0
FFFFFFE0
FFFFFFE0
FFFFFFE0
FFFFFFE0
ENDCHAR
STARTCHAR 00C4
ENCODING 196
SWIDTH 540 0
DWIDTH 30 0
BBX 27 50 3 0
BITMAP
04006000
1F81F800
3F83FC00
3FC3FC00
3FC3FC00
3FC3FC00
3F83F800
1F01F800
00000000
00000000
007C0000
03FF8000
0FFFC000
1FFFF000
3FFFF000
3FC7F800
7F01FC00
7E00FC00
FC007E00
FC007E00
F8003E00
F8003E00
F8003E00
F8003E00
F8003E00
F8003E00
F8003E00
F8003E00
F8003E00
F8003E00
F8003E00
F8003E00
F8003E00
F8003E00
F8003E00
F8003E00
F8003E00
F8003E00
F8003E00
F8003E00
F8003E00
F8003E00
F8003E00
F8003E00
F8003E00
FFFFFFE0
FFFFFFE0
FFFFFFE0
FFFFFFE0
FFFFFFE0
ENDCHAR
STARTCHAR 00C5
ENCODING 197
SWIDTH 540 0
DWIDTH 30 0
BBX 27 53 3 0
BITMAP
007C0000
01FF0000
01EF0000
03838000
03838000
03838000
03838000
03C78000
01FF0000
00FE0000
00780000
00000000
00000000
007C0000
03FF8000
0FFFC000
1FFFF000
3FFFF000
3FC7F800
7F01FC00
7E00FC00
FC007E00
FC007E00
F8003E00
F8003E00
F8003E00
F8003E00
F8003E00
F8003E00
F8003E00
F8003E00
F8003E00
F8003E00
F8003E00
F8003E00
F8003E00
F8003E00
F8003E00
F8003E00
F8003E00
F8003E00
F8003E00
F8003E00
F8003E00
F8003E00
F8003E00
F8003E00
F8003E00
FFFFFFE0
FFFFFFE0
FFFFFFE0
FFFFFFE0
FFFFFFE0
ENDCHAR
STARTCHAR 00C7
ENCODING 199
SWIDTH 684 0
DWIDTH 38 0
BBX 35 52 2 -12
BITMAP
00003E0000
0007FFE000
001FFFFC00
007FFFFE00
00FFFFFF80
03FF81FFC0
07FC003FE0
0FF0000FE0
0FE00003C0
1FC0000180
3F80000100
3F00000000
7E00000000
7E00000000
7C00000000
FC00000000
FC00000000
F800000000
F800000000
F800000000
F800000000
F800000000
F800000000
F800000000
FC00000000
FC00000000
7C00000000
7E00000000
7E00000000
3F00000000
3F80000000
1F80000180
0FE00003C0
0FF0000FE0
07FC001FE0
03FF80FFC0
01FFFFFF80
007FFFFE00
001FFFFC00
0007FFF000
00007F0000
0000700000
0000780000
00007E0000
00000E0000
0000070000
0000070000
0006070000
000F0F0000
0007FE0000
0003FC0000
0000F80000
ENDCHAR
STARTCHAR 00C8
ENCODING 200
SWIDTH 486 0
DWIDTH 27 0
BBX 26 49 1 0
BITMAP
03E00000
01F00000
00F00000
00780000
00380000
003C0000
001C0000
00000000
00000000
00000000
0FFFF000
0FFFF000
0FFFF000
0FFFF000
0FFFF000
0F800000
0F800000
0F800000
0F800000
0F800000
0F800000
0F800000
0F800000
0F800000
0F800000
0F800000
0F800000
FFFFFC00
FFFFFC00
FFFFFC00
FFFFFC00
FFFFFC00
0F800000
0F800000
0F800000
0F800000
0F800000
0F800000
0F800000
0F800000
0F800000
0F800000
0F800000
0F800000
0FFFFFC0
0FFFFFC0
0FFFFFC0
0FFFFFC0
0FFFFFC0
ENDCHAR
STARTCHAR 00C9
ENCODING 201
SWIDTH 486 0
DWIDTH 27 0
BBX 26 49 1 0
BITMAP
00078000
000F8000
000F0000
001E0000
001C0000
003C0000
00780000
00000000
00000000
00000000
0FFFF000
0FFFF000
0FFFF000
0FFFF000
0FFFF000
0F800000
0F800000
0F800000
0F800000
0F800000
0F800000
0F800000
0F800000
0F800000
0F800000
0F800000
0F800000
FFFFFC00
FFFFFC00
FFFFFC00
FFFFFC00
FFFFFC00
0F800000
0F800000
0F800000
0F800000
0F800000
0F800000
0F800000
0F800000
0F800000
0F800000
0F800000
0F800000
0FFFFFC0
0FFFFFC0
0FFFFFC0
0FFFFFC0
0FFFFFC0
ENDCHAR
STARTCHAR 00CA
ENCODING 202
SWIDTH 486 0
DWIDTH 27 0
BBX 26 50 1 0
BITMAP
007E0000
00FF0000
00FF0000
01EF8000
03E7C000
07C3E000
0781E000
0F00F000
00000000
00000000
00000000
0FFFF000
0FFFF000
0FFFF000
0FFFF000
0FFFF000
0F800000
0F800000
0F800000
0F800000
0F800000
0F800000
0F800000
0F800000
0F800000
0F800000
0F800000
0F800000
FFFFFC00
FFFFFC00
FFFFFC00
FFFFFC00
FFFFFC00
0F800000
0F800000
0F800000
0F800000
0F800000
0F800000
0F800000
0F800000
0F800000
0F800000
0F800000
0F800000
0FFFFFC0
0FFFFFC0
0FFFFFC0
0FFFFFC0
0FFFFFC0
ENDCHAR
STARTCHAR 00CB
ENCODING 203
SWIDTH 486 0
DWIDTH 27 0
BBX 26 50 1 0
BITMAP
06002000
1F80F800
3FC1FC00
3FC3FC00
3FC3FC00
3FC3FC00
1FC1FC00
1F80F800
00000000
00000000
00000000
0FFFF000
0FFFF000
0FFFF000
0FFFF000
0FFFF000
0F800000
0F800000
0F800000
0F800000
0F800000
0F800000
0F800000
0F800000
0F800000
0F800000
0F800000
0F800000
FFFFFC00
FFFFFC00
FFFFFC00
FFFFFC00
FFFFFC00
0F800000
0F800000
0F800000
0F800000
0F800000
0F800000
0F800000
0F800000
0F800000
0F800000
0F800000
0F800000
0FFFFFC0
0FFFFFC0
0FFFFFC0
0FFFFFC0
0FFFFFC0
ENDCHAR
STARTCHAR 00CC
ENCODING 204
SWIDTH 198 0
DWIDTH 11 0
BBX 8 34 0 0
BITMAP
F8
78
3C
3C
1E
0E
07
00
00
00
1F
1F
1F
1F
1F
1F
1F
1F
1F
1F
1F
1F
1F
1F
1F
1F
1F
1F
1F
1F
1F
1F
1F
1F
ENDCHAR
STARTCHAR 00CD
ENCODING 205
SWIDTH 198 0
DWIDTH 11 0
BBX 8 34 3 0
BITMAP
0F
1E
3C
3C
78
70
E0
00
00
00
F8
F8
F8
F8
F8
F8
F8
F8
F8
F8
F8
F8
F8
F8
F8
F8
F8
F8
F8
F8
F8
F8
F8
F8
ENDCHAR
STARTCHAR 00CE
ENCODING 206
SWIDTH 198 0
DWIDTH 11 0
BBX 17 35 -3 0
BITMAP
03E000
07F000
0FF800
1F7C00
1E3E00
3C1E00
7C0F00
F80F80
000000
000000
000000
03E000
03E000
03E000
03E000
03E000
03E000
03E000
03E000
03E000
03E000
03E000
03E000
03E000
03E000
03E000
03E000
03E000
03E000
03E000
03E000
03E000
03E000
03E000
03E000
ENDCHAR
STARTCHAR 00CF
ENCODING 207
SWIDTH 198 0
DWIDTH 11 0
BBX 20 35 -4 0
BITMAP
100180
7E07E0
FE0FF0
FF0FF0
FF0FF0
FF0FF0
FE0FF0
7C07E0
000000
000000
000000
01F000
01F000
01F000
01F000
01F000
01F000
01F000
01F000
01F000
01F000
01F000
01F000
01F000
01F000
01F000
01F000
01F000
01F000
01F000
01F000
01F000
01F000
01F000
01F000
ENDCHAR
STARTCHAR 00D1
ENCODING 209
SWIDTH 522 0
DWIDTH 29 0
BBX 25 49 1 0
BITMAP
01F80000
03FFE000
03FFE000
031FE000
00018000
00000000
00000000
00000000
00000000
30000000
38000F80
7C000F80
FE000F80
FF800F80
3FC00F80
3FE00F80
3FF80F80
3FFC0F80
3FFE0F80
3EFF0F80
3E7FCF80
3E1FEF80
3E0FFF80
3E07FF80
3E03FF80
3E00FF80
3E007F80
3E003F80
3E000F80
3E000F80
3E000F80
3E000F80
3E000F80
3E000F80
3E000F80
3E000F80
3E000F80
3E000F80
3E000F80
3E000F80
3E000F80
3E000F80
3E000F80
3E000F80
3E000F80
3E000F80
3E000F80
3E000F80
3E000F80
ENDCHAR
STARTCHAR 00D2
ENCODING 210
SWIDTH 810 0
DWIDTH 45 0
BBX 42 50 2 -1
BITMAP
0001F0000000
0000F0000000
000078000000
000038000000
00003C000000
00001E000000
00000E000000
000000000000
000000000000
00003E000000
0007FFF00000
001FFFFC0000
007FFFFF0000
00FFFFFFC000
03FF80FFE000
07FC001FF000
0FF00007F800
0FE00001FC00
1FC00000FC00
3F8000007E00
3F0000007E00
7E0000003F00
7E0000001F00
7C0000001F80
FC0000001F80
FC0000000F80
F80000000F80
F80000000F80
F80000000F80
F80000000FC0
F80000000F80
F80000000F80
F80000000F80
FC0000000F80
FC0000001F80
7C0000001F80
7E0000001F00
7E0000003F00
3F0000007E00
3F8000007E00
1FC00000FC00
0FE00001FC00
0FF00007F800
07FC001FF000
03FF80FFE000
00FFFFFFC000
007FFFFF0000
001FFFFE0000
0007FFF00000
00007F000000
ENDCHAR
STARTCHAR 00D3
ENCODING 211
SWIDTH 810 0
DWIDTH 45 0
BBX 42 50 2 -1
BITMAP
000003C00000
000007800000
00000F000000
00000F000000
00001E000000
00001C000000
000038000000
000000000000
000000000000
00003E000000
0007FFF00000
001FFFFC0000
007FFFFF0000
00FFFFFFC000
03FF80FFE000
07FC001FF000
0FF00007F800
0FE00001FC00
1FC00000FC00
3F8000007E00
3F0000007E00
7E0000003F00
7E0000001F00
7C0000001F80
FC0000001F80
FC0000000F80
F80000000F80
F80000000F80
F80000000F80
F80000000FC0
F80000000F80
F80000000F80
F80000000F80
FC0000000F80
FC0000001F80
7C0000001F80
7E0000001F00
7E0000003F00
3F0000007E00
3F8000007E00
1FC00000FC00
0FE00001FC00
0FF00007F800
07FC001FF000
03FF80FFE000
00FFFFFFC000
007FFFFF0000
001FFFFE0000
0007FFF00000
00007F000000
ENDCHAR
STARTCHAR 00D4
ENCODING 212
SWIDTH 810 0
DWIDTH 45 0
BBX 42 51 2 -1
BITMAP
00003F000000
00007F000000
0000FF800000
0000F7C00000
0001E3E00000
0003E1E00000
0007C0F00000
000F80780000
000000000000
000000000000
00003E000000
0007FFF00000
001FFFFC0000
007FFFFF0000
00FFFFFFC000
03FF80FFE000
07FC001FF000
0FF00007F800
0FE00001FC00
1FC00000FC00
3F8000007E00
3F0000007E00
7E0000003F00
7E0000001F00
7C0000001F80
FC0000001F80
FC0000000F80
F80000000F80
F80000000F80
F80000000F80
F80000000FC0
F80000000F80
F80000000F80
F80000000F80
FC0000000F80
FC0000001F80
7C0000001F80
7E0000001F00
7E0000003F00
3F0000007E00
3F8000007E00
1FC00000FC00
0FE00001FC00
0FF00007F800
07FC001FF000
03FF80FFE000
00FFFFFFC000
007FFFFF0000
001FFFFE0000
0007FFF00000
00007F000000
ENDCHAR
STARTCHAR 00D5
ENCODING 213
SWIDTH 810 0
DWIDTH 45 0
BBX 42 50 2 -1
BITMAP
0003F0200000
0007FFE00000
0007FFE00000
00063FE00000
000003000000
000000000000
000000000000
000000000000
000000000000
00003E000000
0007FFF00000
001FFFFC0000
007FFFFF0000
00FFFFFFC000
03FF80FFE000
07FC001FF000
0FF00007F800
0FE00001FC00
1FC00000FC00
3F8000007E00
3F0000007E00
7E0000003F00
7E0000001F00
7C0000001F80
FC0000001F80
FC0000000F80
F80000000F80
F80000000F80
F80000000F80
F80000000FC0
F80000000F80
F80000000F80
F80000000F80
FC0000000F80
FC0000001F80
7C0000001F80
7E0000001F00
7E0000003F00
3F0000007E00
3F8000007E00
1FC00000FC00
0FE00001FC00
0FF00007F800
07FC001FF000
03FF80FFE000
00FFFFFFC000
007FFFFF0000
001FFFFE0000
0007FFF00000
00007F000000
ENDCHAR
STARTCHAR 00D6
ENCODING 214
SWIDTH 810 0
DWIDTH 45 0
BBX 42 51 2 -1
BITMAP
000200300000
000FC0FC0000
001FC1FE0000
001FE1FE0000
001FE1FE0000
001FE1FE0000
001FC0FE0000
000FC0FC0000
000000000000
000000000000
00003E000000
0007FFF00000
001FFFFC0000
007FFFFF0000
00FFFFFFC000
03FF80FFE000
07FC001FF000
0FF00007F800
0FE00001FC00
1FC00000FC00
3F8000007E00
3F0000007E00
7E0000003F00
7E0000001F00
7C0000001F80
FC0000001F80
FC0000000F80
F80000000F80
F80000000F80
F80000000F80
F80000000FC0
F80000000F80
F80000000F80
F80000000F80
FC0000000F80
FC0000001F80
7C0000001F80
7E0000001F00
7E0000003F00
3F0000007E00
3F8000007E00
1FC00000FC00
0FE00001FC00
0FF00007F800
07FC001FF000
03FF80FFE000
00FFFFFFC000
007FFFFF0000
001FFFFE0000
0007FFF00000
00007F000000
ENDCHAR
STARTCHAR 00D7
ENCODING 215
SWIDTH 504 0
DWIDTH 28 0
BBX 23 23 3 7
BITMAP
300010
780038
FC007C
FE00FC
7F01F8
3F83F0
1FC7E0
0FEFC0
07FF80
03FF00
01FE00
00FE00
01FF00
03FF80
07FFC0
0FCFE0
1F87F0
3F03F8
7E01FC
FC00FE
78007C
300038
000010
ENDCHAR
STARTCHAR 00D8
ENCODING 216
SWIDTH 792 0
DWIDTH 44 0
BBX 42 42 1 -1
BITMAP
00003F000C00
0003FFF81F00
001FFFFE3E00
003FFFFFFC00
00FFFFFFF800
01FFC0FFF000
03FE000FF000
07F80003F800
0FE00007FC00
1FC0000FFE00
1F80001F7E00
3F00003E3F00
3F00007C3F00
7E0000FC1F80
7E0000F81F80
7C0001F00F80
7C0003E00FC0
FC0007C00FC0
FC000F800FC0
FC001F0007C0
FC003E0007C0
FC007E0007C0
FC007C000FC0
FC00F8000FC0
7C01F0000FC0
7C03E0000F80
7E07C0001F80
7E0F80001F80
3F1F00003F00
3F3F00003F00
1FBE00007E00
1FFC0000FE00
0FF80001FC00
07F80003F800
03FC000FF000
07FFC07FE000
0FFFFFFFC000
0FFFFFFF8000
1F1FFFFE0000
3E03FFF80000
1C007F800000
080000000000
ENDCHAR
STARTCHAR 00D9
ENCODING 217
SWIDTH 504 0
DWIDTH 28 0
BBX 24 50 2 -1
BITMAP
01E000
00F000
00F000
007800
003800
001C00
001E00
000000
000000
000000
FC001F
FC001F
FC001F
FC001F
FC001F
FC001F
FC001F
FC001F
FC001F
FC001F
FC001F
FC001F
FC001F
FC001F
FC001F
FC001F
FC001F
FC001F
FC001F
FC001F
FC001F
FC001F
FC001F
FC001F
FC001F
FC001F
FC001F
FC001F
FC003F
7C003F
7C003E
7E003E
7E007E
3F00FC
3FC3FC
1FFFF8
0FFFF0
07FFE0
01FFC0
007E00
ENDCHAR
STARTCHAR 00DA
ENCODING 218
SWIDTH 504 0
DWIDTH 28 0
BBX 24 50 2 -1
BITMAP
0007C0
000780
000F00
001E00
001C00
003C00
003800
000000
000000
000000
FC001F
FC001F
FC001F
FC001F
FC001F
FC001F
FC001F
FC001F
FC001F
FC001F
FC001F
FC001F
FC001F
FC001F
FC001F
FC001F
FC001F
FC001F
FC001F
FC001F
FC001F
FC001F
FC001F
FC001F
FC001F
FC001F
FC001F
FC001F
FC003F
7C003F
7C003E
7E003E
7E007E
3F00FC
3FC3FC
1FFFF8
0FFFF0
07FFE0
01FFC0
007E00
ENDCHAR
STARTCHAR 00DB
ENCODING 219
SWIDTH 504 0
DWIDTH 28 0
BBX 24 51 2 -1
BITMAP
007E00
007F00
00FF80
01F780
03E7C0
07C3E0
0781F0
0F00F0
000000
000000
000000
FC001F
FC001F
FC001F
FC001F
FC001F
FC001F
FC001F
FC001F
FC001F
FC001F
FC001F
FC001F
FC001F
FC001F
FC001F
FC001F
FC001F
FC001F
FC001F
FC001F
FC001F
FC001F
FC001F
FC001F
FC001F
FC001F
FC001F
FC001F
FC003F
7C003F
7C003E
7E003E
7E007E
3F00FC
3FC3FC
1FFFF8
0FFFF0
07FFE0
01FFC0
007E00
ENDCHAR
STARTCHAR 00DC
ENCODING 220
SWIDTH 504 0
DWIDTH 28 0
BBX 24 51 2 -1
BITMAP
020030
1F80F8
1FC1FC
3FC1FE
3FC3FE
3FC1FE
1FC1FC
0F80F8
000000
000000
000000
FC001F
FC001F
FC001F
FC001F
FC001F
FC001F
FC001F
FC001F
FC001F
FC001F
FC001F
FC001F
FC001F
FC001F
FC001F
FC001F
FC001F
FC001F
FC001F
FC001F
FC001F
FC001F
FC001F
FC001F
FC001F
FC001F
FC001F
FC001F
FC003F
7C003F
7C003E
7E003E
7E007E
3F00FC
3FC3FC
1FFFF8
0FFFF0
07FFE0
01FFC0
007E00
ENDCHAR
STARTCHAR 00DD
ENCODING 221
SWIDTH 486 0
DWIDTH 27 0
BBX 24 49 2 0
BITMAP
000780
000F00
000F00
001E00
001C00
003800
007800
000000
000000
000000
F8003F
F8003F
F8003F
F8003F
F8003F
F8003F
F8003F
F8003F
F8003F
F8003F
F8003F
F8003F
F8003F
F8003F
F8003F
F8003F
F8003F
F8003F
FC003F
FC003E
FC003E
7C007E
7E007E
7F00FC
3F83FC
1FFFF8
0FFFF0
07FFE0
03FFC0
007E00
007E00
007E00
007E00
007E00
007E00
007E00
007E00
007E00
007E00
ENDCHAR
STARTCHAR 00E0
ENCODING 224
SWIDTH 540 0
DWIDTH 30 0
BBX 27 49 3 0
BITMAP
03E00000
01E00000
00F00000
00F00000
00780000
00380000
001C0000
00000000
00000000
007C0000
03FF8000
0FFFC000
1FFFF000
3FFFF000
3FC7F800
7F01FC00
7E00FC00
FC007E00
FC007E00
F8003E00
F8003E00
F8003E00
F8003E00
F8003E00
F8003E00
F8003E00
F8003E00
F8003E00
F8003E00
F8003E00
F8003E00
F8003E00
F8003E00
F8003E00
F8003E00
F8003E00
F8003E00
F8003E00
F8003E00
F8003E00
F8003E00
F8003E00
F8003E00
F8003E00
FFFFFFE0
FFFFFFE0
FFFFFFE0
FFFFFFE0
FFFFFFE0
ENDCHAR
STARTCHAR 00E1
ENCODING 225
SWIDTH 540 0
DWIDTH 30 0
BBX 27 49 3 0
BITMAP
00078000
000F0000
001E0000
001E0000
003C0000
00380000
00700000
00000000
00000000
007C0000
03FF8000
0FFFC000
1FFFF000
3FFFF000
3FC7F800
7F01FC00
7E00FC00
FC007E00
FC007E00
F8003E00
F8003E00
F8003E00
F8003E00
F8003E00
F8003E00
F8003E00
F8003E00
F8003E00
F8003E00
F8003E00
F8003E00
F8003E00
F8003E00
F8003E00
F8003E00
F8003E00
F8003E00
F8003E00
F8003E00
F8003E00
F8003E00
F8003E00
F8003E00
F8003E00
FFFFFFE0
FFFFFFE0
FFFFFFE0
FFFFFFE0
FFFFFFE0
ENDCHAR
STARTCHAR 00E2
ENCODING 226
SWIDTH 540 0
DWIDTH 30 0
BBX 27 50 3 0
BITMAP
007C0000
00FE0000
01FF0000
03EF8000
03C78000
0783C000
0F81E000
1F01F000
00000000
00000000
007C0000
03FF8000
0FFFC000
1FFFF000
3FFFF000
3FC7F800
7F01FC00
7E00FC00
FC007E00
FC007E00
F8003E00
F8003E00
F8003E00
F8003E00
F8003E00
F8003E00
F8003E00
F8003E00
F8003E00
F8003E00
F8003E00
F8003E00
F8003E00
F8003E00
F8003E00
F8003E00
F8003E00
F8003E00
F8003E00
F8003E00
F8003E00
F8003E00
F8003E00
F8003E00
F8003E00
FFFFFFE0
FFFFFFE0
FFFFFFE0
FFFFFFE0
FFFFFFE0
ENDCHAR
STARTCHAR 00E3
ENCODING 227
SWIDTH 540 0
DWIDTH 30 0
BBX 27 49 3 0
BITMAP
07E00000
0FFF8000
0FFF8000
0C7F8000
00060000
00000000
00000000
00000000
00000000
007C0000
03FF8000
0FFFC000
1FFFF000
3FFFF000
3FC7F800
7F01FC00
7E00FC00
FC007E00
FC007E00
F8003E00
F8003E00
F8003E00
F8003E00
F8003E00
F8003E00
F8003E00
F8003E00
F8003E00
F8003E00
F8003E00
F8003E00
F8003E00
F8003E00
F8003E00
F8003E00
F8003E00
F8003E00
F8003E00
F8003E00
F8003E00
F8003E00
F8003E00
F8003E00
F8003E00
FFFFFFE0
FFFFFFE0
FFFFFFE0
FFFFFFE0
FFFFFFE0
ENDCHAR
STARTCHAR 00E4
ENCODING 228
SWIDTH 540 0
DWIDTH 30 0
BBX 27 50 3 0
BITMAP
04006000
1F81F800
3F83FC00
3FC3FC00
3FC3FC00
3FC3FC00
3F83F800
1F01F800
00000000
00000000
007C0000
03FF8000
0FFFC000
1FFFF000
3FFFF000
3FC7F800
7F01FC00
7E00FC00
FC007E00
FC007E00
F8003E00
F8003E00
F8003E00
F8003E00
F8003E00
F8003E00
F8003E00
F8003E00
F8003E00
F8003E00
F8003E00
F8003E00
F8003E00
F8003E00
F8003E00
F8003E00
F8003E00
F8003E00
F8003E00
F8003E00
F8003E00
F8003E00
F8003E00
F8003E00
F8003E00
FFFFFFE0
FFFFFFE0
FFFFFFE0
FFFFFFE0
FFFFFFE0
ENDCHAR
STARTCHAR 00E5
ENCODING 229
SWIDTH 540 0
DWIDTH 30 0
BBX 27 53 3 0
BITMAP
007C0000
01FF0000
01EF0000
03838000
03838000
03838000
03838000
03C78000
01FF0000
00FE0000
00780000
00000000
00000000
007C0000
03FF8000
0FFFC000
1FFFF000
3FFFF000
3FC7F800
7F01FC00
7E00FC00
FC007E00
FC007E00
F8003E00
F8003E00
F8003E00
F8003E00
F8003E00
F8003E00
F8003E00
F8003E00
F8003E00
F8003E00
F8003E00
F8003E00
F8003E00
F8003E00
F8003E00
F8003E00
F8003E00
F8003E00
F8003E00
F8003E00
F8003E00
F8003E00
F8003E00
F8003E00
F8003E00
FFFFFFE0
FFFFFFE0
FFFFFFE0
FFFFFFE0
FFFFFFE0
ENDCHAR
STARTCHAR 00E7
ENCODING 231
SWIDTH 684 0
DWIDTH 38 0
BBX 35 52 2 -12
BITMAP
00003E0000
0007FFE000
001FFFFC00
007FFFFE00
00FFFFFF80
03FF81FFC0
07FC003FE0
0FF0000FE0
0FE00003C0
1FC0000180
3F80000100
3F00000000
7E00000000
7E00000000
7C00000000
FC00000000
FC00000000
F800000000
F800000000
F800000000
F800000000
F800000000
F800000000
F800000000
FC00000000
FC00000000
7C00000000
7E00000000
7E00000000
3F00000000
3F80000000
1F80000180
0FE00003C0
0FF0000FE0
07FC001FE0
03FF80FFC0
01FFFFFF80
007FFFFE00
001FFFFC00
0007FFF000
00007F0000
0000700000
0000780000
00007E0000
00000E0000
0000070000
0000070000
0006070000
000F0F0000
0007FE0000
0003FC0000
0000F80000
ENDCHAR
STARTCHAR 00E8
ENCODING 232
SWIDTH 486 0
DWIDTH 27 0
BBX 26 49 1 0
BITMAP
03E00000
01F00000
00F00000
00780000
00380000
003C0000
001C0000
00000000
00000000
00000000
0FFFF000
0FFFF000
0FFFF000
0FFFF000
0FFFF000
0F800000
0F800000
0F800000
0F800000
0F800000
0F800000
0F800000
0F800000
0F800000
0F800000
0F800000
0F800000
FFFFFC00
FFFFFC00
FFFFFC00
FFFFFC00
FFFFFC00
0F800000
0F800000
0F800000
0F800000
0F800000
0F800000
0F800000
0F800000
0F800000
0F800000
0F800000
0F800000
0FFFFFC0
0FFFFFC0
0FFFFFC0
0FFFFFC0
0FFFFFC0
ENDCHAR
STARTCHAR 00E9
ENCODING 233
SWIDTH 486 0
DWIDTH 27 0
BBX 26 49 1 0
BITMAP
00078000
000F8000
000F0000
001E0000
001C0000
003C0000
00780000
00000000
00000000
00000000
0FFFF000
0FFFF000
0FFFF000
0FFFF000
0FFFF000
0F800000
0F800000
0F800000
0F800000
0F800000
0F800000
0F800000
0F800000
0F800000
0F800000
0F800000
0F800000
FFFFFC00
FFFFFC00
FFFFFC00
FFFFFC00
FFFFFC00
0F800000
0F800000
0F800000
0F800000
0F800000
0F800000
0F800000
0F800000
0F800000
0F800000
0F800000
0F800000
0FFFFFC0
0FFFFFC0
0FFFFFC0
0FFFFFC0
0FFFFFC0
ENDCHAR
STARTCHAR 00EA
ENCODING 234
SWIDTH 486 0
DWIDTH 27 0
BBX 26 50 1 0
BITMAP
007E0000
00FF0000
00FF0000
01EF8000
03E7C000
07C3E000
0781E000
0F00F000
00000000
00000000
00000000
0FFFF000
0FFFF000
0FFFF000
0FFFF000
0FFFF000
0F800000
0F800000
0F800000
0F800000
0F800000
0F800000
0F800000
0F800000
0F800000
0F800000
0F800000
0F800000
FFFFFC00
FFFFFC00
FFFFFC00
FFFFFC00
FFFFFC00
0F800000
0F800000
0F800000
0F800000
0F800000
0F800000
0F800000
0F800000
0F800000
0F800000
0F800000
0F800000
0FFFFFC0
0FFFFFC0
0FFFFFC0
0FFFFFC0
0FFFFFC0
ENDCHAR
STARTCHAR 00EB
ENCODING 235
SWIDTH 486 0
DWIDTH 27 0
BBX 26 50 1 0
BITMAP
06002000
1F80F800
3FC1FC00
3FC3FC00
3FC3FC00
3FC3FC00
1FC1FC00
1F80F800
00000000
00000000
00000000
0FFFF000
0FFFF000
0FFFF000
0FFFF000
0FFFF000
0F800000
0F800000
0F800000
0F800000
0F800000
0F800000
0F800000
0F800000
0F800000
0F800000
0F800000
0F800000
FFFFFC00
FFFFFC00
FFFFFC00
FFFFFC00
FFFFFC00
0F800000
0F800000
0F800000
0F800000
0F800000
0F800000
0F800000
0F800000
0F800000
0F800000
0F800000
0F800000
0FFFFFC0
0FFFFFC0
0FFFFFC0
0FFFFFC0
0FFFFFC0
ENDCHAR
STARTCHAR 00EC
ENCODING 236
SWIDTH 198 0
DWIDTH 11 0
BBX 8 34 0 0
BITMAP
F8
78
3C
3C
1E
0E
07
00
00
00
1F
1F
1F
1F
1F
1F
1F
1F
1F
1F
1F
1F
1F
1F
1F
1F
1F
1F
1F
1F
1F
1F
1F
1F
ENDCHAR
STARTCHAR 00ED
ENCODING 237
SWIDTH 198 0
DWIDTH 11 0
BBX 8 34 3 0
BITMAP
0F
1E
3C
3C
78
70
E0
00
00
00
F8
F8
F8
F8
F8
F8
F8
F8
F8
F8
F8
F8
F8
F8
F8
F8
F8
F8
F8
F8
F8
F8
F8
F8
ENDCHAR
STARTCHAR 00EE
ENCODING 238
SWIDTH 198 0
DWIDTH 11 0
BBX 17 35 -3 0
BITMAP
03E000
07F000
0FF800
1F7C00
1E3E00
3C1E00
7C0F00
F80F80
000000
000000
000000
03E000
03E000
03E000
03E000
03E000
03E000
03E000
03E000
03E000
03E000
03E000
03E000
03E000
03E000
03E000
03E000
03E000
03E000
03E000
03E000
03E000
03E000
03E000
03E000
ENDCHAR
STARTCHAR 00EF
ENCODING 239
SWIDTH 198 0
DWIDTH 11 0
BBX 20 35 -4 0
BITMAP
100180
7E07E0
FE0FF0
FF0FF0
FF0FF0
FF0FF0
FE0FF0
7C07E0
000000
000000
000000
01F000
01F000
01F000
01F000
01F000
01F000
01F000
01F000
01F000
01F000
01F000
01F000
01F000
01F000
01F000
01F000
01F000
01F000
01F000
01F000
01F000
01F000
01F000
01F000
ENDCHAR
STARTCHAR 00F1
ENCODING 241
SWIDTH 522 0
DWIDTH 29 0
BBX 25 49 1 0
BITMAP
01F80000
03FFE000
03FFE000
031FE000
00018000
00000000
00000000
00000000
00000000
30000000
38000F80
7C000F80
FE000F80
FF800F80
3FC00F80
3FE00F80
3FF80F80
3FFC0F80
3FFE0F80
3EFF0F80
3E7FCF80
3E1FEF80
3E0FFF80
3E07FF80
3E03FF80
3E00FF80
3E007F80
3E003F80
3E000F80
3E000F80
3E000F80
3E000F80
3E000F80
3E000F80
3E000F80
3E000F80
3E000F80
3E000F80
3E000F80
3E000F80
3E000F80
3E000F80
3E000F80
3E000F80
3E000F80
3E000F80
3E000F80
3E000F80
3E000F80
ENDCHAR
STARTCHAR 00F2
ENCODING 242
SWIDTH 810 0
DWIDTH 45 0
BBX 42 50 2 -1
BITMAP
0001F0000000
0000F0000000
000078000000
000038000000
00003C000000
00001E000000
00000E000000
000000000000
000000000000
00003E000000
0007FFF00000
001FFFFC0000
007FFFFF0000
00FFFFFFC000
03FF80FFE000
07FC001FF000
0FF00007F800
0FE00001FC00
1FC00000FC00
3F8000007E00
3F0000007E00
7E0000003F00
7E0000001F00
7C0000001F80
FC0000001F80
FC0000000F80
F80000000F80
F80000000F80
F80000000F80
F80000000FC0
F80000000F80
F80000000F80
F80000000F80
FC0000000F80
FC0000001F80
7C0000001F80
7E0000001F00
7E0000003F00
3F0000007E00
3F8000007E00
1FC00000FC00
0FE00001FC00
0FF00007F800
07FC001FF000
03FF80FFE000
00FFFFFFC000
007FFFFF0000
001FFFFE0000
0007FFF00000
00007F000000
ENDCHAR
STARTCHAR 00F3
ENCODING 243
SWIDTH 810 0
DWIDTH 45 0
BBX 42 50 2 -1
BITMAP
000003C00000
000007800000
00000F000000
00000F000000
00001E000000
00001C000000
000038000000
000000000000
000000000000
00003E000000
0007FFF00000
001FFFFC0000
007FFFFF0000
00FFFFFFC000
03FF80FFE000
07FC001FF000
0FF00007F800
0FE00001FC00
1FC00000FC00
3F8000007E00
3F0000007E00
7E0000003F00
7E0000001F00
7C0000001F80
FC0000001F80
FC0000000F80
F80000000F80
F80000000F80
F80000000F80
F80000000FC0
F80000000F80
F80000000F80
F80000000F80
FC0000000F80
FC0000001F80
7C0000001F80
7E0000001F00
7E0000003F00
3F0000007E00
3F8000007E00
1FC00000FC00
0FE00001FC00
0FF00007F800
07FC001FF000
03FF80FFE000
00FFFFFFC000
007FFFFF0000
001FFFFE0000
0007FFF00000
00007F000000
ENDCHAR
STARTCHAR 00F4
ENCODING 244
SWIDTH 810 0
DWIDTH 45 0
BBX 42 51 2 -1
BITMAP
00003F000000
00007F000000
0000FF800000
0000F7C00000
0001E3E00000
0003E1E00000
0007C0F00000
000F80780000
000000000000
000000000000
00003E000000
0007FFF00000
001FFFFC0000
007FFFFF0000
00FFFFFFC000
03FF80FFE000
07FC001FF000
0FF00007F800
0FE00001FC00
1FC00000FC00
3F8000007E00
3F0000007E00
7E0000003F00
7E0000001F00
7C0000001F80
FC0000001F80
FC0000000F80
F80000000F80
F80000000F80
F80000000F80
F80000000FC0
F80000000F80
F80000000F80
F80000000F80
FC0000000F80
FC0000001F80
7C0000001F80
7E0000001F00
7E0000003F00
3F0000007E00
3F8000007E00
1FC00000FC00
0FE00001FC00
0FF00007F800
07FC001FF000
03FF80FFE000
00FFFFFFC000
007FFFFF0000
001FFFFE0000
0007FFF00000
00007F000000
ENDCHAR
STARTCHAR 00F5
ENCODING 245
SWIDTH 810 0
DWIDTH 45 0
BBX 42 50 2 -1
BITMAP
0003F0200000
0007FFE00000
0007FFE00000
00063FE00000
000003000000
000000000000
000000000000
000000000000
000000000000
00003E000000
0007FFF00000
001FFFFC0000
007FFFFF0000
00FFFFFFC000
03FF80FFE000
07FC001FF000
0FF00007F800
0FE00001FC00
1FC00000FC00
3F8000007E00
3F0000007E00
7E0000003F00
7E0000001F00
7C0000001F80
FC0000001F80
FC0000000F80
F80000000F80
F80000000F80
F80000000F80
F80000000FC0
F80000000F80
F80000000F80
F80000000F80
FC0000000F80
FC0000001F80
7C0000001F80
7E0000001F00
7E0000003F00
3F0000007E00
3F8000007E00
1FC00000FC00
0FE00001FC00
0FF00007F800
07FC001FF000
03FF80FFE000
00FFFFFFC000
007FFFFF0000
001FFFFE0000
0007FFF00000
00007F000000
ENDCHAR
STARTCHAR 00F6
ENCODING 246
SWIDTH 810 0
DWIDTH 45 0
BBX 42 51 2 -1
BITMAP
000200300000
000FC0FC0000
001FC1FE0000
001FE1FE0000
001FE1FE0000
001FE1FE0000
001FC0FE0000
000FC0FC0000
000000000000
000000000000
00003E000000
0007FFF00000
001FFFFC0000
007FFFFF0000
00FFFFFFC000
03FF80FFE000
07FC001FF000
0FF00007F800
0FE00001FC00
1FC00000FC00
3F8000007E00
3F0000007E00
7E0000003F00
7E0000001F00
7C0000001F80
FC0000001F80
FC0000000F80
F80000000F80
F80000000F80
F80000000F80
F80000000FC0
F80000000F80
F80000000F80
F80000000F80
FC0000000F80
FC0000001F80
7C0000001F80
7E0000001F00
7E0000003F00
3F0000007E00
3F8000007E00
1FC00000FC00
0FE00001FC00
0FF00007F800
07FC001FF000
03FF80FFE000
00FFFFFFC000
007FFFFF0000
001FFFFE0000
0007FFF00000
00007F000000
ENDCHAR
STARTCHAR 00F7
ENCODING 247
SWIDTH 558 0
DWIDTH 31 0
BBX 25 25 3 5
BITMAP
003E0000
007F0000
007F0000
007F0000
007F0000
003E0000
001C0000
00000000
00000000
00000000
FFFFFF80
FFFFFF80
FFFFFF80
FFFFFF80
00000000
00000000
00000000
00080000
003E0000
007F0000
007F0000
007F0000
007F0000
003E0000
00080000
ENDCHAR
STARTCHAR 00F8
ENCODING 248
SWIDTH 792 0
DWIDTH 44 0
BBX 42 42 1 -1
BITMAP
00003F000C00
0003FFF81F00
001FFFFE3E00
003FFFFFFC00
00FFFFFFF800
01FFC0FFF000
03FE000FF000
07F80003F800
0FE00007FC00
1FC0000FFE00
1F80001F7E00
3F00003E3F00
3F00007C3F00
7E0000FC1F80
7E0000F81F80
7C0001F00F80
7C0003E00FC0
FC0007C00FC0
FC000F800FC0
FC001F0007C0
FC003E0007C0
FC007E0007C0
FC007C000FC0
FC00F8000FC0
7C01F0000FC0
7C03E0000F80
7E07C0001F80
7E0F80001F80
3F1F00003F00
3F3F00003F00
1FBE00007E00
1FFC0000FE00
0FF80001FC00
07F80003F800
03FC000FF000
07FFC07FE000
0FFFFFFFC000
0FFFFFFF8000
1F1FFFFE0000
3E03FFF80000
1C007F800000
080000000000
ENDCHAR
STARTCHAR 00F9
ENCODING 249
SWIDTH 504 0
DWIDTH 28 0
BBX 24 50 2 -1
BITMAP
01E000
00F000
00F000
007800
003800
001C00
001E00
000000
000000
000000
FC001F
FC001F
FC001F
FC001F
FC001F
FC001F
FC001F
FC001F
FC001F
FC001F
FC001F
FC001F
FC001F
FC001F
FC001F
FC001F
FC001F
FC001F
FC001F
FC001F
FC001F
FC001F
FC001F
FC001F
FC001F
FC001F
FC001F
FC001F
FC003F
7C003F
7C003E
7E003E
7E007E
3F00FC
3FC3FC
1FFFF8
0FFFF0
07FFE0
01FFC0
007E00
ENDCHAR
STARTCHAR 00FA
ENCODING 250
SWIDTH 504 0
DWIDTH 28 0
BBX 24 50 2 -1
BITMAP
0007C0
000780
000F00
001E00
001C00
003C00
003800
000000
000000
000000
FC001F
FC001F
FC001F
FC001F
FC001F
FC001F
FC001F
FC001F
FC001F
FC001F
FC001F
FC001F
FC001F
FC001F
FC001F
FC001F
FC001F
FC001F
FC001F
FC001F
FC001F
FC001F
FC001F
FC001F
FC001F
FC001F
FC001F
FC001F
FC003F
7C003F
7C003E
7E003E
7E007E
3F00FC
3FC3FC
1FFFF8
0FFFF0
07FFE0
01FFC0
007E00
ENDCHAR
STARTCHAR 00FB
ENCODING 251
SWIDTH 504 0
DWIDTH 28 0
BBX 24 51 2 -1
BITMAP
007E00
007F00
00FF80
01F780
03E7C0
07C3E0
0781F0
0F00F0
000000
000000
000000
FC001F
FC001F
FC001F
FC001F
FC001F
FC001F
FC001F
FC001F
FC001F
FC001F
FC001F
FC001F
FC001F
FC001F
FC001F
FC001F
FC001F
FC001F
FC001F
FC001F
FC001F
FC001F
FC001F
FC001F
FC001F
FC001F
FC001F
FC001F
FC003F
7C003F
7C003E
7E003E
7E007E
3F00FC
3FC3FC
1FFFF8
0FFFF0
07FFE0
01FFC0
007E00
ENDCHAR
STARTCHAR 00FC
ENCODING 252
SWIDTH 504 0
DWIDTH 28 0
BBX 24 51 2 -1
BITMAP
020030
1F80F8
1FC1FC
3FC1FE
3FC3FE
3FC1FE
1FC1FC
0F80F8
000000
000000
000000
FC001F
FC001F
FC001F
FC001F
FC001F
FC001F
FC001F
FC001F
FC001F
FC001F
FC001F
FC001F
FC001F
FC001F
FC001F
FC001F
FC001F
FC001F
FC001F
FC001F
FC001F
FC001F
FC001F
FC001F
FC001F
FC001F
FC001F
FC001F
FC003F
7C003F
7C003E
7E003E
7E007E
3F00FC
3FC3FC
1FFFF8
0FFFF0
07FFE0
01FFC0
007E00
ENDCHAR
STARTCHAR 00FD
ENCODING 253
SWIDTH 486 0
DWIDTH 27 0
BBX 24 49 2 0
BITMAP
000780
000F00
000F00
001E00
001C00
003800
007800
000000
000000
000000
F8003F
F8003F
F8003F
F8003F
F8003F
F8003F
F8003F
F8003F
F8003F
F8003F
F8003F
F8003F
F8003F
F8003F
F8003F
F8003F
F8003F
F8003F
FC003F
FC003E
FC003E
7C007E
7E007E
7F00FC
3F83FC
1FFFF8
0FFFF0
07FFE0
03FFC0
007E00
007E00
007E00
007E00
007E00
007E00
007E00
007E00
007E00
007E00
ENDCHAR
STARTCHAR 00FF
ENCODING 255
SWIDTH 486 0
DWIDTH 27 0
BBX 24 50 2 0
BITMAP
060020
1F81F8
3FC1FC
3FC3FC
3FC3FC
3FC3FC
3FC1FC
1F80F8
000000
000000
000000
F8003F
F8003F
F8003F
F8003F
F8003F
F8003F
F8003F
F8003F
F8003F
F8003F
F8003F
F8003F
F8003F
F8003F
F8003F
F8003F
F8003F
F8003F
FC003F
FC003E
FC003E
7C007E
7E007E
7F00FC
3F83FC
1FFFF8
0FFFF0
07FFE0
03FFC0
007E00
007E00
007E00
007E00
007E00
007E00
007E00
007E00
007E00
007E00
ENDCHAR
STARTCHAR 0100
ENCODING 256
SWIDTH 540 0
DWIDTH 30 0
BBX 27 48 3 0
BITMAP
0FFFE000
0FFFE000
0FFFE000
0FFFE000
00000000
00000000
00000000
00000000
007C0000
03FF8000
0FFFC000
1FFFF000
3FFFF000
3FC7F800
7F01FC00
7E00FC00
FC007E00
FC007E00
F8003E00
F8003E00
F8003E00
F8003E00
F8003E00
F8003E00
F8003E00
F8003E00
F8003E00
F8003E00
F8003E00
F8003E00
F8003E00
F8003E00
F8003E00
F8003E00
F8003E00
F8003E00
F8003E00
F8003E00
F8003E00
F8003E00
F8003E00
F8003E00
F8003E00
FFFFFFE0
FFFFFFE0
FFFFFFE0
FFFFFFE0
FFFFFFE0
ENDCHAR
STARTCHAR 0101
ENCODING 257
SWIDTH 540 0
DWIDTH 30 0
BBX 27 48 3 0
BITMAP
0FFFE000
0FFFE000
0FFFE000
0FFFE000
00000000
00000000
00000000
00000000
007C0000
03FF8000
0FFFC000
1FFFF000
3FFFF000
3FC7F800
7F01FC00
7E00FC00
FC007E00
FC007E00
F8003E00
F8003E00
F8003E00
F8003E00
F8003E00
F8003E00
F8003E00
F8003E00
F8003E00
F8003E00
F8003E00
F8003E00
F8003E00
F8003E00
F8003E00
F8003E00
F8003E00
F8003E00
F8003E00
F8003E00
F8003E00
F8003E00
F8003E00
F8003E00
F8003E00
FFFFFFE0
FFFFFFE0
FFFFFFE0
FFFFFFE0
FFFFFFE0
ENDCHAR
STARTCHAR 0102
ENCODING 258
SWIDTH 540 0
DWIDTH 30 0
BBX 27 50 3 0
BITMAP
0E00E000
0F00E000
0F01E000
0783C000
07EFC000
03FF8000
01FF0000
003C0000
00000000
00000000
007C0000
03FF8000
0FFFC000
1FFFF000
3FFFF000
3FC7F800
7F01FC00
7E00FC00
FC007E00
FC007E00
F8003E00
F8003E00
F8003E00
F8003E00
F8003E00
F8003E00
F8003E00
F8003E00
F8003E00
F8003E00
F8003E00
F8003E00
F8003E00
F8003E00
F8003E00
F8003E00
F8003E00
F8003E00
F8003E00
F8003E00
F8003E00
F8003E00
F8003E00
F8003E00
F8003E00
FFFFFFE0
FFFFFFE0
FFFFFFE0
FFFFFFE0
FFFFFFE0
ENDCHAR
STARTCHAR 0103
ENCODING 259
SWIDTH 540 0
DWIDTH 30 0
BBX 27 50 3 0
BITMAP
0E00E000
0F00E000
0F01E000
0783C000
07EFC000
03FF8000
01FF0000
003C0000
00000000
00000000
007C0000
03FF8000
0FFFC000
1FFFF000
3FFFF000
3FC7F800
7F01FC00
7E00FC00
FC007E00
FC007E00
F8003E00
F8003E00
F8003E00
F8003E00
F8003E00
F8003E00
F8003E00
F8003E00
F8003E00
F8003E00
F8003E00
F8003E00
F8003E00
F8003E00
F8003E00
F8003E00
F8003E00
F8003E00
F8003E00
F8003E00
F8003E00
F8003E00
F8003E00
F8003E00
F8003E00
FFFFFFE0
FFFFFFE0
FFFFFFE0
FFFFFFE0
FFFFFFE0
ENDCHAR
STARTCHAR 0104
ENCODING 260
SWIDTH 540 0
DWIDTH 30 0
BBX 29 50 3 -10
BITMAP
007C0000
03FF8000
0FFFC000
1FFFF000
3FFFF000
3FC7F800
7F01FC00
7E00FC00
FC007E00
FC007E00
F8003E00
F8003E00
F8003E00
F8003E00
F8003E00
F8003E00
F8003E00
F8003E00
F8003E00
F8003E00
F8003E00
F8003E00
F8003E00
F8003E00
F8003E00
F8003E00
F8003E00
F8003E00
F8003E00
F8003E00
F8003E00
F8003E00
F8003E00
F8003E00
F8003E00
FFFFFFE0
FFFFFFE0
FFFFFFE0
FFFFFFE0
FFFFFFE0
00000780
00000E00
00001C00
00001C00
00003800
00003800
00001C30
00001FF8
00000FF8
000007E0
ENDCHAR
STARTCHAR 0105
ENCODING 261
SWIDTH 540 0
DWIDTH 30 0
BBX 29 50 3 -10
BITMAP
007C0000
03FF8000
0FFFC000
1FFFF000
3FFFF000
3FC7F800
7F01FC00
7E00FC00
FC007E00
FC007E00
F8003E00
F8003E00
F8003E00
F8003E00
F8003E00
F8003E00
F8003E00
F8003E00
F8003E00
F8003E00
F8003E00
F8003E00
F8003E00
F8003E00
F8003E00
F8003E00
F8003E00
F8003E00
F8003E00
F8003E00
F8003E00
F8003E00
F8003E00
F8003E00
F8003E00
FFFFFFE0
FFFFFFE0
FFFFFFE0
FFFFFFE0
FFFFFFE0
00000780
00000E00
00001C00
00001C00
00003800
00003800
00001C30
00001FF8
00000FF8
000007E0
ENDCHAR
STARTCHAR 0106
ENCODING 262
SWIDTH 684 0
DWIDTH 38 0
BBX 35 50 2 -1
BITMAP
000007C000
0000078000
00000F0000
00001E0000
00001E0000
00003C0000
0000380000
0000000000
0000000000
00003E0000
0007FFE000
001FFFFC00
007FFFFE00
00FFFFFF80
03FF81FFC0
07FC003FE0
0FF0000FE0
0FE00003C0
1FC0000180
3F80000100
3F00000000
7E00000000
7E00000000
7C00000000
FC00000000
FC00000000
F800000000
F800000000
F800000000
F800000000
F800000000
F800000000
F800000000
FC00000000
FC00000000
7C00000000
7E00000000
7E00000000
3F00000000
3F80000000
1F80000180
0FE00003C0
0FF0000FE0
07FC001FE0
03FF80FFC0
01FFFFFF80
007FFFFF00
001FFFFC00
0007FFF000
0000FF0000
ENDCHAR
STARTCHAR 0107
ENCODING 263
SWIDTH 684 0
DWIDTH 38 0
BBX 35 50 2 -1
BITMAP
000007C000
0000078000
00000F0000
00001E0000
00001E0000
00003C0000
0000380000
0000000000
0000000000
00003E0000
0007FFE000
001FFFFC00
007FFFFE00
00FFFFFF80
03FF81FFC0
07FC003FE0
0FF0000FE0
0FE00003C0
1FC0000180
3F80000100
3F00000000
7E00000000
7E00000000
7C00000000
FC00000000
FC00000000
F800000000
F800000000
F800000000
F800000000
F800000000
F800000000
F800000000
FC00000000
FC00000000
7C00000000
7E00000000
7E00000000
3F00000000
3F80000000
1F80000180
0FE00003C0
0FF0000FE0
07FC001FE0
03FF80FFC0
01FFFFFF80
007FFFFF00
001FFFFC00
0007FFF000
0000FF0000
ENDCHAR
STARTCHAR 010A
ENCODING 266
SWIDTH 684 0
DWIDTH 38 0
BBX 35 52 2 -1
BITMAP
00001C0000
00007F0000
00007F0000
0000FF8000
0000FF8000
00007F0000
00007F0000
00003E0000
0000000000
0000000000
0000000000
00003E0000
0007FFE000
001FFFFC00
007FFFFE00
00FFFFFF80
03FF81FFC0
07FC003FE0
0FF0000FE0
0FE00003C0
1FC0000180
3F80000100
3F00000000
7E00000000
7E00000000
7C00000000
FC00000000
FC00000000
F800000000
F800000000
F800000000
F800000000
F800000000
F800000000
F800000000
FC00000000
FC00000000
7C00000000
7E00000000
7E00000000
3F00000000
3F80000000
1F80000180
0FE00003C0
0FF0000FE0
07FC001FE0
03FF80FFC0
01FFFFFF80
007FFFFF00
001FFFFC00
0007FFF000
0000FF0000
ENDCHAR
STARTCHAR 010B
ENCODING 267
SWIDTH 684 0
DWIDTH 38 0
BBX 35 52 2 -1
BITMAP
00001C0000
00007F0000
00007F0000
0000FF8000
0000FF8000
00007F0000
00007F0000
00003E0000
0000000000
0000000000
0000000000
00003E0000
0007FFE000
001FFFFC00
007FFFFE00
00FFFFFF80
03FF81FFC0
07FC003FE0
0FF0000FE0
0FE00003C0
1FC0000180
3F80000100
3F00000000
7E00000000
7E00000000
7C00000000
FC00000000
FC00000000
F800000000
F800000000
F800000000
F800000000
F800000000
F800000000
F800000000
FC00000000
FC00000000
7C00000000
7E00000000
7E00000000
3F00000000
3F80000000
1F80000180
0FE00003C0
0FF0000FE0
07FC001FE0
03FF80FFC0
01FFFFFF80
007FFFFF00
001FFFFC00
0007FFF000
0000FF0000
ENDCHAR
STARTCHAR 010C
ENCODING 268
SWIDTH 684 0
DWIDTH 38 0
BBX 35 51 2 -1
BITMAP
000F80F000
0007C1E000
0003C3E000
0001E7C000
0001F78000
0000FF0000
00007F0000
0000000000
0000000000
0000000000
00003E0000
0007FFE000
001FFFFC00
007FFFFE00
00FFFFFF80
03FF81FFC0
07FC003FE0
0FF0000FE0
0FE00003C0
1FC0000180
3F80000100
3F00000000
7E00000000
7E00000000
7C00000000
FC00000000
FC00000000
F800000000
F800000000
F800000000
F800000000
F800000000
F800000000
F800000000
FC00000000
FC00000000
7C00000000
7E00000000
7E00000000
3F00000000
3F80000000
1F80000180
0FE00003C0
0FF0000FE0
07FC001FE0
03FF80FFC0
01FFFFFF80
007FFFFF00
001FFFFC00
0007FFF000
0000FF0000
ENDCHAR
STARTCHAR 010D
ENCODING 269
SWIDTH 684 0
DWIDTH 38 0
BBX 35 51 2 -1
BITMAP
000F80F000
0007C1E000
0003C3E000
0001E7C000
0001F78000
0000FF0000
00007F0000
0000000000
0000000000
0000000000
00003E0000
0007FFE000
001FFFFC00
007FFFFE00
00FFFFFF80
03FF81FFC0
07FC003FE0
0FF0000FE0
0FE00003C0
1FC0000180
3F80000100
3F00000000
7E00000000
7E00000000
7C00000000
FC00000000
FC00000000
F800000000
F800000000
F800000000
F800000000
F800000000
F800000000
F800000000
FC00000000
FC00000000
7C00000000
7E00000000
7E00000000
3F00000000
3F80000000
1F80000180
0FE00003C0
0FF0000FE0
07FC001FE0
03FF80FFC0
01FFFFFF80
007FFFFF00
001FFFFC00
0007FFF000
0000FF0000
ENDCHAR
STARTCHAR 010E
ENCODING 270
SWIDTH 648 0
DWIDTH 36 0
BBX 31 50 3 0
BITMAP
0F80F000
07C1E000
03C3E000
01E7C000
01FF8000
00FF0000
007E0000
00000000
00000000
00000000
00000000
FFFE0000
FFFFE000
FFFFF800
FFFFFE00
FFFFFF80
F801FFC0
F8003FE0
F8000FE0
F80007F0
F80003F8
F80001F8
F80000FC
F80000FC
F800007C
F800007E
F800003E
F800003E
F800003E
F800003E
F800003E
F800003E
F800003E
F800003E
F800003E
F800007E
F800007E
F800007C
F80000FC
F80001F8
F80001F8
F80007F0
F8000FF0
F8003FE0
F801FFC0
FFFFFF80
FFFFFE00
FFFFFC00
FFFFE000
FFFF0000
ENDCHAR
STARTCHAR 010F
ENCODING 271
SWIDTH 648 0
DWIDTH 36 0
BBX 31 50 3 0
BITMAP
0F80F000
07C1E000
03C3E000
01E7C000
01FF8000
00FF0000
007E0000
00000000
00000000
00000000
00000000
FFFE0000
FFFFE000
FFFFF800
FFFFFE00
FFFFFF80
F801FFC0
F8003FE0
F8000FE0
F80007F0
F80003F8
F80001F8
F80000FC
F80000FC
F800007C
F800007E
F800003E
F800003E
F800003E
F800003E
F800003E
F800003E
F800003E
F800003E
F800003E
F800007E
F800007E
F800007C
F80000FC
F80001F8
F80001F8
F80007F0
F8000FF0
F8003FE0
F801FFC0
FFFFFF80
FFFFFE00
FFFFFC00
FFFFE000
FFFF0000
ENDCHAR
STARTCHAR 0110
ENCODING 272
SWIDTH 684 0
DWIDTH 38 0
BBX 35 39 1 0
BITMAP
0FFFE00000
0FFFFE0000
0FFFFF8000
0FFFFFE000
0FFFFFF800
0F801FFC00
0F8003FE00
0F8000FE00
0F80007F00
0F80003F80
0F80001F80
0F80000FC0
0F80000FC0
0F800007C0
0F800007E0
0F800003E0
0F800003E0
FFFFE003E0
FFFFE003E0
FFFFE003E0
FFFFE003E0
FFFFE003E0
0F800003E0
0F800003E0
0F800007E0
0F800007E0
0F800007C0
0F80000FC0
0F80001F80
0F80001F80
0F80007F00
0F8000FF00
0F8003FE00
0F801FFC00
0FFFFFF800
0FFFFFE000
0FFFFFC000
0FFFFE0000
0FFFF00000
ENDCHAR
STARTCHAR 0111
ENCODING 273
SWIDTH 684 0
DWIDTH 38 0
BBX 35 39 1 0
BITMAP
0FFFE00000
0FFFFE0000
0FFFFF8000
0FFFFFE000
0FFFFFF800
0F801FFC00
0F8003FE00
0F8000FE00
0F80007F00
0F80003F80
0F80001F80
0F80000FC0
0F80000FC0
0F800007C0
0F800007E0
0F800003E0
0F800003E0
FFFFE003E0
FFFFE003E0
FFFFE003E0
FFFFE003E0
FFFFE003E0
0F800003E0
0F800003E0
0F800007E0
0F800007E0
0F800007C0
0F80000FC0
0F80001F80
0F80001F80
0F80007F00
0F8000FF00
0F8003FE00
0F801FFC00
0FFFFFF800
0FFFFFE000
0FFFFFC000
0FFFFE0000
0FFFF00000
ENDCHAR
STARTCHAR 0112
ENCODING 274
SWIDTH 486 0
DWIDTH 27 0
BBX 26 48 1 0
BITMAP
0FFFF000
0FFFF000
0FFFF000
0FFFF000
00000000
00000000
00000000
00000000
00000000
0FFFF000
0FFFF000
0FFFF000
0FFFF000
0FFFF000
0F800000
0F800000
0F800000
0F800000
0F800000
0F800000
0F800000
0F800000
0F800000
0F800000
0F800000
0F800000
FFFFFC00
FFFFFC00
FFFFFC00
FFFFFC00
FFFFFC00
0F800000
0F800000
0F800000
0F800000
0F800000
0F800000
0F800000
0F800000
0F800000
0F800000
0F800000
0F800000
0FFFFFC0
0FFFFFC0
0FFFFFC0
0FFFFFC0
0FFFFFC0
ENDCHAR
STARTCHAR 0113
ENCODING 275
SWIDTH 486 0
DWIDTH 27 0
BBX 26 48 1 0
BITMAP
0FFFF000
0FFFF000
0FFFF000
0FFFF000
00000000
00000000
00000000
00000000
00000000
0FFFF000
0FFFF000
0FFFF000
0FFFF000
0FFFF000
0F800000
0F800000
0F800000
0F800000
0F800000
0F800000
0F800000
0F800000
0F800000
0F800000
0F800000
0F800000
FFFFFC00
FFFFFC00
FFFFFC00
FFFFFC00
FFFFFC00
0F800000
0F800000
0F800000
0F800000
0F800000
0F800000
0F800000
0F800000
0F800000
0F800000
0F800000
0F800000
0FFFFFC0
0FFFFFC0
0FFFFFC0
0FFFFFC0
0FFFFFC0
ENDCHAR
STARTCHAR 0116
ENCODING 278
SWIDTH 486 0
DWIDTH 27 0
BBX 26 51 1 0
BITMAP
003C0000
007E0000
00FF0000
00FF0000
00FF0000
00FF0000
007F0000
003C0000
00000000
00000000
00000000
00000000
0FFFF000
0FFFF000
0FFFF000
0FFFF000
0FFFF000
0F800000
0F800000
0F800000
0F800000
0F800000
0F800000
0F800000
0F800000
0F800000
0F800000
0F800000
0F800000
FFFFFC00
FFFFFC00
FFFFFC00
FFFFFC00
FFFFFC00
0F800000
0F800000
0F800000
0F800000
0F800000
0F800000
0F800000
0F800000
0F800000
0F800000
0F800000
0F800000
0FFFFFC0
0FFFFFC0
0FFFFFC0
0FFFFFC0
0FFFFFC0
ENDCHAR
STARTCHAR 0117
ENCODING 279
SWIDTH 486 0
DWIDTH 27 0
BBX 26 51 1 0
BITMAP
003C0000
007E0000
00FF0000
00FF0000
00FF0000
00FF0000
007F0000
003C0000
00000000
00000000
00000000
00000000
0FFFF000
0FFFF000
0FFFF000
0FFFF000
0FFFF000
0F800000
0F800000
0F800000
0F800000
0F800000
0F800000
0F800000
0F800000
0F800000
0F800000
0F800000
0F800000
FFFFFC00
FFFFFC00
FFFFFC00
FFFFFC00
FFFFFC00
0F800000
0F800000
0F800000
0F800000
0F800000
0F800000
0F800000
0F800000
0F800000
0F800000
0F800000
0F800000
0FFFFFC0
0FFFFFC0
0FFFFFC0
0FFFFFC0
0FFFFFC0
ENDCHAR
STARTCHAR 0118
ENCODING 280
SWIDTH 486 0
DWIDTH 27 0
BBX 28 49 1 -10
BITMAP
0FFFF000
0FFFF000
0FFFF000
0FFFF000
0FFFF000
0F800000
0F800000
0F800000
0F800000
0F800000
0F800000
0F800000
0F800000
0F800000
0F800000
0F800000
0F800000
FFFFFC00
FFFFFC00
FFFFFC00
FFFFFC00
FFFFFC00
0F800000
0F800000
0F800000
0F800000
0F800000
0F800000
0F800000
0F800000
0F800000
0F800000
0F800000
0F800000
0FFFFFC0
0FFFFFC0
0FFFFFC0
0FFFFFC0
0FFFFFC0
00000F80
00001E00
00003C00
00003800
00003800
00003800
00003820
00003EF0
00001FF0
00000FC0
ENDCHAR
STARTCHAR 0119
ENCODING 281
SWIDTH 486 0
DWIDTH 27 0
BBX 28 49 1 -10
BITMAP
0FFFF000
0FFFF000
0FFFF000
0FFFF000
0FFFF000
0F800000
0F800000
0F800000
0F800000
0F800000
0F800000
0F800000
0F800000
0F800000
0F800000
0F800000
0F800000
FFFFFC00
FFFFFC00
FFFFFC00
FFFFFC00
FFFFFC00
0F800000
0F800000
0F800000
0F800000
0F800000
0F800000
0F800000
0F800000
0F800000
0F800000
0F800000
0F800000
0FFFFFC0
0FFFFFC0
0FFFFFC0
0FFFFFC0
0FFFFFC0
00000F80
00001E00
00003C00
00003800
00003800
00003800
00003820
00003EF0
00001FF0
00000FC0
ENDCHAR
STARTCHAR 011A
ENCODING 282
SWIDTH 486 0
DWIDTH 27 0
BBX 26 50 1 0
BITMAP
0F80F000
0781E000
03C3C000
03E7C000
01FF8000
00FF0000
007E0000
00000000
00000000
00000000
00000000
0FFFF000
0FFFF000
0FFFF000
0FFFF000
0FFFF000
0F800000
0F800000
0F800000
0F800000
0F800000
0F800000
0F800000
0F800000
0F800000
0F800000
0F800000
0F800000
FFFFFC00
FFFFFC00
FFFFFC00
FFFFFC00
FFFFFC00
0F800000
0F800000
0F800000
0F800000
0F800000
0F800000
0F800000
0F800000
0F800000
0F800000
0F800000
0F800000
0FFFFFC0
0FFFFFC0
0FFFFFC0
0FFFFFC0
0FFFFFC0
ENDCHAR
STARTCHAR 011B
ENCODING 283
SWIDTH 486 0
DWIDTH 27 0
BBX 26 50 1 0
BITMAP
0F80F000
0781E000
03C3C000
03E7C000
01FF8000
00FF0000
007E0000
00000000
00000000
00000000
00000000
0FFFF000
0FFFF000
0FFFF000
0FFFF000
0FFFF000
0F800000
0F800000
0F800000
0F800000
0F800000
0F800000
0F800000
0F800000
0F800000
0F800000
0F800000
0F800000
FFFFFC00
FFFFFC00
FFFFFC00
FFFFFC00
FFFFFC00
0F800000
0F800000
0F800000
0F800000
0F800000
0F800000
0F800000
0F800000
0F800000
0F800000
0F800000
0F800000
0FFFFFC0
0FFFFFC0
0FFFFFC0
0FFFFFC0
0FFFFFC0
ENDCHAR
STARTCHAR 011E
ENCODING 286
SWIDTH 828 0
DWIDTH 46 0
BBX 44 51 2 -1
BITMAP
000700F00000
000700F00000
000780F00000
000781E00000
0003E7E00000
0001FFC00000
0000FF800000
00003C000000
000000000000
000000000000
00003E000000
0007FFF00000
001FFFFC0000
007FFFFF0000
00FFFFFF8000
03FF80FFC000
07FC001FE000
0FF0000FE000
0FE00003C000
1FC000018000
3F8000000000
3F0000000000
7E0000000000
7E0000000000
7C0000000000
FC0000000000
FC0000000000
F80000000000
F8001FFFFFF0
F8001FFFFFF0
F8001FFFFFF0
F8001FFFFFF0
F8001FFFFFF0
F80000001F00
FC0000001F00
FC0000003F00
7C0000003F00
7E0000003E00
7E0000007E00
3F0000007E00
3F800000FC00
1FC00001FC00
0FE00003F800
0FF00007F000
07FC001FE000
03FF80FFC000
00FFFFFF8000
007FFFFF0000
001FFFFC0000
0007FFF00000
00007F800000
ENDCHAR
STARTCHAR 011F
ENCODING 287
SWIDTH 828 0
DWIDTH 46 0
BBX 44 51 2 -1
BITMAP
000700F00000
000700F00000
000780F00000
000781E00000
0003E7E00000
0001FFC00000
0000FF800000
00003C000000
000000000000
000000000000
00003E000000
0007FFF00000
001FFFFC0000
007FFFFF0000
00FFFFFF8000
03FF80FFC000
07FC001FE000
0FF0000FE000
0FE00003C000
1FC000018000
3F8000000000
3F0000000000
7E0000000000
7E0000000000
7C0000000000
FC0000000000
FC0000000000
F80000000000
F8001FFFFFF0
F8001FFFFFF0
F8001FFFFFF0
F8001FFFFFF0
F8001FFFFFF0
F80000001F00
FC0000001F00
FC0000003F00
7C0000003F00
7E0000003E00
7E0000007E00
3F0000007E00
3F800000FC00
1FC00001FC00
0FE00003F800
0FF00007F000
07FC001FE000
03FF80FFC000
00FFFFFF8000
007FFFFF0000
001FFFFC0000
0007FFF00000
00007F800000
ENDCHAR
STARTCHAR 0120
ENCODING 288
SWIDTH 828 0
DWIDTH 46 0
BBX 44 52 2 -1
BITMAP
00001C000000
00007F000000
00007F000000
0000FF800000
0000FF800000
00007F000000
00007F000000
00003E000000
000000000000
000000000000
000000000000
00003E000000
0007FFF00000
001FFFFC0000
007FFFFF0000
00FFFFFF8000
03FF80FFC000
07FC001FE000
0FF0000FE000
0FE00003C000
1FC000018000
3F8000000000
3F0000000000
7E0000000000
7E0000000000
7C0000000000
FC0000000000
FC0000000000
F80000000000
F8001FFFFFF0
F8001FFFFFF0
F8001FFFFFF0
F8001FFFFFF0
F8001FFFFFF0
F80000001F00
FC0000001F00
FC0000003F00
7C0000003F00
7E0000003E00
7E0000007E00
3F0000007E00
3F800000FC00
1FC00001FC00
0FE00003F800
0FF00007F000
07FC001FE000
03FF80FFC000
00FFFFFF8000
007FFFFF0000
001FFFFC0000
0007FFF00000
00007F800000
ENDCHAR
STARTCHAR 0121
ENCODING 289
SWIDTH 828 0
DWIDTH 46 0
BBX 44 52 2 -1
BITMAP
00001C000000
00007F000000
00007F000000
0000FF800000
0000FF800000
00007F000000
00007F000000
00003E000000
000000000000
000000000000
000000000000
00003E000000
0007FFF00000
001FFFFC0000
007FFFFF0000
00FFFFFF8000
03FF80FFC000
07FC001FE000
0FF0000FE000
0FE00003C000
1FC000018000
3F8000000000
3F0000000000
7E0000000000
7E0000000000
7C0000000000
FC0000000000
FC0000000000
F80000000000
F8001FFFFFF0
F8001FFFFFF0
F8001FFFFFF0
F8001FFFFFF0
F8001FFFFFF0
F80000001F00
FC0000001F00
FC0000003F00
7C0000003F00
7E0000003E00
7E0000007E00
3F0000007E00
3F800000FC00
1FC00001FC00
0FE00003F800
0FF00007F000
07FC001FE000
03FF80FFC000
00FFFFFF8000
007FFFFF0000
001FFFFC0000
0007FFF00000
00007F800000
ENDCHAR
STARTCHAR 0124
ENCODING 292
SWIDTH 558 0
DWIDTH 31 0
BBX 27 50 1 0
BITMAP
0007E000
000FE000
001FF000
003EF800
003C7C00
00783C00
00F81E00
01F01F00
00000000
00000000
00000000
0F8003E0
0F8003E0
0F8003E0
0F8003E0
0F8003E0
0F8003E0
0F8003E0
0F8003E0
0F8003E0
0F8003E0
0F8003E0
0F8003E0
0F8003E0
0F8003E0
0F8003E0
0F8003E0
FFFFFFE0
FFFFFFE0
FFFFFFE0
FFFFFFE0
FFFFFFE0
0F8003E0
0F8003E0
0F8003E0
0F8003E0
0F8003E0
0F8003E0
0F8003E0
0F8003E0
0F8003E0
0F8003E0
0F8003E0
0F8003E0
0F8003E0
0F8003E0
0F8003E0
0F8003E0
0F8003E0
0F8003E0
ENDCHAR
STARTCHAR 0125
ENCODING 293
SWIDTH 558 0
DWIDTH 31 0
BBX 27 50 1 0
BITMAP
0007E000
000FE000
001FF000
003EF800
003C7C00
00783C00
00F81E00
01F01F00
00000000
00000000
00000000
0F8003E0
0F8003E0
0F8003E0
0F8003E0
0F8003E0
0F8003E0
0F8003E0
0F8003E0
0F8003E0
0F8003E0
0F8003E0
0F8003E0
0F8003E0
0F8003E0
0F8003E0
0F8003E0
FFFFFFE0
FFFFFFE0
FFFFFFE0
FFFFFFE0
FFFFFFE0
0F8003E0
0F8003E0
0F8003E0
0F8003E0
0F8003E0
0F8003E0
0F8003E0
0F8003E0
0F8003E0
0F8003E0
0F8003E0
0F8003E0
0F8003E0
0F8003E0
0F8003E0
0F8003E0
0F8003E0
0F8003E0
ENDCHAR
STARTCHAR 0128
ENCODING 296
SWIDTH 198 0
DWIDTH 11 0
BBX 13 34 -2 0
BITMAP
7E00
FFF8
FFF8
C7F8
0060
0000
0000
0000
0000
0000
07C0
07C0
07C0
07C0
07C0
07C0
07C0
07C0
07C0
07C0
07C0
07C0
07C0
07C0
07C0
07C0
07C0
07C0
07C0
07C0
07C0
07C0
07C0
07C0
ENDCHAR
STARTCHAR 0129
ENCODING 297
SWIDTH 198 0
DWIDTH 11 0
BBX 13 34 -2 0
BITMAP
7E00
FFF8
FFF8
C7F8
0060
0000
0000
0000
0000
0000
07C0
07C0
07C0
07C0
07C0
07C0
07C0
07C0
07C0
07C0
07C0
07C0
07C0
07C0
07C0
07C0
07C0
07C0
07C0
07C0
07C0
07C0
07C0
07C0
ENDCHAR
STARTCHAR 012A
ENCODING 298
SWIDTH 198 0
DWIDTH 11 0
BBX 15 33 -2 0
BITMAP
FFFE
FFFE
FFFE
FFFE
0000
0000
0000
0000
0000
07C0
07C0
07C0
07C0
07C0
07C0
07C0
07C0
07C0
07C0
07C0
07C0
07C0
07C0
07C0
07C0
07C0
07C0
07C0
07C0
07C0
07C0
07C0
07C0
ENDCHAR
STARTCHAR 012B
ENCODING 299
SWIDTH 198 0
DWIDTH 11 0
BBX 15 33 -2 0
BITMAP
FFFE
FFFE
FFFE
FFFE
0000
0000
0000
0000
0000
07C0
07C0
07C0
07C0
07C0
07C0
07C0
07C0
07C0
07C0
07C0
07C0
07C0
07C0
07C0
07C0
07C0
07C0
07C0
07C0
07C0
07C0
07C0
07C0
ENDCHAR
STARTCHAR 012E
ENCODING 302
SWIDTH 180 0
DWIDTH 10 0
BBX 14 54 -2 -10
BITMAP
0100
0100
0300
0380
0380
FFFC
3FF8
1FE0
0FC0
0FE0
0FE0
1C60
1820
0010
0000
0000
0000
0000
0000
0000
07C0
07C0
07C0
07C0
07C0
07C0
07C0
07C0
07C0
07C0
07C0
07C0
07C0
07C0
07C0
07C0
07C0
07C0
07C0
07C0
07C0
07C0
07C0
07C0
0F00
1C00
3800
3800
7000
7000
7860
3DF0
3FE0
0FC0
ENDCHAR
STARTCHAR 012F
ENCODING 303
SWIDTH 180 0
DWIDTH 10 0
BBX 14 54 -2 -10
BITMAP
0100
0100
0300
0380
0380
FFFC
3FF8
1FE0
0FC0
0FE0
0FE0
1C60
1820
0010
0000
0000
0000
0000
0000
0000
07C0
07C0
07C0
07C0
07C0
07C0
07C0
07C0
07C0
07C0
07C0
07C0
07C0
07C0
07C0
07C0
07C0
07C0
07C0
07C0
07C0
07C0
07C0
07C0
0F00
1C00
3800
3800
7000
7000
7860
3DF0
3FE0
0FC0
ENDCHAR
STARTCHAR 0130
ENCODING 304
SWIDTH 198 0
DWIDTH 11 0
BBX 8 36 2 0
BITMAP
3C
7E
FF
FF
FF
FF
7E
3C
00
00
00
00
7C
7C
7C
7C
7C
7C
7C
7C
7C
7C
7C
7C
7C
7C
7C
7C
7C
7C
7C
7C
7C
7C
7C
7C
ENDCHAR
STARTCHAR 0139
ENCODING 313
SWIDTH 432 0
DWIDTH 24 0
BBX 20 49 3 0
BITMAP
0F0000
1E0000
3C0000
3C0000
780000
700000
E00000
000000
000000
000000
F80000
F80000
F80000
F80000
F80000
F80000
F80000
F80000
F80000
F80000
F80000
F80000
F80000
F80000
F80000
F80000
F80000
F80000
F80000
F80000
F80000
F80000
F80000
F80000
F80000
F80000
F80000
F80000
F80000
F80000
F80000
F80000
F80000
F80000
FFFFF0
FFFFF0
FFFFF0
FFFFF0
FFFFF0
ENDCHAR
STARTCHAR 013A
ENCODING 314
SWIDTH 432 0
DWIDTH 24 0
BBX 20 49 3 0
BITMAP
0F0000
1E0000
3C0000
3C0000
780000
700000
E00000
000000
000000
000000
F80000
F80000
F80000
F80000
F80000
F80000
F80000
F80000
F80000
F80000
F80000
F80000
F80000
F80000
F80000
F80000
F80000
F80000
F80000
F80000
F80000
F80000
F80000
F80000
F80000
F80000
F80000
F80000
F80000
F80000
F80000
F80000
F80000
F80000
FFFFF0
FFFFF0
FFFFF0
FFFFF0
FFFFF0
ENDCHAR
STARTCHAR 013D
ENCODING 317
SWIDTH 432 0
DWIDTH 24 0
BBX 25 50 -2 0
BITMAP
F01F0000
F83E0000
7C7C0000
3E780000
1EF00000
0FF00000
0FE00000
00000000
00000000
00000000
00000000
07C00000
07C00000
07C00000
07C00000
07C00000
07C00000
07C00000
07C00000
07C00000
07C00000
07C00000
07C00000
07C00000
07C00000
07C00000
07C00000
07C00000
07C00000
07C00000
07C00000
07C00000
07C00000
07C00000
07C00000
07C00000
07C00000
07C00000
07C00000
07C00000
07C00000
07C00000
07C00000
07C00000
07C00000
07FFFF80
07FFFF80
07FFFF80
07FFFF80
07FFFF80
ENDCHAR
STARTCHAR 013E
ENCODING 318
SWIDTH 432 0
DWIDTH 24 0
BBX 25 50 -2 0
BITMAP
F01F0000
F83E0000
7C7C0000
3E780000
1EF00000
0FF00000
0FE00000
00000000
00000000
00000000
00000000
07C00000
07C00000
07C00000
07C00000
07C00000
07C00000
07C00000
07C00000
07C00000
07C00000
07C00000
07C00000
07C00000
07C00000
07C00000
07C00000
07C00000
07C00000
07C00000
07C00000
07C00000
07C00000
07C00000
07C00000
07C00000
07C00000
07C00000
07C00000
07C00000
07C00000
07C00000
07C00000
07C00000
07C00000
07FFFF80
07FFFF80
07FFFF80
07FFFF80
07FFFF80
ENDCHAR
STARTCHAR 0141
ENCODING 321
SWIDTH 486 0
DWIDTH 27 0
BBX 25 39 1 0
BITMAP
07C00000
07C00000
07C00000
07C00000
07C00000
07C00000
07C00000
07C00000
07C00000
07C00000
07C00000
07C00000
07C00000
07C10000
07C78000
07DF8000
07FF8000
07FE0000
07F80000
0FE00000
3FC00000
FFC00000
FFC00000
F7C00000
47C00000
07C00000
07C00000
07C00000
07C00000
07C00000
07C00000
07C00000
07C00000
07C00000
07FFFF80
07FFFF80
07FFFF80
07FFFF80
07FFFF80
ENDCHAR
STARTCHAR 0142
ENCODING 322
SWIDTH 486 0
DWIDTH 27 0
BBX 25 39 1 0
BITMAP
07C00000
07C00000
07C00000
07C00000
07C00000
07C00000
07C00000
07C00000
07C00000
07C00000
07C00000
07C00000
07C00000
07C10000
07C78000
07DF8000
07FF8000
07FE0000
07F80000
0FE00000
3FC00000
FFC00000
FFC00000
F7C00000
47C00000
07C00000
07C00000
07C00000
07C00000
07C00000
07C00000
07C00000
07C00000
07C00000
07FFFF80
07FFFF80
07FFFF80
07FFFF80
07FFFF80
ENDCHAR
STARTCHAR 0143
ENCODING 323
SWIDTH 522 0
DWIDTH 29 0
BBX 25 49 1 0
BITMAP
0001E000
0003C000
00078000
00078000
000F0000
000E0000
001C0000
00000000
00000000
30000000
38000F80
7C000F80
FE000F80
FF800F80
3FC00F80
3FE00F80
3FF80F80
3FFC0F80
3FFE0F80
3EFF0F80
3E7FCF80
3E1FEF80
3E0FFF80
3E07FF80
3E03FF80
3E00FF80
3E007F80
3E003F80
3E000F80
3E000F80
3E000F80
3E000F80
3E000F80
3E000F80
3E000F80
3E000F80
3E000F80
3E000F80
3E000F80
3E000F80
3E000F80
3E000F80
3E000F80
3E000F80
3E000F80
3E000F80
3E000F80
3E000F80
3E000F80
ENDCHAR
STARTCHAR 0144
ENCODING 324
SWIDTH 522 0
DWIDTH 29 0
BBX 25 49 1 0
BITMAP
0001E000
0003C000
00078000
00078000
000F0000
000E0000
001C0000
00000000
00000000
30000000
38000F80
7C000F80
FE000F80
FF800F80
3FC00F80
3FE00F80
3FF80F80
3FFC0F80
3FFE0F80
3EFF0F80
3E7FCF80
3E1FEF80
3E0FFF80
3E07FF80
3E03FF80
3E00FF80
3E007F80
3E003F80
3E000F80
3E000F80
3E000F80
3E000F80
3E000F80
3E000F80
3E000F80
3E000F80
3E000F80
3E000F80
3E000F80
3E000F80
3E000F80
3E000F80
3E000F80
3E000F80
3E000F80
3E000F80
3E000F80
3E000F80
3E000F80
ENDCHAR
STARTCHAR 0147
ENCODING 327
SWIDTH 522 0
DWIDTH 29 0
BBX 25 50 1 0
BITMAP
03C07C00
03E0F800
01F1F000
00F9E000
007BC000
007FC000
003F8000
00000000
00000000
00000000
30000000
38000F80
7C000F80
FE000F80
FF800F80
3FC00F80
3FE00F80
3FF80F80
3FFC0F80
3FFE0F80
3EFF0F80
3E7FCF80
3E1FEF80
3E0FFF80
3E07FF80
3E03FF80
3E00FF80
3E007F80
3E003F80
3E000F80
3E000F80
3E000F80
3E000F80
3E000F80
3E000F80
3E000F80
3E000F80
3E000F80
3E000F80
3E000F80
3E000F80
3E000F80
3E000F80
3E000F80
3E000F80
3E000F80
3E000F80
3E000F80
3E000F80
3E000F80
ENDCHAR
STARTCHAR 0148
ENCODING 328
SWIDTH 522 0
DWIDTH 29 0
BBX 25 50 1 0
BITMAP
03C07C00
03E0F800
01F1F000
00F9E000
007BC000
007FC000
003F8000
00000000
00000000
00000000
30000000
38000F80
7C000F80
FE000F80
FF800F80
3FC00F80
3FE00F80
3FF80F80
3FFC0F80
3FFE0F80
3EFF0F80
3E7FCF80
3E1FEF80
3E0FFF80
3E07FF80
3E03FF80
3E00FF80
3E007F80
3E003F80
3E000F80
3E000F80
3E000F80
3E000F80
3E000F80
3E000F80
3E000F80
3E000F80
3E000F80
3E000F80
3E000F80
3E000F80
3E000F80
3E000F80
3E000F80
3E000F80
3E000F80
3E000F80
3E000F80
3E000F80
3E000F80
ENDCHAR
STARTCHAR 014C
ENCODING 332
SWIDTH 810 0
DWIDTH 45 0
BBX 42 49 2 -1
BITMAP
0007FFF80000
0007FFF80000
0007FFF80000
0007FFF80000
000000000000
000000000000
000000000000
000000000000
00003E000000
0007FFF00000
001FFFFC0000
007FFFFF0000
00FFFFFFC000
03FF80FFE000
07FC001FF000
0FF00007F800
0FE00001FC00
1FC00000FC00
3F8000007E00
3F0000007E00
7E0000003F00
7E0000001F00
7C0000001F80
FC0000001F80
FC0000000F80
F80000000F80
F80000000F80
F80000000F80
F80000000FC0
F80000000F80
F80000000F80
F80000000F80
FC0000000F80
FC0000001F80
7C0000001F80
7E0000001F00
7E0000003F00
3F0000007E00
3F8000007E00
1FC00000FC00
0FE00001FC00
0FF00007F800
07FC001FF000
03FF80FFE000
00FFFFFFC000
007FFFFF0000
001FFFFE0000
0007FFF00000
00007F000000
ENDCHAR
STARTCHAR 014D
ENCODING 333
SWIDTH 810 0
DWIDTH 45 0
BBX 42 49 2 -1
BITMAP
0007FFF80000
0007FFF80000
0007FFF80000
0007FFF80000
000000000000
000000000000
000000000000
000000000000
00003E000000
0007FFF00000
001FFFFC0000
007FFFFF0000
00FFFFFFC000
03FF80FFE000
07FC001FF000
0FF00007F800
0FE00001FC00
1FC00000FC00
3F8000007E00
3F0000007E00
7E0000003F00
7E0000001F00
7C0000001F80
FC0000001F80
FC0000000F80
F80000000F80
F80000000F80
F80000000F80
F80000000FC0
F80000000F80
F80000000F80
F80000000F80
FC0000000F80
FC0000001F80
7C0000001F80
7E0000001F00
7E0000003F00
3F0000007E00
3F8000007E00
1FC00000FC00
0FE00001FC00
0FF00007F800
07FC001FF000
03FF80FFE000
00FFFFFFC000
007FFFFF0000
001FFFFE0000
0007FFF00000
00007F000000
ENDCHAR
STARTCHAR 0150
ENCODING 336
SWIDTH 810 0
DWIDTH 45 0
BBX 42 50 2 -1
BITMAP
00007C1E0000
0000783C0000
0000F0780000
0001E0780000
0001E0F00000
0003C0E00000
000381C00000
000000000000
000000000000
00003E000000
0007FFF00000
001FFFFC0000
007FFFFF0000
00FFFFFFC000
03FF80FFE000
07FC001FF000
0FF00007F800
0FE00001FC00
1FC00000FC00
3F8000007E00
3F0000007E00
7E0000003F00
7E0000001F00
7C0000001F80
FC0000001F80
FC0000000F80
F80000000F80
F80000000F80
F80000000F80
F80000000FC0
F80000000F80
F80000000F80
F80000000F80
FC0000000F80
FC0000001F80
7C0000001F80
7E0000001F00
7E0000003F00
3F0000007E00
3F8000007E00
1FC00000FC00
0FE00001FC00
0FF00007F800
07FC001FF000
03FF80FFE000
00FFFFFFC000
007FFFFF0000
001FFFFE0000
0007FFF00000
00007F000000
ENDCHAR
STARTCHAR 0151
ENCODING 337
SWIDTH 810 0
DWIDTH 45 0
BBX 42 50 2 -1
BITMAP
00007C1E0000
0000783C0000
0000F0780000
0001E0780000
0001E0F00000
0003C0E00000
000381C00000
000000000000
000000000000
00003E000000
0007FFF00000
001FFFFC0000
007FFFFF0000
00FFFFFFC000
03FF80FFE000
07FC001FF000
0FF00007F800
0FE00001FC00
1FC00000FC00
3F8000007E00
3F0000007E00
7E0000003F00
7E0000001F00
7C0000001F80
FC0000001F80
FC0000000F80
F80000000F80
F80000000F80
F80000000F80
F80000000FC0
F80000000F80
F80000000F80
F80000000F80
FC0000000F80
FC0000001F80
7C0000001F80
7E0000001F00
7E0000003F00
3F0000007E00
3F8000007E00
1FC00000FC00
0FE00001FC00
0FF00007F800
07FC001FF000
03FF80FFE000
00FFFFFFC000
007FFFFF0000
001FFFFE0000
0007FFF00000
00007F000000
ENDCHAR
STARTCHAR 0154
ENCODING 340
SWIDTH 576 0
DWIDTH 32 0
BBX 30 49 1 0
BITMAP
0000F000
0001E000
0001E000
0003C000
00038000
00070000
000F0000
00000000
00000000
00000000
0FFFF000
0FFFFE00
0FFFFF80
0FFFFFC0
0FFFFFE0
0F801FF0
0F8003F8
0F8001F8
0F8000F8
0F8000FC
0F8000FC
0F80007C
0F8000FC
0F8000FC
0F8000F8
0F8001F8
0F8001F8
0F8007F0
0F803FF0
FFFFFFE0
FFFFFFC0
FFFFFF00
FFFFFF00
FFFFFF80
0F801FC0
0F800FC0
0F8007E0
0F8003E0
0F8003E0
0F8003F0
0F8003F0
0F8001F0
0F8001F0
0F8001F0
0F8001F0
0F8001F0
0F8001F0
0F8001F0
0F8001F0
ENDCHAR
STARTCHAR 0155
ENCODING 341
SWIDTH 576 0
DWIDTH 32 0
BBX 30 49 1 0
BITMAP
0000F000
0001E000
0001E000
0003C000
00038000
00070000
000F0000
00000000
00000000
00000000
0FFFF000
0FFFFE00
0FFFFF80
0FFFFFC0
0FFFFFE0
0F801FF0
0F8003F8
0F8001F8
0F8000F8
0F8000FC
0F8000FC
0F80007C
0F8000FC
0F8000FC
0F8000F8
0F8001F8
0F8001F8
0F8007F0
0F803FF0
FFFFFFE0
FFFFFFC0
FFFFFF00
FFFFFF00
FFFFFF80
0F801FC0
0F800FC0
0F8007E0
0F8003E0
0F8003E0
0F8003F0
0F8003F0
0F8001F0
0F8001F0
0F8001F0
0F8001F0
0F8001F0
0F8001F0
0F8001F0
0F8001F0
ENDCHAR
STARTCHAR 0158
ENCODING 344
SWIDTH 576 0
DWIDTH 32 0
BBX 30 50 1 0
BITMAP
01F01E00
00F03C00
00787800
007CF800
003FF000
001FE000
000FC000
00000000
00000000
00000000
00000000
0FFFF000
0FFFFE00
0FFFFF80
0FFFFFC0
0FFFFFE0
0F801FF0
0F8003F8
0F8001F8
0F8000F8
0F8000FC
0F8000FC
0F80007C
0F8000FC
0F8000FC
0F8000F8
0F8001F8
0F8001F8
0F8007F0
0F803FF0
FFFFFFE0
FFFFFFC0
FFFFFF00
FFFFFF00
FFFFFF80
0F801FC0
0F800FC0
0F8007E0
0F8003E0
0F8003E0
0F8003F0
0F8003F0
0F8001F0
0F8001F0
0F8001F0
0F8001F0
0F8001F0
0F8001F0
0F8001F0
0F8001F0
ENDCHAR
STARTCHAR 0159
ENCODING 345
SWIDTH 576 0
DWIDTH 32 0
BBX 30 50 1 0
BITMAP
01F01E00
00F03C00
00787800
007CF800
003FF000
001FE000
000FC000
00000000
00000000
00000000
00000000
0FFFF000
0FFFFE00
0FFFFF80
0FFFFFC0
0FFFFFE0
0F801FF0
0F8003F8
0F8001F8
0F8000F8
0F8000FC
0F8000FC
0F80007C
0F8000FC
0F8000FC
0F8000F8
0F8001F8
0F8001F8
0F8007F0
0F803FF0
FFFFFFE0
FFFFFFC0
FFFFFF00
FFFFFF00
FFFFFF80
0F801FC0
0F800FC0
0F8007E0
0F8003E0
0F8003E0
0F8003F0
0F8003F0
0F8001F0
0F8001F0
0F8001F0
0F8001F0
0F8001F0
0F8001F0
0F8001F0
0F8001F0
ENDCHAR
STARTCHAR 015A
ENCODING 346
SWIDTH 486 0
DWIDTH 27 0
BBX 24 50 2 -1
BITMAP
000780
000F00
001E00
001E00
003C00
003800
007000
000000
000000
007C00
03FF80
07FFE0
0FFFF0
1FFFF8
3FC3F8
3F00FC
3E007C
7E007E
7E003E
7E0038
7E0000
3E0000
3F0000
1F8000
1FE000
0FF000
07FC00
03FF00
00FF80
007FE0
001FF0
0007F8
0003FC
0001FC
00007E
00007E
00003F
00003F
18001F
F8001F
F8003F
FC003F
7E007E
7F00FE
3FC3FC
3FFFFC
1FFFF8
0FFFF0
03FFC0
007E00
ENDCHAR
STARTCHAR 015B
ENCODING 347
SWIDTH 486 0
DWIDTH 27 0
BBX 24 50 2 -1
BITMAP
000780
000F00
001E00
001E00
003C00
003800
007000
000000
000000
007C00
03FF80
07FFE0
0FFFF0
1FFFF8
3FC3F8
3F00FC
3E007C
7E007E
7E003E
7E0038
7E0000
3E0000
3F0000
1F8000
1FE000
0FF000
07FC00
03FF00
00FF80
007FE0
001FF0
0007F8
0003FC
0001FC
00007E
00007E
00003F
00003F
18001F
F8001F
F8003F
FC003F
7E007E
7F00FE
3FC3FC
3FFFFC
1FFFF8
0FFFF0
03FFC0
007E00
ENDCHAR
STARTCHAR 015E
ENCODING 350
SWIDTH 486 0
DWIDTH 27 0
BBX 24 52 2 -12
BITMAP
007C00
03FF80
07FFE0
0FFFF0
1FFFF8
3FC3F8
3F00FC
3E007C
7E007E
7E003E
7E0038
7E0000
3E0000
3F0000
1F8000
1FE000
0FF000
07FC00
03FF00
00FF80
007FE0
001FF0
0007F8
0003FC
0001FC
00007E
00007E
00003F
00003F
18001F
F8001F
F8003F
FC003F
7E007E
7F00FE
3FC3FC
3FFFFC
1FFFF8
0FFFF0
03FFC0
007F00
003800
003C00
003E00
000700
000380
000380
030380
078780
03FF00
01FE00
007C00
ENDCHAR
STARTCHAR 015F
ENCODING 351
SWIDTH 486 0
DWIDTH 27 0
BBX 24 52 2 -12
BITMAP
007C00
03FF80
07FFE0
0FFFF0
1FFFF8
3FC3F8
3F00FC
3E007C
7E007E
7E003E
7E0038
7E0000
3E0000
3F0000
1F8000
1FE000
0FF000
07FC00
03FF00
00FF80
007FE0
001FF0
0007F8
0003FC
0001FC
00007E
00007E
00003F
00003F
18001F
F8001F
F8003F
FC003F
7E007E
7F00FE
3FC3FC
3FFFFC
1FFFF8
0FFFF0
03FFC0
007F00
003800
003C00
003E00
000700
000380
000380
030380
078780
03FF00
01FE00
007C00
ENDCHAR
STARTCHAR 0160
ENCODING 352
SWIDTH 486 0
DWIDTH 27 0
BBX 24 51 2 -1
BITMAP
0F01F0
0F83E0
07C7C0
03E780
01EF00
00FF00
00FE00
000000
000000
000000
007C00
03FF80
07FFE0
0FFFF0
1FFFF8
3FC3F8
3F00FC
3E007C
7E007E
7E003E
7E0038
7E0000
3E0000
3F0000
1F8000
1FE000
0FF000
07FC00
03FF00
00FF80
007FE0
001FF0
0007F8
0003FC
0001FC
00007E
00007E
00003F
00003F
18001F
F8001F
F8003F
FC003F
7E007E
7F00FE
3FC3FC
3FFFFC
1FFFF8
0FFFF0
03FFC0
007E00
ENDCHAR
STARTCHAR 0161
ENCODING 353
SWIDTH 486 0
DWIDTH 27 0
BBX 24 51 2 -1
BITMAP
0F01F0
0F83E0
07C7C0
03E780
01EF00
00FF00
00FE00
000000
000000
000000
007C00
03FF80
07FFE0
0FFFF0
1FFFF8
3FC3F8
3F00FC
3E007C
7E007E
7E003E
7E0038
7E0000
3E0000
3F0000
1F8000
1FE000
0FF000
07FC00
03FF00
00FF80
007FE0
001FF0
0007F8
0003FC
0001FC
00007E
00007E
00003F
00003F
18001F
F8001F
F8003F
FC003F
7E007E
7F00FE
3FC3FC
3FFFFC
1FFFF8
0FFFF0
03FFC0
007E00
ENDCHAR
STARTCHAR 0162
ENCODING 354
SWIDTH 486 0
DWIDTH 27 0
BBX 26 51 1 -12
BITMAP
FFFFFFC0
FFFFFFC0
FFFFFFC0
FFFFFFC0
FFFFFFC0
003F0000
003F0000
003F0000
003F0000
003F0000
003F0000
003F0000
003F0000
003F0000
003F0000
003F0000
003F0000
003F0000
003F0000
003F0000
003F0000
003F0000
003F0000
003F0000
003F0000
003F0000
003F0000
003F0000
003F0000
003F0000
003F0000
003F0000
003F0000
003F0000
003F0000
003F0000
003F0000
003F0000
003F0000
001C0000
001C0000
001E0000
001F0000
00038000
00018000
0101C000
03818000
03C38000
03FF8000
00FF0000
007C0000
ENDCHAR
STARTCHAR 0163
ENCODING 355
SWIDTH 486 0
DWIDTH 27 0
BBX 26 51 1 -12
BITMAP
FFFFFFC0
FFFFFFC0
FFFFFFC0
FFFFFFC0
FFFFFFC0
003F0000
003F0000
003F0000
003F0000
003F0000
003F0000
003F0000
003F0000
003F0000
003F0000
003F0000
003F0000
003F0000
003F0000
003F0000
003F0000
003F0000
003F0000
003F0000
003F0000
003F0000
003F0000
003F0000
003F0000
003F0000
003F0000
003F0000
003F0000
003F0000
003F0000
003F0000
003F0000
003F0000
003F0000
001C0000
001C0000
001E0000
001F0000
00038000
00018000
0101C000
03818000
03C38000
03FF8000
00FF0000
007C0000
ENDCHAR
STARTCHAR 0164
ENCODING 356
SWIDTH 486 0
DWIDTH 27 0
BBX 26 50 1 0
BITMAP
07C07800
03C0F000
01E1E000
01F3E000
00FFC000
007F8000
003F0000
00000000
00000000
00000000
00000000
FFFFFFC0
FFFFFFC0
FFFFFFC0
FFFFFFC0
FFFFFFC0
003F0000
003F0000
003F0000
003F0000
003F0000
003F0000
003F0000
003F0000
003F0000
003F0000
003F0000
003F0000
003F0000
003F0000
003F0000
003F0000
003F0000
003F0000
003F0000
003F0000
003F0000
003F0000
003F0000
003F0000
003F0000
003F0000
003F0000
003F0000
003F0000
003F0000
003F0000
003F0000
003F0000
003F0000
ENDCHAR
STARTCHAR 0165
ENCODING 357
SWIDTH 486 0
DWIDTH 27 0
BBX 26 50 1 0
BITMAP
07C07800
03C0F000
01E1E000
01F3E000
00FFC000
007F8000
003F0000
00000000
00000000
00000000
00000000
FFFFFFC0
FFFFFFC0
FFFFFFC0
FFFFFFC0
FFFFFFC0
003F0000
003F0000
003F0000
003F0000
003F0000
003F0000
003F0000
003F0000
003F0000
003F0000
003F0000
003F0000
003F0000
003F0000
003F0000
003F0000
003F0000
003F0000
003F0000
003F0000
003F0000
003F0000
003F0000
003F0000
003F0000
003F0000
003F0000
003F0000
003F0000
003F0000
003F0000
003F0000
003F0000
003F0000
ENDCHAR
STARTCHAR 0168
ENCODING 360
SWIDTH 504 0
DWIDTH 28 0
BBX 24 50 2 -1
BITMAP
07E000
07FFC0
07FFC0
043FC0
000200
000000
000000
000000
000000
000000
FC001F
FC001F
FC001F
FC001F
FC001F
FC001F
FC001F
FC001F
FC001F
FC001F
FC001F
FC001F
FC001F
FC001F
FC001F
FC001F
FC001F
FC001F
FC001F
FC001F
FC001F
FC001F
FC001F
FC001F
FC001F
FC001F
FC001F
FC001F
FC003F
7C003F
7C003E
7E003E
7E007E
3F00FC
3FC3FC
1FFFF8
0FFFF0
07FFE0
01FFC0
007E00
ENDCHAR
STARTCHAR 0169
ENCODING 361
SWIDTH 504 0
DWIDTH 28 0
BBX 24 50 2 -1
BITMAP
07E000
07FFC0
07FFC0
043FC0
000200
000000
000000
000000
000000
000000
FC001F
FC001F
FC001F
FC001F
FC001F
FC001F
FC001F
FC001F
FC001F
FC001F
FC001F
FC001F
FC001F
FC001F
FC001F
FC001F
FC001F
FC001F
FC001F
FC001F
FC001F
FC001F
FC001F
FC001F
FC001F
FC001F
FC001F
FC001F
FC003F
7C003F
7C003E
7E003E
7E007E
3F00FC
3FC3FC
1FFFF8
0FFFF0
07FFE0
01FFC0
007E00
ENDCHAR
STARTCHAR 016A
ENCODING 362
SWIDTH 504 0
DWIDTH 28 0
BBX 24 49 2 -1
BITMAP
0FFFF0
0FFFF0
0FFFF0
0FFFF0
000000
000000
000000
000000
000000
FC001F
FC001F
FC001F
FC001F
FC001F
FC001F
FC001F
FC001F
FC001F
FC001F
FC001F
FC001F
FC001F
FC001F
FC001F
FC001F
FC001F
FC001F
FC001F
FC001F
FC001F
FC001F
FC001F
FC001F
FC001F
FC001F
FC001F
FC001F
FC003F
7C003F
7C003E
7E003E
7E007E
3F00FC
3FC3FC
1FFFF8
0FFFF0
07FFE0
01FFC0
007E00
ENDCHAR
STARTCHAR 016B
ENCODING 363
SWIDTH 504 0
DWIDTH 28 0
BBX 24 49 2 -1
BITMAP
0FFFF0
0FFFF0
0FFFF0
0FFFF0
000000
000000
000000
000000
000000
FC001F
FC001F
FC001F
FC001F
FC001F
FC001F
FC001F
FC001F
FC001F
FC001F
FC001F
FC001F
FC001F
FC001F
FC001F
FC001F
FC001F
FC001F
FC001F
FC001F
FC001F
FC001F
FC001F
FC001F
FC001F
FC001F
FC001F
FC001F
FC003F
7C003F
7C003E
7E003E
7E007E
3F00FC
3FC3FC
1FFFF8
0FFFF0
07FFE0
01FFC0
007E00
ENDCHAR
STARTCHAR 016E
ENCODING 366
SWIDTH 504 0
DWIDTH 28 0
BBX 24 54 2 -1
BITMAP
007E00
00FF00
01F780
01C380
0181C0
0381C0
0181C0
01C380
01FF80
00FF00
003C00
000000
000000
000000
FC001F
FC001F
FC001F
FC001F
FC001F
FC001F
FC001F
FC001F
FC001F
FC001F
FC001F
FC001F
FC001F
FC001F
FC001F
FC001F
FC001F
FC001F
FC001F
FC001F
FC001F
FC001F
FC001F
FC001F
FC001F
FC001F
FC001F
FC001F
FC003F
7C003F
7C003E
7E003E
7E007E
3F00FC
3FC3FC
1FFFF8
0FFFF0
07FFE0
01FFC0
007E00
ENDCHAR
STARTCHAR 016F
ENCODING 367
SWIDTH 504 0
DWIDTH 28 0
BBX 24 54 2 -1
BITMAP
007E00
00FF00
01F780
01C380
0181C0
0381C0
0181C0
01C380
01FF80
00FF00
003C00
000000
000000
000000
FC001F
FC001F
FC001F
FC001F
FC001F
FC001F
FC001F
FC001F
FC001F
FC001F
FC001F
FC001F
FC001F
FC001F
FC001F
FC001F
FC001F
FC001F
FC001F
FC001F
FC001F
FC001F
FC001F
FC001F
FC001F
FC001F
FC001F
FC001F
FC003F
7C003F
7C003E
7E003E
7E007E
3F00FC
3FC3FC
1FFFF8
0FFFF0
07FFE0
01FFC0
007E00
ENDCHAR
STARTCHAR 0170
ENCODING 368
SWIDTH 504 0
DWIDTH 28 0
BBX 24 50 2 -1
BITMAP
00783E
00F07C
00E078
01E0F0
03C0E0
0381E0
0781C0
000000
000000
000000
FC001F
FC001F
FC001F
FC001F
FC001F
FC001F
FC001F
FC001F
FC001F
FC001F
FC001F
FC001F
FC001F
FC001F
FC001F
FC001F
FC001F
FC001F
FC001F
FC001F
FC001F
FC001F
FC001F
FC001F
FC001F
FC001F
FC001F
FC001F
FC003F
7C003F
7C003E
7E003E
7E007E
3F00FC
3FC3FC
1FFFF8
0FFFF0
07FFE0
01FFC0
007E00
ENDCHAR
STARTCHAR 0171
ENCODING 369
SWIDTH 504 0
DWIDTH 28 0
BBX 24 50 2 -1
BITMAP
00783E
00F07C
00E078
01E0F0
03C0E0
0381E0
0781C0
000000
000000
000000
FC001F
FC001F
FC001F
FC001F
FC001F
FC001F
FC001F
FC001F
FC001F
FC001F
FC001F
FC001F
FC001F
FC001F
FC001F
FC001F
FC001F
FC001F
FC001F
FC001F
FC001F
FC001F
FC001F
FC001F
FC001F
FC001F
FC001F
FC001F
FC003F
7C003F
7C003E
7E003E
7E007E
3F00FC
3FC3FC
1FFFF8
0FFFF0
07FFE0
01FFC0
007E00
ENDCHAR
STARTCHAR 0172
ENCODING 370
SWIDTH 504 0
DWIDTH 28 0
BBX 24 49 2 -10
BITMAP
FC001F
FC001F
FC001F
FC001F
FC001F
FC001F
FC001F
FC001F
FC001F
FC001F
FC001F
FC001F
FC001F
FC001F
FC001F
FC001F
FC001F
FC001F
FC001F
FC001F
FC001F
FC001F
FC001F
FC001F
FC001F
FC001F
FC001F
FC001F
FC003F
7C003F
7C003E
7E003E
7E007E
3F00FC
3FC3FC
1FFFF8
0FFFF0
07FFE0
01FFC0
007E00
007000
00E000
00E000
01C000
01C000
01E180
00F3C0
00FFC0
007F00
ENDCHAR
STARTCHAR 0173
ENCODING 371
SWIDTH 504 0
DWIDTH 28 0
BBX 24 49 2 -10
BITMAP
FC001F
FC001F
FC001F
FC001F
FC001F
FC001F
FC001F
FC001F
FC001F
FC001F
FC001F
FC001F
FC001F
FC001F
FC001F
FC001F
FC001F
FC001F
FC001F
FC001F
FC001F
FC001F
FC001F
FC001F
FC001F
FC001F
FC001F
FC001F
FC003F
7C003F
7C003E
7E003E
7E007E
3F00FC
3FC3FC
1FFFF8
0FFFF0
07FFE0
01FFC0
007E00
007000
00E000
00E000
01C000
01C000
01E180
00F3C0
00FFC0
007F00
ENDCHAR
STARTCHAR 0176
ENCODING 374
SWIDTH 486 0
DWIDTH 27 0
BBX 24 50 2 0
BITMAP
007E00
00FF00
00FF00
01EF80
03E7C0
07C3E0
0F81E0
0F00F0
000000
000000
000000
F8003F
F8003F
F8003F
F8003F
F8003F
F8003F
F8003F
F8003F
F8003F
F8003F
F8003F
F8003F
F8003F
F8003F
F8003F
F8003F
F8003F
F8003F
FC003F
FC003E
FC003E
7C007E
7E007E
7F00FC
3F83FC
1FFFF8
0FFFF0
07FFE0
03FFC0
007E00
007E00
007E00
007E00
007E00
007E00
007E00
007E00
007E00
007E00
ENDCHAR
STARTCHAR 0177
ENCODING 375
SWIDTH 486 0
DWIDTH 27 0
BBX 24 50 2 0
BITMAP
007E00
00FF00
00FF00
01EF80
03E7C0
07C3E0
0F81E0
0F00F0
000000
000000
000000
F8003F
F8003F
F8003F
F8003F
F8003F
F8003F
F8003F
F8003F
F8003F
F8003F
F8003F
F8003F
F8003F
F8003F
F8003F
F8003F
F8003F
F8003F
FC003F
FC003E
FC003E
7C007E
7E007E
7F00FC
3F83FC
1FFFF8
0FFFF0
07FFE0
03FFC0
007E00
007E00
007E00
007E00
007E00
007E00
007E00
007E00
007E00
007E00
ENDCHAR
STARTCHAR 0178
ENCODING 376
SWIDTH 486 0
DWIDTH 27 0
BBX 24 50 2 0
BITMAP
060020
1F81F8
3FC1FC
3FC3FC
3FC3FC
3FC3FC
3FC1FC
1F80F8
000000
000000
000000
F8003F
F8003F
F8003F
F8003F
F8003F
F8003F
F8003F
F8003F
F8003F
F8003F
F8003F
F8003F
F8003F
F8003F
F8003F
F8003F
F8003F
F8003F
FC003F
FC003E
FC003E
7C007E
7E007E
7F00FC
3F83FC
1FFFF8
0FFFF0
07FFE0
03FFC0
007E00
007E00
007E00
007E00
007E00
007E00
007E00
007E00
007E00
007E00
ENDCHAR
STARTCHAR 0179
ENCODING 377
SWIDTH 504 0
DWIDTH 28 0
BBX 26 49 1 0
BITMAP
0003E000
0003C000
00078000
000F0000
000F0000
001E0000
001C0000
00000000
00000000
00000000
7FFFFFC0
7FFFFFC0
7FFFFFC0
7FFFFF80
7FFFFF80
00003F00
00003F00
00007E00
00007C00
0000FC00
0001F800
0001F800
0003F000
0003E000
0007E000
000FC000
000FC000
001F8000
001F0000
003F0000
007E0000
007E0000
00FC0000
00F80000
01F80000
03F00000
03F00000
07E00000
07E00000
0FC00000
1F800000
1F800000
3F000000
3F000000
7FFFFF80
FFFFFF80
FFFFFF80
FFFFFF80
FFFFFF80
ENDCHAR
STARTCHAR 017A
ENCODING 378
SWIDTH 504 0
DWIDTH 28 0
BBX 26 49 1 0
BITMAP
0003E000
0003C000
00078000
000F0000
000F0000
001E0000
001C0000
00000000
00000000
00000000
7FFFFFC0
7FFFFFC0
7FFFFFC0
7FFFFF80
7FFFFF80
00003F00
00003F00
00007E00
00007C00
0000FC00
0001F800
0001F800
0003F000
0003E000
0007E000
000FC000
000FC000
001F8000
001F0000
003F0000
007E0000
007E0000
00FC0000
00F80000
01F80000
03F00000
03F00000
07E00000
07E00000
0FC00000
1F800000
1F800000
3F000000
3F000000
7FFFFF80
FFFFFF80
FFFFFF80
FFFFFF80
FFFFFF80
ENDCHAR
STARTCHAR 017B
ENCODING 379
SWIDTH 504 0
DWIDTH 28 0
BBX 26 51 1 0
BITMAP
000E0000
003F8000
003F8000
007FC000
007FC000
003F8000
003F8000
001F0000
00000000
00000000
00000000
00000000
7FFFFFC0
7FFFFFC0
7FFFFFC0
7FFFFF80
7FFFFF80
00003F00
00003F00
00007E00
00007C00
0000FC00
0001F800
0001F800
0003F000
0003E000
0007E000
000FC000
000FC000
001F8000
001F0000
003F0000
007E0000
007E0000
00FC0000
00F80000
01F80000
03F00000
03F00000
07E00000
07E00000
0FC00000
1F800000
1F800000
3F000000
3F000000
7FFFFF80
FFFFFF80
FFFFFF80
FFFFFF80
FFFFFF80
ENDCHAR
STARTCHAR 017C
ENCODING 380
SWIDTH 504 0
DWIDTH 28 0
BBX 26 51 1 0
BITMAP
000E0000
003F8000
003F8000
007FC000
007FC000
003F8000
003F8000
001F0000
00000000
00000000
00000000
00000000
7FFFFFC0
7FFFFFC0
7FFFFFC0
7FFFFF80
7FFFFF80
00003F00
00003F00
00007E00
00007C00
0000FC00
0001F800
0001F800
0003F000
0003E000
0007E000
000FC000
000FC000
001F8000
001F0000
003F0000
007E0000
007E0000
00FC0000
00F80000
01F80000
03F00000
03F00000
07E00000
07E00000
0FC00000
1F800000
1F800000
3F000000
3F000000
7FFFFF80
FFFFFF80
FFFFFF80
FFFFFF80
FFFFFF80
ENDCHAR
STARTCHAR 017D
ENCODING 381
SWIDTH 504 0
DWIDTH 28 0
BBX 26 50 1 0
BITMAP
07C07800
03E0F000
01E1F000
00F3E000
00FFC000
007F8000
003F8000
00000000
00000000
00000000
00000000
7FFFFFC0
7FFFFFC0
7FFFFFC0
7FFFFF80
7FFFFF80
00003F00
00003F00
00007E00
00007C00
0000FC00
0001F800
0001F800
0003F000
0003E000
0007E000
000FC000
000FC000
001F8000
001F0000
003F0000
007E0000
007E0000
00FC0000
00F80000
01F80000
03F00000
03F00000
07E00000
07E00000
0FC00000
1F800000
1F800000
3F000000
3F000000
7FFFFF80
FFFFFF80
FFFFFF80
FFFFFF80
FFFFFF80
ENDCHAR
STARTCHAR 017E
ENCODING 382
SWIDTH 504 0
DWIDTH 28 0
BBX 26 50 1 0
BITMAP
07C07800
03E0F000
01E1F000
00F3E000
00FFC000
007F8000
003F8000
00000000
00000000
00000000
00000000
7FFFFFC0
7FFFFFC0
7FFFFFC0
7FFFFF80
7FFFFF80
00003F00
00003F00
00007E00
00007C00
0000FC00
0001F800
0001F800
0003F000
0003E000
0007E000
000FC000
000FC000
001F8000
001F0000
003F0000
007E0000
007E0000
00FC0000
00F80000
01F80000
03F00000
03F00000
07E00000
07E00000
0FC00000
1F800000
1F800000
3F000000
3F000000
7FFFFF80
FFFFFF80
FFFFFF80
FFFFFF80
FFFFFF80
ENDCHAR
STARTCHAR 01A0
ENCODING 416
SWIDTH 810 0
DWIDTH 45 0
BBX 42 45 2 -1
BITMAP
000000007800
000000007800
000000007800
000000007800
00003E00F000
0007FFF3F000
001FFFFFE000
007FFFFF0000
00FFFFFFC000
03FF80FFE000
07FC001FF000
0FF00007F800
0FE00001FC00
1FC00000FC00
3F8000007E00
3F0000007E00
7E0000003F00
7E0000001F00
7C0000001F80
FC0000001F80
FC0000000F80
F80000000F80
F80000000F80
F80000000F80
F80000000FC0
F80000000F80
F80000000F80
F80000000F80
FC0000000F80
FC0000001F80
7C0000001F80
7E0000001F00
7E0000003F00
3F0000007E00
3F8000007E00
1FC00000FC00
0FE00001FC00
0FF00007F800
07FC001FF000
03FF80FFE000
00FFFFFFC000
007FFFFF0000
001FFFFE0000
0007FFF00000
00007F000000
ENDCHAR
STARTCHAR 01A1
ENCODING 417
SWIDTH 810 0
DWIDTH 45 0
BBX 42 45 2 -1
BITMAP
000000007800
000000007800
000000007800
000000007800
00003E00F000
0007FFF3F000
001FFFFFE000
007FFFFF0000
00FFFFFFC000
03FF80FFE000
07FC001FF000
0FF00007F800
0FE00001FC00
1FC00000FC00
3F8000007E00
3F0000007E00
7E0000003F00
7E0000001F00
7C0000001F80
FC0000001F80
FC0000000F80
F80000000F80
F80000000F80
F80000000F80
F80000000FC0
F80000000F80
F80000000F80
F80000000F80
FC0000000F80
FC0000001F80
7C0000001F80
7E0000001F00
7E0000003F00
3F0000007E00
3F8000007E00
1FC00000FC00
0FE00001FC00
0FF00007F800
07FC001FF000
03FF80FFE000
00FFFFFFC000
007FFFFF0000
001FFFFE0000
0007FFF00000
00007F000000
ENDCHAR
STARTCHAR 01AF
ENCODING 431
SWIDTH 504 0
DWIDTH 28 0
BBX 28 45 2 -1
BITMAP
000000F0
000000F0
000000F0
000000F0
000001E0
FC001FE0
FC001F80
FC001F00
FC001F00
FC001F00
FC001F00
FC001F00
FC001F00
FC001F00
FC001F00
FC001F00
FC001F00
FC001F00
FC001F00
FC001F00
FC001F00
FC001F00
FC001F00
FC001F00
FC001F00
FC001F00
FC001F00
FC001F00
FC001F00
FC001F00
FC001F00
FC001F00
FC001F00
FC003F00
7C003F00
7C003E00
7E003E00
7E007E00
3F00FC00
3FC3FC00
1FFFF800
0FFFF000
07FFE000
01FFC000
007E0000
ENDCHAR
STARTCHAR 01B0
ENCODING 432
SWIDTH 504 0
DWIDTH 28 0
BBX 28 45 2 -1
BITMAP
000000F0
000000F0
000000F0
000000F0
000001E0
FC001FE0
FC001F80
FC001F00
FC001F00
FC001F00
FC001F00
FC001F00
FC001F00
FC001F00
FC001F00
FC001F00
FC001F00
FC001F00
FC001F00
FC001F00
FC001F00
FC001F00
FC001F00
FC001F00
FC001F00
FC001F00
FC001F00
FC001F00
FC001F00
FC001F00
FC001F00
FC001F00
FC001F00
FC003F00
7C003F00
7C003E00
7E003E00
7E007E00
3F00FC00
3FC3FC00
1FFFF800
0FFFF000
07FFE000
01FFC000
007E0000
ENDCHAR
STARTCHAR 01CD
ENCODING 461
SWIDTH 540 0
DWIDTH 30 0
BBX 27 50 3 0
BITMAP
0F01F000
0F83E000
07C7C000
03E78000
01EF0000
01FF0000
00FE0000
00000000
00000000
00000000
007C0000
03FF8000
0FFFC000
1FFFF000
3FFFF000
3FC7F800
7F01FC00
7E00FC00
FC007E00
FC007E00
F8003E00
F8003E00
F8003E00
F8003E00
F8003E00
F8003E00
F8003E00
F8003E00
F8003E00
F8003E00
F8003E00
F8003E00
F8003E00
F8003E00
F8003E00
F8003E00
F8003E00
F8003E00
F8003E00
F8003E00
F8003E00
F8003E00
F8003E00
F8003E00
F8003E00
FFFFFFE0
FFFFFFE0
FFFFFFE0
FFFFFFE0
FFFFFFE0
ENDCHAR
STARTCHAR 01CE
ENCODING 462
SWIDTH 540 0
DWIDTH 30 0
BBX 27 50 3 0
BITMAP
0F01F000
0F83E000
07C7C000
03E78000
01EF0000
01FF0000
00FE0000
00000000
00000000
00000000
007C0000
03FF8000
0FFFC000
1FFFF000
3FFFF000
3FC7F800
7F01FC00
7E00FC00
FC007E00
FC007E00
F8003E00
F8003E00
F8003E00
F8003E00
F8003E00
F8003E00
F8003E00
F8003E00
F8003E00
F8003E00
F8003E00
F8003E00
F8003E00
F8003E00
F8003E00
F8003E00
F8003E00
F8003E00
F8003E00
F8003E00
F8003E00
F8003E00
F8003E00
F8003E00
F8003E00
FFFFFFE0
FFFFFFE0
FFFFFFE0
FFFFFFE0
FFFFFFE0
ENDCHAR
STARTCHAR 01CF
ENCODING 463
SWIDTH 198 0
DWIDTH 11 0
BBX 16 35 -2 0
BITMAP
F01F
F83E
7C7C
3E78
1EF0
0FF0
0FE0
0000
0000
0000
0000
07C0
07C0
07C0
07C0
07C0
07C0
07C0
07C0
07C0
07C0
07C0
07C0
07C0
07C0
07C0
07C0
07C0
07C0
07C0
07C0
07C0
07C0
07C0
07C0
ENDCHAR
STARTCHAR 01D0
ENCODING 464
SWIDTH 198 0
DWIDTH 11 0
BBX 16 35 -2 0
BITMAP
F01F
F83E
7C7C
3E78
1EF0
0FF0
0FE0
0000
0000
0000
0000
07C0
07C0
07C0
07C0
07C0
07C0
07C0
07C0
07C0
07C0
07C0
07C0
07C0
07C0
07C0
07C0
07C0
07C0
07C0
07C0
07C0
07C0
07C0
07C0
ENDCHAR
STARTCHAR 01D1
ENCODING 465
SWIDTH 810 0
DWIDTH 45 0
BBX 42 51 2 -1
BITMAP
000780F80000
0003C1F00000
0003E1E00000
0001F3C00000
0000FFC00000
00007F800000
00007F000000
000000000000
000000000000
000000000000
00003E000000
0007FFF00000
001FFFFC0000
007FFFFF0000
00FFFFFFC000
03FF80FFE000
07FC001FF000
0FF00007F800
0FE00001FC00
1FC00000FC00
3F8000007E00
3F0000007E00
7E0000003F00
7E0000001F00
7C0000001F80
FC0000001F80
FC0000000F80
F80000000F80
F80000000F80
F80000000F80
F80000000FC0
F80000000F80
F80000000F80
F80000000F80
FC0000000F80
FC0000001F80
7C0000001F80
7E0000001F00
7E0000003F00
3F0000007E00
3F8000007E00
1FC00000FC00
0FE00001FC00
0FF00007F800
07FC001FF000
03FF80FFE000
00FFFFFFC000
007FFFFF0000
001FFFFE0000
0007FFF00000
00007F000000
ENDCHAR
STARTCHAR 01D2
ENCODING 466
SWIDTH 810 0
DWIDTH 45 0
BBX 42 51 2 -1
BITMAP
000780F80000
0003C1F00000
0003E1E00000
0001F3C00000
0000FFC00000
00007F800000
00007F000000
000000000000
000000000000
000000000000
00003E000000
0007FFF00000
001FFFFC0000
007FFFFF0000
00FFFFFFC000
03FF80FFE000
07FC001FF000
0FF00007F800
0FE00001FC00
1FC00000FC00
3F8000007E00
3F0000007E00
7E0000003F00
7E0000001F00
7C0000001F80
FC0000001F80
FC0000000F80
F80000000F80
F80000000F80
F80000000F80
F80000000FC0
F80000000F80
F80000000F80
F80000000F80
FC0000000F80
FC0000001F80
7C0000001F80
7E0000001F00
7E0000003F00
3F0000007E00
3F8000007E00
1FC00000FC00
0FE00001FC00
0FF00007F800
07FC001FF000
03FF80FFE000
00FFFFFFC000
007FFFFF0000
001FFFFE0000
0007FFF00000
00007F000000
ENDCHAR
STARTCHAR 01D3
ENCODING 467
SWIDTH 504 0
DWIDTH 28 0
BBX 24 51 2 -1
BITMAP
0F80F0
07C1E0
03C3E0
01E7C0
01FF80
00FF00
007E00
000000
000000
000000
000000
FC001F
FC001F
FC001F
FC001F
FC001F
FC001F
FC001F
FC001F
FC001F
FC001F
FC001F
FC001F
FC001F
FC001F
FC001F
FC001F
FC001F
FC001F
FC001F
FC001F
FC001F
FC001F
FC001F
FC001F
FC001F
FC001F
FC001F
FC001F
FC003F
7C003F
7C003E
7E003E
7E007E
3F00FC
3FC3FC
1FFFF8
0FFFF0
07FFE0
01FFC0
007E00
ENDCHAR
STARTCHAR 01D4
ENCODING 468
SWIDTH 504 0
DWIDTH 28 0
BBX 24 51 2 -1
BITMAP
0F80F0
07C1E0
03C3E0
01E7C0
01FF80
00FF00
007E00
000000
000000
000000
000000
FC001F
FC001F
FC001F
FC001F
FC001F
FC001F
FC001F
FC001F
FC001F
FC001F
FC001F
FC001F
FC001F
FC001F
FC001F
FC001F
FC001F
FC001F
FC001F
FC001F
FC001F
FC001F
FC001F
FC001F
FC001F
FC001F
FC001F
FC001F
FC003F
7C003F
7C003E
7E003E
7E007E
3F00FC
3FC3FC
1FFFF8
0FFFF0
07FFE0
01FFC0
007E00
ENDCHAR
STARTCHAR 02C6
ENCODING 710
SWIDTH 288 0
DWIDTH 16 0
BBX 17 8 0 42
BITMAP
03E000
07F000
0FF800
1F7C00
1E3C00
3C1E00
781F00
F80F80
ENDCHAR
STARTCHAR 02C7
ENCODING 711
SWIDTH 288 0
DWIDTH 16 0
BBX 16 7 0 43
BITMAP
F80F
7C1F
3E3E
1F3C
0F78
0FF8
07F0
ENDCHAR
STARTCHAR 02D8
ENCODING 728
SWIDTH 270 0
DWIDTH 15 0
BBX 15 8 0 42
BITMAP
E00E
F00E
F01E
783E
7EFC
3FF8
1FF0
07C0
ENDCHAR
STARTCHAR 02D9
ENCODING 729
SWIDTH 144 0
DWIDTH 8 0
BBX 8 8 0 43
BITMAP
3E
7F
FF
FF
FF
7F
7E
1C
ENDCHAR
STARTCHAR 02DA
ENCODING 730
SWIDTH 198 0
DWIDTH 11 0
BBX 11 11 0 42
BITMAP
1F80
7FC0
7BC0
E0E0
E0E0
E0E0
E0E0
F1E0
7FC0
3F80
0E00
ENDCHAR
STARTCHAR 02DB
ENCODING 731
SWIDTH 180 0
DWIDTH 10 0
BBX 11 11 0 -10
BITMAP
0780
1E00
7800
7000
E000
E000
E000
E0C0
FBE0
7FC0
3F80
ENDCHAR
STARTCHAR 02DC
ENCODING 732
SWIDTH 234 0
DWIDTH 13 0
BBX 13 5 0 44
BITMAP
7E00
FFF8
FFF8
C7F8
00E0
ENDCHAR
STARTCHAR 02DD
ENCODING 733
SWIDTH 324 0
DWIDTH 18 0
BBX 18 7 0 42
BITMAP
0F07C0
1E0F80
1C0F00
3C1E00
781C00
703C00
F03800
ENDCHAR
STARTCHAR 0300
ENCODING 768
SWIDTH 0 0
DWIDTH 0 0
BBX 8 7 -8 42
BITMAP
F0
78
38
3C
1E
0E
0F
ENDCHAR
STARTCHAR 0301
ENCODING 769
SWIDTH 0 0
DWIDTH 0 0
BBX 8 7 -8 42
BITMAP
1F
3E
3C
78
70
F0
E0
ENDCHAR
STARTCHAR 0302
ENCODING 770
SWIDTH 0 0
DWIDTH 0 0
BBX 17 8 -17 42
BITMAP
03E000
07F000
0FF800
1F7C00
1E3C00
3C1E00
7C0F00
F80F80
ENDCHAR
STARTCHAR 0303
ENCODING 771
SWIDTH 0 0
DWIDTH 0 0
BBX 13 5 -13 44
BITMAP
FC00
FFF8
FFF8
87F8
0040
ENDCHAR
STARTCHAR 0304
ENCODING 772
SWIDTH 0 0
DWIDTH 0 0
BBX 16 4 -16 44
BITMAP
FFFF
FFFF
FFFF
FFFF
ENDCHAR
STARTCHAR 0306
ENCODING 774
SWIDTH 0 0
DWIDTH 0 0
BBX 15 8 -15 42
BITMAP
E00E
E01E
F01E
F03C
7EFC
3FF8
1FF0
07C0
ENDCHAR
STARTCHAR 0307
ENCODING 775
SWIDTH 0 0
DWIDTH 0 0
BBX 8 8 -8 43
BITMAP
3E
7F
FF
FF
FF
FF
7E
18
ENDCHAR
STARTCHAR 0308
ENCODING 776
SWIDTH 0 0
DWIDTH 0 0
BBX 20 8 -20 42
BITMAP
180180
7E07E0
FE0FF0
FF0FF0
FF0FF0
FF0FF0
FE07F0
7E03E0
ENDCHAR
STARTCHAR 0309
ENCODING 777
SWIDTH 0 0
DWIDTH 0 0
BBX 5 11 -5 42
BITMAP
70
78
38
78
78
70
F0
F0
F0
F0
70
ENDCHAR
STARTCHAR 030A
ENCODING 778
SWIDTH 0 0
DWIDTH 0 0
BBX 11 11 -11 42
BITMAP
3F00
7FC0
FBC0
E0E0
E0E0
E0E0
E0E0
F1E0
7FC0
3F80
0E00
ENDCHAR
STARTCHAR 030B
ENCODING 779
SWIDTH 0 0
DWIDTH 0 0
BBX 18 7 -18 42
BITMAP
0F07C0
1E0F80
3C0F00
3C1E00
781C00
703C00
E03800
ENDCHAR
STARTCHAR 030C
ENCODING 780
SWIDTH 0 0
DWIDTH 0 0
BBX 16 7 -16 43
BITMAP
F01F
F83E
7C7C
3E78
1EF0
1FF0
0FE0
ENDCHAR
STARTCHAR 031B
ENCODING 795
SWIDTH 0 0
DWIDTH 0 0
BBX 7 7 -7 37
BITMAP
1E
1E
1E
1E
3C
F8
F0
ENDCHAR
STARTCHAR 0323
ENCODING 803
SWIDTH 0 0
DWIDTH 0 0
BBX 8 8 -8 -15
BITMAP
3C
7E
FF
FF
FF
FF
7E
3C
ENDCHAR
STARTCHAR 0326
ENCODING 806
SWIDTH 0 0
DWIDTH 0 0
BBX 8 9 -8 -12
BITMAP
1F
1E
1E
3C
3C
3C
78
78
F0
ENDCHAR
STARTCHAR 0327
ENCODING 807
SWIDTH 0 0
DWIDTH 0 0
BBX 12 12 -12 -12
BITMAP
0380
0700
0780
07E0
00E0
0070
0070
6070
F0F0
7FE0
3FC0
0F80
ENDCHAR
STARTCHAR 0328
ENCODING 808
SWIDTH 0 0
DWIDTH 0 0
BBX 11 11 -11 -10
BITMAP
0780
1E00
3800
7000
E000
E000
E000
E0C0
7BE0
7FC0
3F80
ENDCHAR
STARTCHAR 0335
ENCODING 821
SWIDTH 0 0
DWIDTH 0 0
BBX 18 4 -18 10
BITMAP
FFFFC0
FFFFC0
FFFFC0
FFFFC0
ENDCHAR
STARTCHAR 1EA0
ENCODING 7840
SWIDTH 540 0
DWIDTH 30 0
BBX 27 55 3 -15
BITMAP
007C0000
03FF8000
0FFFC000
1FFFF000
3FFFF000
3FC7F800
7F01FC00
7E00FC00
FC007E00
FC007E00
F8003E00
F8003E00
F8003E00
F8003E00
F8003E00
F8003E00
F8003E00
F8003E00
F8003E00
F8003E00
F8003E00
F8003E00
F8003E00
F8003E00
F8003E00
F8003E00
F8003E00
F8003E00
F8003E00
F8003E00
F8003E00
F8003E00
F8003E00
F8003E00
F8003E00
FFFFFFE0
FFFFFFE0
FFFFFFE0
FFFFFFE0
FFFFFFE0
00000000
00000000
00000000
00000000
00000000
00000000
00000000
007C0000
00FE0000
00FE0000
00FF0000
00FF0000
00FE0000
00FE0000
003C0000
ENDCHAR
STARTCHAR 1EA1
ENCODING 7841
SWIDTH 540 0
DWIDTH 30 0
BBX 27 55 3 -15
BITMAP
007C0000
03FF8000
0FFFC000
1FFFF000
3FFFF000
3FC7F800
7F01FC00
7E00FC00
FC007E00
FC007E00
F8003E00
F8003E00
F8003E00
F8003E00
F8003E00
F8003E00
F8003E00
F8003E00
F8003E00
F8003E00
F8003E00
F8003E00
F8003E00
F8003E00
F8003E00
F8003E00
F8003E00
F8003E00
F8003E00
F8003E00
F8003E00
F8003E00
F8003E00
F8003E00
F8003E00
FFFFFFE0
FFFFFFE0
FFFFFFE0
FFFFFFE0
FFFFFFE0
00000000
00000000
00000000
00000000
00000000
00000000
00000000
007C0000
00FE0000
00FE0000
00FF0000
00FF0000
00FE0000
00FE0000
003C0000
ENDCHAR
STARTCHAR 1EA2
ENCODING 7842
SWIDTH 540 0
DWIDTH 30 0
BBX 27 53 3 0
BITMAP
00380000
003C0000
003C0000
003C0000
00380000
00380000
00780000
00700000
00780000
00780000
00380000
00000000
00000000
007C0000
03FF8000
0FFFC000
1FFFF000
3FFFF000
3FC7F800
7F01FC00
7E00FC00
FC007E00
FC007E00
F8003E00
F8003E00
F8003E00
F8003E00
F8003E00
F8003E00
F8003E00
F8003E00
F8003E00
F8003E00
F8003E00
F8003E00
F8003E00
F8003E00
F8003E00
F8003E00
F8003E00
F8003E00
F8003E00
F8003E00
F8003E00
F8003E00
F8003E00
F8003E00
F8003E00
FFFFFFE0
FFFFFFE0
FFFFFFE0
FFFFFFE0
FFFFFFE0
ENDCHAR
STARTCHAR 1EA3
ENCODING 7843
SWIDTH 540 0
DWIDTH 30 0
BBX 27 53 3 0
BITMAP
00380000
003C0000
003C0000
003C0000
00380000
00380000
00780000
00700000
00780000
00780000
00380000
00000000
00000000
007C0000
03FF8000
0FFFC000
1FFFF000
3FFFF000
3FC7F800
7F01FC00
7E00FC00
FC007E00
FC007E00
F8003E00
F8003E00
F8003E00
F8003E00
F8003E00
F8003E00
F8003E00
F8003E00
F8003E00
F8003E00
F8003E00
F8003E00
F8003E00
F8003E00
F8003E00
F8003E00
F8003E00
F8003E00
F8003E00
F8003E00
F8003E00
F8003E00
F8003E00
F8003E00
F8003E00
FFFFFFE0
FFFFFFE0
FFFFFFE0
FFFFFFE0
FFFFFFE0
ENDCHAR
STARTCHAR 1EA4
ENCODING 7844
SWIDTH 540 0
DWIDTH 30 0
BBX 27 55 3 0
BITMAP
000003E0
000003C0
00000780
00000780
00000F00
007C0E00
00FE1C00
01FF3C00
03EF8000
03C78000
0783C000
0F81E000
1F01F000
00000000
00000000
007C0000
03FF8000
0FFFC000
1FFFF000
3FFFF000
3FC7F800
7F01FC00
7E00FC00
FC007E00
FC007E00
F8003E00
F8003E00
F8003E00
F8003E00
F8003E00
F8003E00
F8003E00
F8003E00
F8003E00
F8003E00
F8003E00
F8003E00
F8003E00
F8003E00
F8003E00
F8003E00
F8003E00
F8003E00
F8003E00
F8003E00
F8003E00
F8003E00
F8003E00
F8003E00
F8003E00
FFFFFFE0
FFFFFFE0
FFFFFFE0
FFFFFFE0
FFFFFFE0
ENDCHAR
STARTCHAR 1EA5
ENCODING 7845
SWIDTH 540 0
DWIDTH 30 0
BBX 27 55 3 0
BITMAP
000003E0
000003C0
00000780
00000780
00000F00
007C0E00
00FE1C00
01FF3C00
03EF8000
03C78000
0783C000
0F81E000
1F01F000
00000000
00000000
007C0000
03FF8000
0FFFC000
1FFFF000
3FFFF000
3FC7F800
7F01FC00
7E00FC00
FC007E00
FC007E00
F8003E00
F8003E00
F8003E00
F8003E00
F8003E00
F8003E00
F8003E00
F8003E00
F8003E00
F8003E00
F8003E00
F8003E00
F8003E00
F8003E00
F8003E00
F8003E00
F8003E00
F8003E00
F8003E00
F8003E00
F8003E00
F8003E00
F8003E00
F8003E00
F8003E00
FFFFFFE0
FFFFFFE0
FFFFFFE0
FFFFFFE0
FFFFFFE0
ENDCHAR
STARTCHAR 1EA6
ENCODING 7846
SWIDTH 540 0
DWIDTH 30 0
BBX 32 55 -2 0
BITMAP
F0000000
78000000
3C000000
3C000000
1E000000
0E03E000
0F07F000
078FF800
001F7C00
001E3C00
003C1E00
007C0F00
00F80F80
00000000
00000000
0003E000
001FFC00
007FFE00
00FFFF80
01FFFF80
01FE3FC0
03F80FE0
03F007E0
07E003F0
07E003F0
07C001F0
07C001F0
07C001F0
07C001F0
07C001F0
07C001F0
07C001F0
07C001F0
07C001F0
07C001F0
07C001F0
07C001F0
07C001F0
07C001F0
07C001F0
07C001F0
07C001F0
07C001F0
07C001F0
07C001F0
07C001F0
07C001F0
07C001F0
07C001F0
07C001F0
07FFFFFF
07FFFFFF
07FFFFFF
07FFFFFF
07FFFFFF
ENDCHAR
STARTCHAR 1EA7
ENCODING 7847
SWIDTH 540 0
DWIDTH 30 0
BBX 32 55 -2 0
BITMAP
F0000000
78000000
3C000000
3C000000
1E000000
0E03E000
0F07F000
078FF800
001F7C00
001E3C00
003C1E00
007C0F00
00F80F80
00000000
00000000
0003E000
001FFC00
007FFE00
00FFFF80
01FFFF80
01FE3FC0
03F80FE0
03F007E0
07E003F0
07E003F0
07C001F0
07C001F0
07C001F0
07C001F0
07C001F0
07C001F0
07C001F0
07C001F0
07C001F0
07C001F0
07C001F0
07C001F0
07C001F0
07C001F0
07C001F0
07C001F0
07C001F0
07C001F0
07C001F0
07C001F0
07C001F0
07C001F0
07C001F0
07C001F0
07C001F0
07FFFFFF
07FFFFFF
07FFFFFF
07FFFFFF
07FFFFFF
ENDCHAR
STARTCHAR 1EA8
ENCODING 7848
SWIDTH 540 0
DWIDTH 30 0
BBX 27 57 3 0
BITMAP
00001E00
00001E00
00001E00
00001E00
00001C00
00003C00
00003C00
007C3C00
00FE3C00
01FF1C00
03EF8000
03C78000
0783C000
0F81E000
1F01F000
00000000
00000000
007C0000
03FF8000
0FFFC000
1FFFF000
3FFFF000
3FC7F800
7F01FC00
7E00FC00
FC007E00
FC007E00
F8003E00
F8003E00
F8003E00
F8003E00
F8003E00
F8003E00
F8003E00
F8003E00
F8003E00
F8003E00
F8003E00
F8003E00
F8003E00
F8003E00
F8003E00
F8003E00
F8003E00
F8003E00
F8003E00
F8003E00
F8003E00
F8003E00
F8003E00
F8003E00
F8003E00
FFFFFFE0
FFFFFFE0
FFFFFFE0
FFFFFFE0
FFFFFFE0
ENDCHAR
STARTCHAR 1EA9
ENCODING 7849
SWIDTH 540 0
DWIDTH 30 0
BBX 27 57 3 0
BITMAP
00001E00
00001E00
00001E00
00001E00
00001C00
00003C00
00003C00
007C3C00
00FE3C00
01FF1C00
03EF8000
03C78000
0783C000
0F81E000
1F01F000
00000000
00000000
007C0000
03FF8000
0FFFC000
1FFFF000
3FFFF000
3FC7F800
7F01FC00
7E00FC00
FC007E00
FC007E00
F8003E00
F8003E00
F8003E00
F8003E00
F8003E00
F8003E00
F8003E00
F8003E00
F8003E00
F8003E00
F8003E00
F8003E00
F8003E00
F8003E00
F8003E00
F8003E00
F8003E00
F8003E00
F8003E00
F8003E00
F8003E00
F8003E00
F8003E00
F8003E00
F8003E00
FFFFFFE0
FFFFFFE0
FFFFFFE0
FFFFFFE0
FFFFFFE0
ENDCHAR
STARTCHAR 1EAA
ENCODING 7850
SWIDTH 540 0
DWIDTH 30 0
BBX 27 55 3 1
BITMAP
001FE180
001FFF80
001FFF80
00103F00
00000000
007C0000
00FE0000
01FF0000
03EF8000
03C78000
0783C000
0F81E000
1F01F000
00000000
00000000
007C0000
03FF8000
0FFFC000
1FFFF000
3FFFF000
3FC7F800
7F01FC00
7E00FC00
FC007E00
FC007E00
F8003E00
F8003E00
F8003E00
F8003E00
F8003E00
F8003E00
F8003E00
F8003E00
F8003E00
F8003E00
F8003E00
F8003E00
F8003E00
F8003E00
F8003E00
F8003E00
F8003E00
F8003E00
F8003E00
F8003E00
F8003E00
F8003E00
F8003E00
F8003E00
F8003E00
FFFFFFE0
FFFFFFE0
FFFFFFE0
FFFFFFE0
FFFFFFE0
ENDCHAR
STARTCHAR 1EAB
ENCODING 7851
SWIDTH 540 0
DWIDTH 30 0
BBX 27 55 3 1
BITMAP
001FE180
001FFF80
001FFF80
00103F00
00000000
007C0000
00FE0000
01FF0000
03EF8000
03C78000
0783C000
0F81E000
1F01F000
00000000
00000000
007C0000
03FF8000
0FFFC000
1FFFF000
3FFFF000
3FC7F800
7F01FC00
7E00FC00
FC007E00
FC007E00
F8003E00
F8003E00
F8003E00
F8003E00
F8003E00
F8003E00
F8003E00
F8003E00
F8003E00
F8003E00
F8003E00
F8003E00
F8003E00
F8003E00
F8003E00
F8003E00
F8003E00
F8003E00
F8003E00
F8003E00
F8003E00
F8003E00
F8003E00
F8003E00
F8003E00
FFFFFFE0
FFFFFFE0
FFFFFFE0
FFFFFFE0
FFFFFFE0
ENDCHAR
STARTCHAR 1EAC
ENCODING 7852
SWIDTH 540 0
DWIDTH 30 0
BBX 27 65 3 -15
BITMAP
007C0000
00FE0000
01FF0000
03EF8000
03C78000
0783C000
0F81E000
1F01F000
00000000
00000000
007C0000
03FF8000
0FFFC000
1FFFF000
3FFFF000
3FC7F800
7F01FC00
7E00FC00
FC007E00
FC007E00
F8003E00
F8003E00
F8003E00
F8003E00
F8003E00
F8003E00
F8003E00
F8003E00
F8003E00
F8003E00
F8003E00
F8003E00
F8003E00
F8003E00
F8003E00
F8003E00
F8003E00
F8003E00
F8003E00
F8003E00
F8003E00
F8003E00
F8003E00
F8003E00
F8003E00
FFFFFFE0
FFFFFFE0
FFFFFFE0
FFFFFFE0
FFFFFFE0
00000000
00000000
00000000
00000000
00000000
00000000
00000000
007C0000
00FE0000
00FE0000
00FF0000
00FF0000
00FE0000
00FE0000
003C0000
ENDCHAR
STARTCHAR 1EAD
ENCODING 7853
SWIDTH 540 0
DWIDTH 30 0
BBX 27 65 3 -15
BITMAP
007C0000
00FE0000
01FF0000
03EF8000
03C78000
0783C000
0F81E000
1F01F000
00000000
00000000
007C0000
03FF8000
0FFFC000
1FFFF000
3FFFF000
3FC7F800
7F01FC00
7E00FC00
FC007E00
FC007E00
F8003E00
F8003E00
F8003E00
F8003E00
F8003E00
F8003E00
F8003E00
F8003E00
F8003E00
F8003E00
F8003E00
F8003E00
F8003E00
F8003E00
F8003E00
F8003E00
F8003E00
F8003E00
F8003E00
F8003E00
F8003E00
F8003E00
F8003E00
F8003E00
F8003E00
FFFFFFE0
FFFFFFE0
FFFFFFE0
FFFFFFE0
FFFFFFE0
00000000
00000000
00000000
00000000
00000000
00000000
00000000
007C0000
00FE0000
00FE0000
00FF0000
00FF0000
00FE0000
00FE0000
003C0000
ENDCHAR
STARTCHAR 1EAE
ENCODING 7854
SWIDTH 540 0
DWIDTH 30 0
BBX 27 57 3 0
BITMAP
0003C000
0007C000
00078000
000F0000
000E0000
001E0000
003C0000
0E38E000
0F00E000
0F01E000
0783C000
07EFC000
03FF8000
01FF0000
003C0000
00000000
00000000
007C0000
03FF8000
0FFFC000
1FFFF000
3FFFF000
3FC7F800
7F01FC00
7E00FC00
FC007E00
FC007E00
F8003E00
F8003E00
F8003E00
F8003E00
F8003E00
F8003E00
F8003E00
F8003E00
F8003E00
F8003E00
F8003E00
F8003E00
F8003E00
F8003E00
F8003E00
F8003E00
F8003E00
F8003E00
F8003E00
F8003E00
F8003E00
F8003E00
F8003E00
F8003E00
F8003E00
FFFFFFE0
FFFFFFE0
FFFFFFE0
FFFFFFE0
FFFFFFE0
ENDCHAR
STARTCHAR 1EAF
ENCODING 7855
SWIDTH 540 0
DWIDTH 30 0
BBX 27 57 3 0
BITMAP
0003C000
0007C000
00078000
000F0000
000E0000
001E0000
003C0000
0E38E000
0F00E000
0F01E000
0783C000
07EFC000
03FF8000
01FF0000
003C0000
00000000
00000000
007C0000
03FF8000
0FFFC000
1FFFF000
3FFFF000
3FC7F800
7F01FC00
7E00FC00
FC007E00
FC007E00
F8003E00
F8003E00
F8003E00
F8003E00
F8003E00
F8003E00
F8003E00
F8003E00
F8003E00
F8003E00
F8003E00
F8003E00
F8003E00
F8003E00
F8003E00
F8003E00
F8003E00
F8003E00
F8003E00
F8003E00
F8003E00
F8003E00
F8003E00
F8003E00
F8003E00
FFFFFFE0
FFFFFFE0
FFFFFFE0
FFFFFFE0
FFFFFFE0
ENDCHAR
STARTCHAR 1EB0
ENCODING 7856
SWIDTH 540 0
DWIDTH 30 0
BBX 27 57 3 0
BITMAP
0F000000
07800000
07C00000
03C00000
01E00000
00E00000
00F00000
0E70E000
0E00E000
0F01E000
0783C000
07EFC000
03FF8000
01FF0000
003C0000
00000000
00000000
007C0000
03FF8000
0FFFC000
1FFFF000
3FFFF000
3FC7F800
7F01FC00
7E00FC00
FC007E00
FC007E00
F8003E00
F8003E00
F8003E00
F8003E00
F8003E00
F8003E00
F8003E00
F8003E00
F8003E00
F8003E00
F8003E00
F8003E00
F8003E00
F8003E00
F8003E00
F8003E00
F8003E00
F8003E00
F8003E00
F8003E00
F8003E00
F8003E00
F8003E00
F8003E00
F8003E00
FFFFFFE0
FFFFFFE0
FFFFFFE0
FFFFFFE0
FFFFFFE0
ENDCHAR
STARTCHAR 1EB1
ENCODING 7857
SWIDTH 540 0
DWIDTH 30 0
BBX 27 57 3 0
BITMAP
0F000000
07800000
07C00000
03C00000
01E00000
00E00000
00F00000
0E70E000
0E00E000
0F01E000
0783C000
07EFC000
03FF8000
01FF0000
003C0000
00000000
00000000
007C0000
03FF8000
0FFFC000
1FFFF000
3FFFF000
3FC7F800
7F01FC00
7E00FC00
FC007E00
FC007E00
F8003E00
F8003E00
F8003E00
F8003E00
F8003E00
F8003E00
F8003E00
F8003E00
F8003E00
F8003E00
F8003E00
F8003E00
F8003E00
F8003E00
F8003E00
F8003E00
F8003E00
F8003E00
F8003E00
F8003E00
F8003E00
F8003E00
F8003E00
F8003E00
F8003E00
FFFFFFE0
FFFFFFE0
FFFFFFE0
FFFFFFE0
FFFFFFE0
ENDCHAR
STARTCHAR 1EB2
ENCODING 7858
SWIDTH 540 0
DWIDTH 30 0
BBX 27 58 3 0
BITMAP
001C0000
001C0000
001C0000
001C0000
003C0000
00380000
00380000
00380000
0E38E000
0F3CE000
0F01E000
0783C000
07EFC000
03FF8000
01FF0000
003C0000
00000000
00000000
007C0000
03FF8000
0FFFC000
1FFFF000
3FFFF000
3FC7F800
7F01FC00
7E00FC00
FC007E00
FC007E00
F8003E00
F8003E00
F8003E00
F8003E00
F8003E00
F8003E00
F8003E00
F8003E00
F8003E00
F8003E00
F8003E00
F8003E00
F8003E00
F8003E00
F8003E00
F8003E00
F8003E00
F8003E00
F8003E00
F8003E00
F8003E00
F8003E00
F8003E00
F8003E00
F8003E00
FFFFFFE0
FFFFFFE0
FFFFFFE0
FFFFFFE0
FFFFFFE0
ENDCHAR
STARTCHAR 1EB3
ENCODING 7859
SWIDTH 540 0
DWIDTH 30 0
BBX 27 58 3 0
BITMAP
001C0000
001C0000
001C0000
001C0000
003C0000
00380000
00380000
00380000
0E38E000
0F3CE000
0F01E000
0783C000
07EFC000
03FF8000
01FF0000
003C0000
00000000
00000000
007C0000
03FF8000
0FFFC000
1FFFF000
3FFFF000
3FC7F800
7F01FC00
7E00FC00
FC007E00
FC007E00
F8003E00
F8003E00
F8003E00
F8003E00
F8003E00
F8003E00
F8003E00
F8003E00
F8003E00
F8003E00
F8003E00
F8003E00
F8003E00
F8003E00
F8003E00
F8003E00
F8003E00
F8003E00
F8003E00
F8003E00
F8003E00
F8003E00
F8003E00
F8003E00
F8003E00
FFFFFFE0
FFFFFFE0
FFFFFFE0
FFFFFFE0
FFFFFFE0
ENDCHAR
STARTCHAR 1EB4
ENCODING 7860
SWIDTH 540 0
DWIDTH 30 0
BBX 27 56 3 0
BITMAP
03E00000
07FFC000
07FFC000
07FFC000
00078000
00000000
0E00E000
0F00E000
0F01E000
0783C000
07EFC000
03FF8000
01FF0000
003C0000
00000000
00000000
007C0000
03FF8000
0FFFC000
1FFFF000
3FFFF000
3FC7F800
7F01FC00
7E00FC00
FC007E00
FC007E00
F8003E00
F8003E00
F8003E00
F8003E00
F8003E00
F8003E00
F8003E00
F8003E00
F8003E00
F8003E00
F8003E00
F8003E00
F8003E00
F8003E00
F8003E00
F8003E00
F8003E00
F8003E00
F8003E00
F8003E00
F8003E00
F8003E00
F8003E00
F8003E00
F8003E00
FFFFFFE0
FFFFFFE0
FFFFFFE0
FFFFFFE0
FFFFFFE0
ENDCHAR
STARTCHAR 1EB5
ENCODING 7861
SWIDTH 540 0
DWIDTH 30 0
BBX 27 56 3 0
BITMAP
03E00000
07FFC000
07FFC000
07FFC000
00078000
00000000
0E00E000
0F00E000
0F01E000
0783C000
07EFC000
03FF8000
01FF0000
003C0000
00000000
00000000
007C0000
03FF8000
0FFFC000
1FFFF000
3FFFF000
3FC7F800
7F01FC00
7E00FC00
FC007E00
FC007E00
F8003E00
F8003E00
F8003E00
F8003E00
F8003E00
F8003E00
F8003E00
F8003E00
F8003E00
F8003E00
F8003E00
F8003E00
F8003E00
F8003E00
F8003E00
F8003E00
F8003E00
F8003E00
F8003E00
F8003E00
F8003E00
F8003E00
F8003E00
F8003E00
F8003E00
FFFFFFE0
FFFFFFE0
FFFFFFE0
FFFFFFE0
FFFFFFE0
ENDCHAR
STARTCHAR 1EB6
ENCODING 7862
SWIDTH 540 0
DWIDTH 30 0
BBX 27 65 3 -15
BITMAP
0E00E000
0F00E000
0F01E000
0783C000
07EFC000
03FF8000
01FF0000
003C0000
00000000
00000000
007C0000
03FF8000
0FFFC000
1FFFF000
3FFFF000
3FC7F800
7F01FC00
7E00FC00
FC007E00
FC007E00
F8003E00
F8003E00
F8003E00
F8003E00
F8003E00
F8003E00
F8003E00
F8003E00
F8003E00
F8003E00
F8003E00
F8003E00
F8003E00
F8003E00
F8003E00
F8003E00
F8003E00
F8003E00
F8003E00
F8003E00
F8003E00
F8003E00
F8003E00
F8003E00
F8003E00
FFFFFFE0
FFFFFFE0
FFFFFFE0
FFFFFFE0
FFFFFFE0
00000000
00000000
00000000
00000000
00000000
00000000
00000000
007C0000
00FE0000
00FE0000
00FF0000
00FF0000
00FE0000
00FE0000
003C0000
ENDCHAR
STARTCHAR 1EB7
ENCODING 7863
SWIDTH 540 0
DWIDTH 30 0
BBX 27 65 3 -15
BITMAP
0E00E000
0F00E000
0F01E000
0783C000
07EFC000
03FF8000
01FF0000
003C0000
00000000
00000000
007C0000
03FF8000
0FFFC000
1FFFF000
3FFFF000
3FC7F800
7F01FC00
7E00FC00
FC007E00
FC007E00
F8003E00
F8003E00
F8003E00
F8003E00
F8003E00
F8003E00
F8003E00
F8003E00
F8003E00
F8003E00
F8003E00
F8003E00
F8003E00
F8003E00
F8003E00
F8003E00
F8003E00
F8003E00
F8003E00
F8003E00
F8003E00
F8003E00
F8003E00
F8003E00
F8003E00
FFFFFFE0
FFFFFFE0
FFFFFFE0
FFFFFFE0
FFFFFFE0
00000000
00000000
00000000
00000000
00000000
00000000
00000000
007C0000
00FE0000
00FE0000
00FF0000
00FF0000
00FE0000
00FE0000
003C0000
ENDCHAR
STARTCHAR 1EB8
ENCODING 7864
SWIDTH 486 0
DWIDTH 27 0
BBX 26 54 1 -15
BITMAP
0FFFF000
0FFFF000
0FFFF000
0FFFF000
0FFFF000
0F800000
0F800000
0F800000
0F800000
0F800000
0F800000
0F800000
0F800000
0F800000
0F800000
0F800000
0F800000
FFFFFC00
FFFFFC00
FFFFFC00
FFFFFC00
FFFFFC00
0F800000
0F800000
0F800000
0F800000
0F800000
0F800000
0F800000
0F800000
0F800000
0F800000
0F800000
0F800000
0FFFFFC0
0FFFFFC0
0FFFFFC0
0FFFFFC0
0FFFFFC0
00000000
00000000
00000000
00000000
00000000
00000000
00000000
0007C000
000FE000
000FF000
000FF000
000FF000
000FF000
0007E000
0003C000
ENDCHAR
STARTCHAR 1EB9
ENCODING 7865
SWIDTH 486 0
DWIDTH 27 0
BBX 26 54 1 -15
BITMAP
0FFFF000
0FFFF000
0FFFF000
0FFFF000
0FFFF000
0F800000
0F800000
0F800000
0F800000
0F800000
0F800000
0F800000
0F800000
0F800000
0F800000
0F800000
0F800000
FFFFFC00
FFFFFC00
FFFFFC00
FFFFFC00
FFFFFC00
0F800000
0F800000
0F800000
0F800000
0F800000
0F800000
0F800000
0F800000
0F800000
0F800000
0F800000
0F800000
0FFFFFC0
0FFFFFC0
0FFFFFC0
0FFFFFC0
0FFFFFC0
00000000
00000000
00000000
00000000
00000000
00000000
00000000
0007C000
000FE000
000FF000
000FF000
000FF000
000FF000
0007E000
0003C000
ENDCHAR
STARTCHAR 1EBA
ENCODING 7866
SWIDTH 486 0
DWIDTH 27 0
BBX 26 53 1 0
BITMAP
003C0000
001C0000
001C0000
001C0000
003C0000
00380000
00380000
00780000
00780000
00380000
00380000
00000000
00000000
00000000
0FFFF000
0FFFF000
0FFFF000
0FFFF000
0FFFF000
0F800000
0F800000
0F800000
0F800000
0F800000
0F800000
0F800000
0F800000
0F800000
0F800000
0F800000
0F800000
FFFFFC00
FFFFFC00
FFFFFC00
FFFFFC00
FFFFFC00
0F800000
0F800000
0F800000
0F800000
0F800000
0F800000
0F800000
0F800000
0F800000
0F800000
0F800000
0F800000
0FFFFFC0
0FFFFFC0
0FFFFFC0
0FFFFFC0
0FFFFFC0
ENDCHAR
STARTCHAR 1EBB
ENCODING 7867
SWIDTH 486 0
DWIDTH 27 0
BBX 26 53 1 0
BITMAP
003C0000
001C0000
001C0000
001C0000
003C0000
00380000
00380000
00780000
00780000
00380000
00380000
00000000
00000000
00000000
0FFFF000
0FFFF000
0FFFF000
0FFFF000
0FFFF000
0F800000
0F800000
0F800000
0F800000
0F800000
0F800000
0F800000
0F800000
0F800000
0F800000
0F800000
0F800000
FFFFFC00
FFFFFC00
FFFFFC00
FFFFFC00
FFFFFC00
0F800000
0F800000
0F800000
0F800000
0F800000
0F800000
0F800000
0F800000
0F800000
0F800000
0F800000
0F800000
0FFFFFC0
0FFFFFC0
0FFFFFC0
0FFFFFC0
0FFFFFC0
ENDCHAR
STARTCHAR 1EBC
ENCODING 7868
SWIDTH 486 0
DWIDTH 27 0
BBX 26 49 1 0
BITMAP
07E00000
07FFC000
07FFC000
043FC000
00060000
00000000
00000000
00000000
00000000
00000000
0FFFF000
0FFFF000
0FFFF000
0FFFF000
0FFFF000
0F800000
0F800000
0F800000
0F800000
0F800000
0F800000
0F800000
0F800000
0F800000
0F800000
0F800000
0F800000
FFFFFC00
FFFFFC00
FFFFFC00
FFFFFC00
FFFFFC00
0F800000
0F800000
0F800000
0F800000
0F800000
0F800000
0F800000
0F800000
0F800000
0F800000
0F800000
0F800000
0FFFFFC0
0FFFFFC0
0FFFFFC0
0FFFFFC0
0FFFFFC0
ENDCHAR
STARTCHAR 1EBD
ENCODING 7869
SWIDTH 486 0
DWIDTH 27 0
BBX 26 49 1 0
BITMAP
07E00000
07FFC000
07FFC000
043FC000
00060000
00000000
00000000
00000000
00000000
00000000
0FFFF000
0FFFF000
0FFFF000
0FFFF000
0FFFF000
0F800000
0F800000
0F800000
0F800000
0F800000
0F800000
0F800000
0F800000
0F800000
0F800000
0F800000
0F800000
FFFFFC00
FFFFFC00
FFFFFC00
FFFFFC00
FFFFFC00
0F800000
0F800000
0F800000
0F800000
0F800000
0F800000
0F800000
0F800000
0F800000
0F800000
0F800000
0F800000
0FFFFFC0
0FFFFFC0
0FFFFFC0
0FFFFFC0
0FFFFFC0
ENDCHAR
STARTCHAR 1EBE
ENCODING 7870
SWIDTH 486 0
DWIDTH 27 0
BBX 27 55 1 0
BITMAP
000001E0
000003E0
000003C0
00000780
00000700
007E0F00
00FF1E00
00FF1C00
01EF8000
03E7C000
07C3E000
0781E000
0F00F000
00000000
00000000
00000000
0FFFF000
0FFFF000
0FFFF000
0FFFF000
0FFFF000
0F800000
0F800000
0F800000
0F800000
0F800000
0F800000
0F800000
0F800000
0F800000
0F800000
0F800000
0F800000
FFFFFC00
FFFFFC00
FFFFFC00
FFFFFC00
FFFFFC00
0F800000
0F800000
0F800000
0F800000
0F800000
0F800000
0F800000
0F800000
0F800000
0F800000
0F800000
0F800000
0FFFFFC0
0FFFFFC0
0FFFFFC0
0FFFFFC0
0FFFFFC0
ENDCHAR
STARTCHAR 1EBF
ENCODING 7871
SWIDTH 486 0
DWIDTH 27 0
BBX 27 55 1 0
BITMAP
000001E0
000003E0
000003C0
00000780
00000700
007E0F00
00FF1E00
00FF1C00
01EF8000
03E7C000
07C3E000
0781E000
0F00F000
00000000
00000000
00000000
0FFFF000
0FFFF000
0FFFF000
0FFFF000
0FFFF000
0F800000
0F800000
0F800000
0F800000
0F800000
0F800000
0F800000
0F800000
0F800000
0F800000
0F800000
0F800000
FFFFFC00
FFFFFC00
FFFFFC00
FFFFFC00
FFFFFC00
0F800000
0F800000
0F800000
0F800000
0F800000
0F800000
0F800000
0F800000
0F800000
0F800000
0F800000
0F800000
0FFFFFC0
0FFFFFC0
0FFFFFC0
0FFFFFC0
0FFFFFC0
ENDCHAR
STARTCHAR 1EC0
ENCODING 7872
SWIDTH 486 0
DWIDTH 27 0
BBX 31 55 -4 0
BITMAP
F8000000
7C000000
3C000000
1E000000
1E000000
0F03F000
0707F800
0387F800
000F7C00
001F3E00
003E1F00
003C0F00
00780780
00000000
00000000
00000000
007FFF80
007FFF80
007FFF80
007FFF80
007FFF80
007C0000
007C0000
007C0000
007C0000
007C0000
007C0000
007C0000
007C0000
007C0000
007C0000
007C0000
007C0000
07FFFFE0
07FFFFE0
07FFFFE0
07FFFFE0
07FFFFE0
007C0000
007C0000
007C0000
007C0000
007C0000
007C0000
007C0000
007C0000
007C0000
007C0000
007C0000
007C0000
007FFFFE
007FFFFE
007FFFFE
007FFFFE
007FFFFE
ENDCHAR
STARTCHAR 1EC1
ENCODING 7873
SWIDTH 486 0
DWIDTH 27 0
BBX 31 55 -4 0
BITMAP
F8000000
7C000000
3C000000
1E000000
1E000000
0F03F000
0707F800
0387F800
000F7C00
001F3E00
003E1F00
003C0F00
00780780
00000000
00000000
00000000
007FFF80
007FFF80
007FFF80
007FFF80
007FFF80
007C0000
007C0000
007C0000
007C0000
007C0000
007C0000
007C0000
007C0000
007C0000
007C0000
007C0000
007C0000
07FFFFE0
07FFFFE0
07FFFFE0
07FFFFE0
07FFFFE0
007C0000
007C0000
007C0000
007C0000
007C0000
007C0000
007C0000
007C0000
007C0000
007C0000
007C0000
007C0000
007FFFFE
007FFFFE
007FFFFE
007FFFFE
007FFFFE
ENDCHAR
STARTCHAR 1EC2
ENCODING 7874
SWIDTH 486 0
DWIDTH 27 0
BBX 26 57 1 0
BITMAP
00000E00
00000E00
00000E00
00000E00
00001E00
00001C00
00001C00
007E1C00
00FF1C00
00FF1C00
01EF8000
03E7C000
07C3E000
0781E000
0F00F000
00000000
00000000
00000000
0FFFF000
0FFFF000
0FFFF000
0FFFF000
0FFFF000
0F800000
0F800000
0F800000
0F800000
0F800000
0F800000
0F800000
0F800000
0F800000
0F800000
0F800000
0F800000
FFFFFC00
FFFFFC00
FFFFFC00
FFFFFC00
FFFFFC00
0F800000
0F800000
0F800000
0F800000
0F800000
0F800000
0F800000
0F800000
0F800000
0F800000
0F800000
0F800000
0FFFFFC0
0FFFFFC0
0FFFFFC0
0FFFFFC0
0FFFFFC0
ENDCHAR
STARTCHAR 1EC3
ENCODING 7875
SWIDTH 486 0
DWIDTH 27 0
BBX 26 57 1 0
BITMAP
00000E00
00000E00
00000E00
00000E00
00001E00
00001C00
00001C00
007E1C00
00FF1C00
00FF1C00
01EF8000
03E7C000
07C3E000
0781E000
0F00F000
00000000
00000000
00000000
0FFFF000
0FFFF000
0FFFF000
0FFFF000
0FFFF000
0F800000
0F800000
0F800000
0F800000
0F800000
0F800000
0F800000
0F800000
0F800000
0F800000
0F800000
0F800000
FFFFFC00
FFFFFC00
FFFFFC00
FFFFFC00
FFFFFC00
0F800000
0F800000
0F800000
0F800000
0F800000
0F800000
0F800000
0F800000
0F800000
0F800000
0F800000
0F800000
0FFFFFC0
0FFFFFC0
0FFFFFC0
0FFFFFC0
0FFFFFC0
ENDCHAR
STARTCHAR 1EC4
ENCODING 7876
SWIDTH 486 0
DWIDTH 27 0
BBX 26 55 1 1
BITMAP
000FE080
000FFF80
000FFF80
00003F80
00000000
007E0000
00FF0000
00FF0000
01EF8000
03E7C000
07C3E000
0781E000
0F00F000
00000000
00000000
00000000
0FFFF000
0FFFF000
0FFFF000
0FFFF000
0FFFF000
0F800000
0F800000
0F800000
0F800000
0F800000
0F800000
0F800000
0F800000
0F800000
0F800000
0F800000
0F800000
FFFFFC00
FFFFFC00
FFFFFC00
FFFFFC00
FFFFFC00
0F800000
0F800000
0F800000
0F800000
0F800000
0F800000
0F800000
0F800000
0F800000
0F800000
0F800000
0F800000
0FFFFFC0
0FFFFFC0
0FFFFFC0
0FFFFFC0
0FFFFFC0
ENDCHAR
STARTCHAR 1EC5
ENCODING 7877
SWIDTH 486 0
DWIDTH 27 0
BBX 26 55 1 1
BITMAP
000FE080
000FFF80
000FFF80
00003F80
00000000
007E0000
00FF0000
00FF0000
01EF8000
03E7C000
07C3E000
0781E000
0F00F000
00000000
00000000
00000000
0FFFF000
0FFFF000
0FFFF000
0FFFF000
0FFFF000
0F800000
0F800000
0F800000
0F800000
0F800000
0F800000
0F800000
0F800000
0F800000
0F800000
0F800000
0F800000
FFFFFC00
FFFFFC00
FFFFFC00
FFFFFC00
FFFFFC00
0F800000
0F800000
0F800000
0F800000
0F800000
0F800000
0F800000
0F800000
0F800000
0F800000
0F800000
0F800000
0FFFFFC0
0FFFFFC0
0FFFFFC0
0FFFFFC0
0FFFFFC0
ENDCHAR
STARTCHAR 1EC6
ENCODING 7878
SWIDTH 486 0
DWIDTH 27 0
BBX 26 65 1 -15
BITMAP
007E0000
00FF0000
00FF0000
01EF8000
03E7C000
07C3E000
0781E000
0F00F000
00000000
00000000
00000000
0FFFF000
0FFFF000
0FFFF000
0FFFF000
0FFFF000
0F800000
0F800000
0F800000
0F800000
0F800000
0F800000
0F800000
0F800000
0F800000
0F800000
0F800000
0F800000
FFFFFC00
FFFFFC00
FFFFFC00
FFFFFC00
FFFFFC00
0F800000
0F800000
0F800000
0F800000
0F800000
0F800000
0F800000
0F800000
0F800000
0F800000
0F800000
0F800000
0FFFFFC0
0FFFFFC0
0FFFFFC0
0FFFFFC0
0FFFFFC0
00000000
00000000
00000000
00000000
00000000
00000000
00000000
0007C000
000FE000
000FF000
000FF000
000FF000
000FF000
0007E000
0003C000
ENDCHAR
STARTCHAR 1EC7
ENCODING 7879
SWIDTH 486 0
DWIDTH 27 0
BBX 26 65 1 -15
BITMAP
007E0000
00FF0000
00FF0000
01EF8000
03E7C000
07C3E000
0781E000
0F00F000
00000000
00000000
00000000
0FFFF000
0FFFF000
0FFFF000
0FFFF000
0FFFF000
0F800000
0F800000
0F800000
0F800000
0F800000
0F800000
0F800000
0F800000
0F800000
0F800000
0F800000
0F800000
FFFFFC00
FFFFFC00
FFFFFC00
FFFFFC00
FFFFFC00
0F800000
0F800000
0F800000
0F800000
0F800000
0F800000
0F800000
0F800000
0F800000
0F800000
0F800000
0F800000
0FFFFFC0
0FFFFFC0
0FFFFFC0
0FFFFFC0
0FFFFFC0
00000000
00000000
00000000
00000000
00000000
00000000
00000000
0007C000
000FE000
000FF000
000FF000
000FF000
000FF000
0007E000
0003C000
ENDCHAR
STARTCHAR 1EC8
ENCODING 7880
SWIDTH 198 0
DWIDTH 11 0
BBX 5 38 3 0
BITMAP
70
78
78
78
70
70
F0
E0
E0
F0
70
00
00
00
F8
F8
F8
F8
F8
F8
F8
F8
F8
F8
F8
F8
F8
F8
F8
F8
F8
F8
F8
F8
F8
F8
F8
F8
ENDCHAR
STARTCHAR 1EC9
ENCODING 7881
SWIDTH 198 0
DWIDTH 11 0
BBX 5 38 3 0
BITMAP
70
78
78
78
70
70
F0
E0
E0
F0
70
00
00
00
F8
F8
F8
F8
F8
F8
F8
F8
F8
F8
F8
F8
F8
F8
F8
F8
F8
F8
F8
F8
F8
F8
F8
F8
ENDCHAR
STARTCHAR 1ECA
ENCODING 7882
SWIDTH 180 0
DWIDTH 10 0
BBX 14 59 -2 -15
BITMAP
0100
0100
0300
0380
0380
FFFC
3FF8
1FE0
0FC0
0FE0
0FE0
1C60
1820
0010
0000
0000
0000
0000
0000
0000
07C0
07C0
07C0
07C0
07C0
07C0
07C0
07C0
07C0
07C0
07C0
07C0
07C0
07C0
07C0
07C0
07C0
07C0
07C0
07C0
07C0
07C0
07C0
07C0
0000
0000
0000
0000
0000
0000
0000
07C0
0FE0
1FE0
1FE0
1FE0
1FE0
0FC0
0780
ENDCHAR
STARTCHAR 1ECB
ENCODING 7883
SWIDTH 180 0
DWIDTH 10 0
BBX 14 59 -2 -15
BITMAP
0100
0100
0300
0380
0380
FFFC
3FF8
1FE0
0FC0
0FE0
0FE0
1C60
1820
0010
0000
0000
0000
0000
0000
0000
07C0
07C0
07C0
07C0
07C0
07C0
07C0
07C0
07C0
07C0
07C0
07C0
07C0
07C0
07C0
07C0
07C0
07C0
07C0
07C0
07C0
07C0
07C0
07C0
0000
0000
0000
0000
0000
0000
0000
07C0
0FE0
1FE0
1FE0
1FE0
1FE0
0FC0
0780
ENDCHAR
STARTCHAR 1ECC
ENCODING 7884
SWIDTH 810 0
DWIDTH 45 0
BBX 42 55 2 -15
BITMAP
00003E000000
0007FFF00000
001FFFFC0000
007FFFFF0000
00FFFFFFC000
03FF80FFE000
07FC001FF000
0FF00007F800
0FE00001FC00
1FC00000FC00
3F8000007E00
3F0000007E00
7E0000003F00
7E0000001F00
7C0000001F80
FC0000001F80
FC0000000F80
F80000000F80
F80000000F80
F80000000F80
F80000000FC0
F80000000F80
F80000000F80
F80000000F80
FC0000000F80
FC0000001F80
7C0000001F80
7E0000001F00
7E0000003F00
3F0000007E00
3F8000007E00
1FC00000FC00
0FE00001FC00
0FF00007F800
07FC001FF000
03FF80FFE000
00FFFFFFC000
007FFFFF0000
001FFFFE0000
0007FFF00000
00007F000000
000000000000
000000000000
000000000000
000000000000
000000000000
000000000000
00003E000000
00007F000000
00007F800000
00007F800000
00007F800000
00007F000000
00007F000000
00001E000000
ENDCHAR
STARTCHAR 1ECD
ENCODING 7885
SWIDTH 810 0
DWIDTH 45 0
BBX 42 55 2 -15
BITMAP
00003E000000
0007FFF00000
001FFFFC0000
007FFFFF0000
00FFFFFFC000
03FF80FFE000
07FC001FF000
0FF00007F800
0FE00001FC00
1FC00000FC00
3F8000007E00
3F0000007E00
7E0000003F00
7E0000001F00
7C0000001F80
FC0000001F80
FC0000000F80
F80000000F80
F80000000F80
F80000000F80
F80000000FC0
F80000000F80
F80000000F80
F80000000F80
FC0000000F80
FC0000001F80
7C0000001F80
7E0000001F00
7E0000003F00
3F0000007E00
3F8000007E00
1FC00000FC00
0FE00001FC00
0FF00007F800
07FC001FF000
03FF80FFE000
00FFFFFFC000
007FFFFF0000
001FFFFE0000
0007FFF00000
00007F000000
000000000000
000000000000
000000000000
000000000000
000000000000
000000000000
00003E000000
00007F000000
00007F800000
00007F800000
00007F800000
00007F000000
00007F000000
00001E000000
ENDCHAR
STARTCHAR 1ECE
ENCODING 7886
SWIDTH 810 0
DWIDTH 45 0
BBX 42 54 2 -1
BITMAP
00001C000000
00001E000000
00001E000000
00001E000000
00001E000000
00001C000000
00003C000000
00003C000000
00003C000000
00003C000000
00001C000000
000000000000
000000000000
00003E000000
0007FFF00000
001FFFFC0000
007FFFFF0000
00FFFFFFC000
03FF80FFE000
07FC001FF000
0FF00007F800
0FE00001FC00
1FC00000FC00
3F8000007E00
3F0000007E00
7E0000003F00
7E0000001F00
7C0000001F80
FC0000001F80
FC0000000F80
F80000000F80
F80000000F80
F80000000F80
F80000000FC0
F80000000F80
F80000000F80
F80000000F80
FC0000000F80
FC0000001F80
7C0000001F80
7E0000001F00
7E0000003F00
3F0000007E00
3F8000007E00
1FC00000FC00
0FE00001FC00
0FF00007F800
07FC001FF000
03FF80FFE000
00FFFFFFC000
007FFFFF0000
001FFFFE0000
0007FFF00000
00007F000000
ENDCHAR
STARTCHAR 1ECF
ENCODING 7887
SWIDTH 810 0
DWIDTH 45 0
BBX 42 54 2 -1
BITMAP
00001C000000
00001E000000
00001E000000
00001E000000
00001E000000
00001C000000
00003C000000
00003C000000
00003C000000
00003C000000
00001C000000
000000000000
000000000000
00003E000000
0007FFF00000
001FFFFC0000
007FFFFF0000
00FFFFFFC000
03FF80FFE000
07FC001FF000
0FF00007F800
0FE00001FC00
1FC00000FC00
3F8000007E00
3F0000007E00
7E0000003F00
7E0000001F00
7C0000001F80
FC0000001F80
FC0000000F80
F80000000F80
F80000000F80
F80000000F80
F80000000FC0
F80000000F80
F80000000F80
F80000000F80
FC0000000F80
FC0000001F80
7C0000001F80
7E0000001F00
7E0000003F00
3F0000007E00
3F8000007E00
1FC00000FC00
0FE00001FC00
0FF00007F800
07FC001FF000
03FF80FFE000
00FFFFFFC000
007FFFFF0000
001FFFFE0000
0007FFF00000
00007F000000
ENDCHAR
STARTCHAR 1ED0
ENCODING 7888
SWIDTH 810 0
DWIDTH 45 0
BBX 42 56 2 -1
BITMAP
00000000F000
00000001E000
00000003E000
00000003C000
000000078000
00003F070000
00007F0F0000
0000FF8E0000
0000F7C00000
0001E3E00000
0003E1E00000
0007C0F00000
000F80780000
000000000000
000000000000
00003E000000
0007FFF00000
001FFFFC0000
007FFFFF0000
00FFFFFFC000
03FF80FFE000
07FC001FF000
0FF00007F800
0FE00001FC00
1FC00000FC00
3F8000007E00
3F0000007E00
7E0000003F00
7E0000001F00
7C0000001F80
FC0000001F80
FC0000000F80
F80000000F80
F80000000F80
F80000000F80
F80000000FC0
F80000000F80
F80000000F80
F80000000F80
FC0000000F80
FC0000001F80
7C0000001F80
7E0000001F00
7E0000003F00
3F0000007E00
3F8000007E00
1FC00000FC00
0FE00001FC00
0FF00007F800
07FC001FF000
03FF80FFE000
00FFFFFFC000
007FFFFF0000
001FFFFE0000
0007FFF00000
00007F000000
ENDCHAR
STARTCHAR 1ED1
ENCODING 7889
SWIDTH 810 0
DWIDTH 45 0
BBX 42 56 2 -1
BITMAP
00000000F000
00000001E000
00000003E000
00000003C000
000000078000
00003F070000
00007F0F0000
0000FF8E0000
0000F7C00000
0001E3E00000
0003E1E00000
0007C0F00000
000F80780000
000000000000
000000000000
00003E000000
0007FFF00000
001FFFFC0000
007FFFFF0000
00FFFFFFC000
03FF80FFE000
07FC001FF000
0FF00007F800
0FE00001FC00
1FC00000FC00
3F8000007E00
3F0000007E00
7E0000003F00
7E0000001F00
7C0000001F80
FC0000001F80
FC0000000F80
F80000000F80
F80000000F80
F80000000F80
F80000000FC0
F80000000F80
F80000000F80
F80000000F80
FC0000000F80
FC0000001F80
7C0000001F80
7E0000001F00
7E0000003F00
3F0000007E00
3F8000007E00
1FC00000FC00
0FE00001FC00
0FF00007F800
07FC001FF000
03FF80FFE000
00FFFFFFC000
007FFFFF0000
001FFFFE0000
0007FFF00000
00007F000000
ENDCHAR
STARTCHAR 1ED2
ENCODING 7890
SWIDTH 810 0
DWIDTH 45 0
BBX 42 56 2 -1
BITMAP
0F8000000000
078000000000
03C000000000
03C000000000
01E000000000
00E03F000000
00707F000000
0078FF800000
0001F7C00000
0001E3E00000
0003C1E00000
0007C0F00000
000F80F80000
000000000000
000000000000
00003E000000
0007FFF00000
001FFFFC0000
007FFFFF0000
00FFFFFFC000
03FF80FFE000
07FC001FF000
0FF00007F800
0FE00001FC00
1FC00000FC00
3F8000007E00
3F0000007E00
7E0000003F00
7E0000001F00
7C0000001F80
FC0000001F80
FC0000000F80
F80000000F80
F80000000F80
F80000000F80
F80000000FC0
F80000000F80
F80000000F80
F80000000F80
FC0000000F80
FC0000001F80
7C0000001F80
7E0000001F00
7E0000003F00
3F0000007E00
3F8000007E00
1FC00000FC00
0FE00001FC00
0FF00007F800
07FC001FF000
03FF80FFE000
00FFFFFFC000
007FFFFF0000
001FFFFE0000
0007FFF00000
00007F000000
ENDCHAR
STARTCHAR 1ED3
ENCODING 7891
SWIDTH 810 0
DWIDTH 45 0
BBX 42 56 2 -1
BITMAP
0F8000000000
078000000000
03C000000000
03C000000000
01E000000000
00E03F000000
00707F000000
0078FF800000
0001F7C00000
0001E3E00000
0003C1E00000
0007C0F00000
000F80F80000
000000000000
000000000000
00003E000000
0007FFF00000
001FFFFC0000
007FFFFF0000
00FFFFFFC000
03FF80FFE000
07FC001FF000
0FF00007F800
0FE00001FC00
1FC00000FC00
3F8000007E00
3F0000007E00
7E0000003F00
7E0000001F00
7C0000001F80
FC0000001F80
FC0000000F80
F80000000F80
F80000000F80
F80000000F80
F80000000FC0
F80000000F80
F80000000F80
F80000000F80
FC0000000F80
FC0000001F80
7C0000001F80
7E0000001F00
7E0000003F00
3F0000007E00
3F8000007E00
1FC00000FC00
0FE00001FC00
0FF00007F800
07FC001FF000
03FF80FFE000
00FFFFFFC000
007FFFFF0000
001FFFFE0000
0007FFF00000
00007F000000
ENDCHAR
STARTCHAR 1ED4
ENCODING 7892
SWIDTH 810 0
DWIDTH 45 0
BBX 42 58 2 -1
BITMAP
0000000F0000
000000070000
000000070000
0000000F0000
0000000F0000
0000000E0000
0000001E0000
00003F1E0000
00007F1E0000
0000FF8E0000
0000F7C00000
0001E3E00000
0003E1E00000
0007C0F00000
000F80780000
000000000000
000000000000
00003E000000
0007FFF00000
001FFFFC0000
007FFFFF0000
00FFFFFFC000
03FF80FFE000
07FC001FF000
0FF00007F800
0FE00001FC00
1FC00000FC00
3F8000007E00
3F0000007E00
7E0000003F00
7E0000001F00
7C0000001F80
FC0000001F80
FC0000000F80
F80000000F80
F80000000F80
F80000000F80
F80000000FC0
F80000000F80
F80000000F80
F80000000F80
FC0000000F80
FC0000001F80
7C0000001F80
7E0000001F00
7E0000003F00
3F0000007E00
3F8000007E00
1FC00000FC00
0FE00001FC00
0FF00007F800
07FC001FF000
03FF80FFE000
00FFFFFFC000
007FFFFF0000
001FFFFE0000
0007FFF00000
00007F000000
ENDCHAR
STARTCHAR 1ED5
ENCODING 7893
SWIDTH 810 0
DWIDTH 45 0
BBX 42 58 2 -1
BITMAP
0000000F0000
000000070000
000000070000
0000000F0000
0000000F0000
0000000E0000
0000001E0000
00003F1E0000
00007F1E0000
0000FF8E0000
0000F7C00000
0001E3E00000
0003E1E00000
0007C0F00000
000F80780000
000000000000
000000000000
00003E000000
0007FFF00000
001FFFFC0000
007FFFFF0000
00FFFFFFC000
03FF80FFE000
07FC001FF000
0FF00007F800
0FE00001FC00
1FC00000FC00
3F8000007E00
3F0000007E00
7E0000003F00
7E0000001F00
7C0000001F80
FC0000001F80
FC0000000F80
F80000000F80
F80000000F80
F80000000F80
F80000000FC0
F80000000F80
F80000000F80
F80000000F80
FC0000000F80
FC0000001F80
7C0000001F80
7E0000001F00
7E0000003F00
3F0000007E00
3F8000007E00
1FC00000FC00
0FE00001FC00
0FF00007F800
07FC001FF000
03FF80FFE000
00FFFFFFC000
007FFFFF0000
001FFFFE0000
0007FFF00000
00007F000000
ENDCHAR
STARTCHAR 1ED6
ENCODING 7894
SWIDTH 810 0
DWIDTH 45 0
BBX 42 56 2 0
BITMAP
00000FF0C000
00000FFFC000
00000FFFC000
0000081F8000
000000000000
00003F000000
00007F000000
0000FF800000
0000F7C00000
0001E3E00000
0003E1E00000
0007C0F00000
000F80780000
000000000000
000000000000
00003E000000
0007FFF00000
001FFFFC0000
007FFFFF0000
00FFFFFFC000
03FF80FFE000
07FC001FF000
0FF00007F800
0FE00001FC00
1FC00000FC00
3F8000007E00
3F0000007E00
7E0000003F00
7E0000001F00
7C0000001F80
FC0000001F80
FC0000000F80
F80000000F80
F80000000F80
F80000000F80
F80000000FC0
F80000000F80
F80000000F80
F80000000F80
FC0000000F80
FC0000001F80
7C0000001F80
7E0000001F00
7E0000003F00
3F0000007E00
3F8000007E00
1FC00000FC00
0FE00001FC00
0FF00007F800
07FC001FF000
03FF80FFE000
00FFFFFFC000
007FFFFF0000
001FFFFE0000
0007FFF00000
00007F000000
ENDCHAR
STARTCHAR 1ED7
ENCODING 7895
SWIDTH 810 0
DWIDTH 45 0
BBX 42 56 2 0
BITMAP
00000FF0C000
00000FFFC000
00000FFFC000
0000081F8000
000000000000
00003F000000
00007F000000
0000FF800000
0000F7C00000
0001E3E00000
0003E1E00000
0007C0F00000
000F80780000
000000000000
000000000000
00003E000000
0007FFF00000
001FFFFC0000
007FFFFF0000
00FFFFFFC000
03FF80FFE000
07FC001FF000
0FF00007F800
0FE00001FC00
1FC00000FC00
3F8000007E00
3F0000007E00
7E0000003F00
7E0000001F00
7C0000001F80
FC0000001F80
FC0000000F80
F80000000F80
F80000000F80
F80000000F80
F80000000FC0
F80000000F80
F80000000F80
F80000000F80
FC0000000F80
FC0000001F80
7C0000001F80
7E0000001F00
7E0000003F00
3F0000007E00
3F8000007E00
1FC00000FC00
0FE00001FC00
0FF00007F800
07FC001FF000
03FF80FFE000
00FFFFFFC000
007FFFFF0000
001FFFFE0000
0007FFF00000
00007F000000
ENDCHAR
STARTCHAR 1ED8
ENCODING 7896
SWIDTH 810 0
DWIDTH 45 0
BBX 42 65 2 -15
BITMAP
00003F000000
00007F000000
0000FF800000
0000F7C00000
0001E3E00000
0003E1E00000
0007C0F00000
000F80780000
000000000000
000000000000
00003E000000
0007FFF00000
001FFFFC0000
007FFFFF0000
00FFFFFFC000
03FF80FFE000
07FC001FF000
0FF00007F800
0FE00001FC00
1FC00000FC00
3F8000007E00
3F0000007E00
7E0000003F00
7E0000001F00
7C0000001F80
FC0000001F80
FC0000000F80
F80000000F80
F80000000F80
F80000000F80
F80000000FC0
F80000000F80
F80000000F80
F80000000F80
FC0000000F80
FC0000001F80
7C0000001F80
7E0000001F00
7E0000003F00
3F0000007E00
3F8000007E00
1FC00000FC00
0FE00001FC00
0FF00007F800
07FC001FF000
03FF80FFE000
00FFFFFFC000
007FFFFF0000
001FFFFE0000
0007FFF00000
00007F000000
000000000000
000000000000
000000000000
000000000000
000000000000
000000000000
00003E000000
00007F000000
00007F800000
00007F800000
00007F800000
00007F000000
00007F000000
00001E000000
ENDCHAR
STARTCHAR 1ED9
ENCODING 7897
SWIDTH 810 0
DWIDTH 45 0
BBX 42 65 2 -15
BITMAP
00003F000000
00007F000000
0000FF800000
0000F7C00000
0001E3E00000
0003E1E00000
0007C0F00000
000F80780000
000000000000
000000000000
00003E000000
0007FFF00000
001FFFFC0000
007FFFFF0000
00FFFFFFC000
03FF80FFE000
07FC001FF000
0FF00007F800
0FE00001FC00
1FC00000FC00
3F8000007E00
3F0000007E00
7E0000003F00
7E0000001F00
7C0000001F80
FC0000001F80
FC0000000F80
F80000000F80
F80000000F80
F80000000F80
F80000000FC0
F80000000F80
F80000000F80
F80000000F80
FC0000000F80
FC0000001F80
7C0000001F80
7E0000001F00
7E0000003F00
3F0000007E00
3F8000007E00
1FC00000FC00
0FE00001FC00
0FF00007F800
07FC001FF000
03FF80FFE000
00FFFFFFC000
007FFFFF0000
001FFFFE0000
0007FFF00000
00007F000000
000000000000
000000000000
000000000000
000000000000
000000000000
000000000000
00003E000000
00007F000000
00007F800000
00007F800000
00007F800000
00007F000000
00007F000000
00001E000000
ENDCHAR
STARTCHAR 1EDA
ENCODING 7898
SWIDTH 810 0
DWIDTH 45 0
BBX 42 50 2 -1
BITMAP
000003C00000
000007800000
00000F000000
00000F000000
00001E000000
00001C007800
000038007800
000000007800
000000007800
00003E00F000
0007FFF3F000
001FFFFFE000
007FFFFF0000
00FFFFFFC000
03FF80FFE000
07FC001FF000
0FF00007F800
0FE00001FC00
1FC00000FC00
3F8000007E00
3F0000007E00
7E0000003F00
7E0000001F00
7C0000001F80
FC0000001F80
FC0000000F80
F80000000F80
F80000000F80
F80000000F80
F80000000FC0
F80000000F80
F80000000F80
F80000000F80
FC0000000F80
FC0000001F80
7C0000001F80
7E0000001F00
7E0000003F00
3F0000007E00
3F8000007E00
1FC00000FC00
0FE00001FC00
0FF00007F800
07FC001FF000
03FF80FFE000
00FFFFFFC000
007FFFFF0000
001FFFFE0000
0007FFF00000
00007F000000
ENDCHAR
STARTCHAR 1EDB
ENCODING 7899
SWIDTH 810 0
DWIDTH 45 0
BBX 42 50 2 -1
BITMAP
000003C00000
000007800000
00000F000000
00000F000000
00001E000000
00001C007800
000038007800
000000007800
000000007800
00003E00F000
0007FFF3F000
001FFFFFE000
007FFFFF0000
00FFFFFFC000
03FF80FFE000
07FC001FF000
0FF00007F800
0FE00001FC00
1FC00000FC00
3F8000007E00
3F0000007E00
7E0000003F00
7E0000001F00
7C0000001F80
FC0000001F80
FC0000000F80
F80000000F80
F80000000F80
F80000000F80
F80000000FC0
F80000000F80
F80000000F80
F80000000F80
FC0000000F80
FC0000001F80
7C0000001F80
7E0000001F00
7E0000003F00
3F0000007E00
3F8000007E00
1FC00000FC00
0FE00001FC00
0FF00007F800
07FC001FF000
03FF80FFE000
00FFFFFFC000
007FFFFF0000
001FFFFE0000
0007FFF00000
00007F000000
ENDCHAR
STARTCHAR 1EDC
ENCODING 7900
SWIDTH 810 0
DWIDTH 45 0
BBX 42 50 2 -1
BITMAP
0001F0000000
0000F0000000
000078000000
000038000000
00003C000000
00001E007800
00000E007800
000000007800
000000007800
00003E00F000
0007FFF3F000
001FFFFFE000
007FFFFF0000
00FFFFFFC000
03FF80FFE000
07FC001FF000
0FF00007F800
0FE00001FC00
1FC00000FC00
3F8000007E00
3F0000007E00
7E0000003F00
7E0000001F00
7C0000001F80
FC0000001F80
FC0000000F80
F80000000F80
F80000000F80
F80000000F80
F80000000FC0
F80000000F80
F80000000F80
F80000000F80
FC0000000F80
FC0000001F80
7C0000001F80
7E0000001F00
7E0000003F00
3F0000007E00
3F8000007E00
1FC00000FC00
0FE00001FC00
0FF00007F800
07FC001FF000
03FF80FFE000
00FFFFFFC000
007FFFFF0000
001FFFFE0000
0007FFF00000
00007F000000
ENDCHAR
STARTCHAR 1EDD
ENCODING 7901
SWIDTH 810 0
DWIDTH 45 0
BBX 42 50 2 -1
BITMAP
0001F0000000
0000F0000000
000078000000
000038000000
00003C000000
00001E007800
00000E007800
000000007800
000000007800
00003E00F000
0007FFF3F000
001FFFFFE000
007FFFFF0000
00FFFFFFC000
03FF80FFE000
07FC001FF000
0FF00007F800
0FE00001FC00
1FC00000FC00
3F8000007E00
3F0000007E00
7E0000003F00
7E0000001F00
7C0000001F80
FC0000001F80
FC0000000F80
F80000000F80
F80000000F80
F80000000F80
F80000000FC0
F80000000F80
F80000000F80
F80000000F80
FC0000000F80
FC0000001F80
7C0000001F80
7E0000001F00
7E0000003F00
3F0000007E00
3F8000007E00
1FC00000FC00
0FE00001FC00
0FF00007F800
07FC001FF000
03FF80FFE000
00FFFFFFC000
007FFFFF0000
001FFFFE0000
0007FFF00000
00007F000000
ENDCHAR
STARTCHAR 1EDE
ENCODING 7902
SWIDTH 810 0
DWIDTH 45 0
BBX 42 54 2 -1
BITMAP
00001C000000
00001E000000
00001E000000
00001E000000
00001E000000
00001C000000
00003C000000
00003C000000
00003C000000
00003C007800
00001C007800
000000007800
000000007800
00003E00F000
0007FFF3F000
001FFFFFE000
007FFFFF0000
00FFFFFFC000
03FF80FFE000
07FC001FF000
0FF00007F800
0FE00001FC00
1FC00000FC00
3F8000007E00
3F0000007E00
7E0000003F00
7E0000001F00
7C0000001F80
FC0000001F80
FC0000000F80
F80000000F80
F80000000F80
F80000000F80
F80000000FC0
F80000000F80
F80000000F80
F80000000F80
FC0000000F80
FC0000001F80
7C0000001F80
7E0000001F00
7E0000003F00
3F0000007E00
3F8000007E00
1FC00000FC00
0FE00001FC00
0FF00007F800
07FC001FF000
03FF80FFE000
00FFFFFFC000
007FFFFF0000
001FFFFE0000
0007FFF00000
00007F000000
ENDCHAR
STARTCHAR 1EDF
ENCODING 7903
SWIDTH 810 0
DWIDTH 45 0
BBX 42 54 2 -1
BITMAP
00001C000000
00001E000000
00001E000000
00001E000000
00001E000000
00001C000000
00003C000000
00003C000000
00003C000000
00003C007800
00001C007800
000000007800
000000007800
00003E00F000
0007FFF3F000
001FFFFFE000
007FFFFF0000
00FFFFFFC000
03FF80FFE000
07FC001FF000
0FF00007F800
0FE00001FC00
1FC00000FC00
3F8000007E00
3F0000007E00
7E0000003F00
7E0000001F00
7C0000001F80
FC0000001F80
FC0000000F80
F80000000F80
F80000000F80
F80000000F80
F80000000FC0
F80000000F80
F80000000F80
F80000000F80
FC0000000F80
FC0000001F80
7C0000001F80
7E0000001F00
7E0000003F00
3F0000007E00
3F8000007E00
1FC00000FC00
0FE00001FC00
0FF00007F800
07FC001FF000
03FF80FFE000
00FFFFFFC000
007FFFFF0000
001FFFFE0000
0007FFF00000
00007F000000
ENDCHAR
STARTCHAR 1EE0
ENCODING 7904
SWIDTH 810 0
DWIDTH 45 0
BBX 42 50 2 -1
BITMAP
0003F0200000
0007FFE00000
0007FFE00000
00063FE00000
000003000000
000000007800
000000007800
000000007800
000000007800
00003E00F000
0007FFF3F000
001FFFFFE000
007FFFFF0000
00FFFFFFC000
03FF80FFE000
07FC001FF000
0FF00007F800
0FE00001FC00
1FC00000FC00
3F8000007E00
3F0000007E00
7E0000003F00
7E0000001F00
7C0000001F80
FC0000001F80
FC0000000F80
F80000000F80
F80000000F80
F80000000F80
F80000000FC0
F80000000F80
F80000000F80
F80000000F80
FC0000000F80
FC0000001F80
7C0000001F80
7E0000001F00
7E0000003F00
3F0000007E00
3F8000007E00
1FC00000FC00
0FE00001FC00
0FF00007F800
07FC001FF000
03FF80FFE000
00FFFFFFC000
007FFFFF0000
001FFFFE0000
0007FFF00000
00007F000000
ENDCHAR
STARTCHAR 1EE1
ENCODING 7905
SWIDTH 810 0
DWIDTH 45 0
BBX 42 50 2 -1
BITMAP
0003F0200000
0007FFE00000
0007FFE00000
00063FE00000
000003000000
000000007800
000000007800
000000007800
000000007800
00003E00F000
0007FFF3F000
001FFFFFE000
007FFFFF0000
00FFFFFFC000
03FF80FFE000
07FC001FF000
0FF00007F800
0FE00001FC00
1FC00000FC00
3F8000007E00
3F0000007E00
7E0000003F00
7E0000001F00
7C0000001F80
FC0000001F80
FC0000000F80
F80000000F80
F80000000F80
F80000000F80
F80000000FC0
F80000000F80
F80000000F80
F80000000F80
FC0000000F80
FC0000001F80
7C0000001F80
7E0000001F00
7E0000003F00
3F0000007E00
3F8000007E00
1FC00000FC00
0FE00001FC00
0FF00007F800
07FC001FF000
03FF80FFE000
00FFFFFFC000
007FFFFF0000
001FFFFE0000
0007FFF00000
00007F000000
ENDCHAR
STARTCHAR 1EE2
ENCODING 7906
SWIDTH 810 0
DWIDTH 45 0
BBX 42 59 2 -15
BITMAP
000000007800
000000007800
000000007800
000000007800
00003E00F000
0007FFF3F000
001FFFFFE000
007FFFFF0000
00FFFFFFC000
03FF80FFE000
07FC001FF000
0FF00007F800
0FE00001FC00
1FC00000FC00
3F8000007E00
3F0000007E00
7E0000003F00
7E0000001F00
7C0000001F80
FC0000001F80
FC0000000F80
F80000000F80
F80000000F80
F80000000F80
F80000000FC0
F80000000F80
F80000000F80
F80000000F80
FC0000000F80
FC0000001F80
7C0000001F80
7E0000001F00
7E0000003F00
3F0000007E00
3F8000007E00
1FC00000FC00
0FE00001FC00
0FF00007F800
07FC001FF000
03FF80FFE000
00FFFFFFC000
007FFFFF0000
001FFFFE0000
0007FFF00000
00007F000000
000000000000
000000000000
000000000000
000000000000
000000000000
000000000000
00003E000000
00007F000000
00007F800000
00007F800000
00007F800000
00007F000000
00007F000000
00001E000000
ENDCHAR
STARTCHAR 1EE3
ENCODING 7907
SWIDTH 810 0
DWIDTH 45 0
BBX 42 59 2 -15
BITMAP
000000007800
000000007800
000000007800
000000007800
00003E00F000
0007FFF3F000
001FFFFFE000
007FFFFF0000
00FFFFFFC000
03FF80FFE000
07FC001FF000
0FF00007F800
0FE00001FC00
1FC00000FC00
3F8000007E00
3F0000007E00
7E0000003F00
7E0000001F00
7C0000001F80
FC0000001F80
FC0000000F80
F80000000F80
F80000000F80
F80000000F80
F80000000FC0
F80000000F80
F80000000F80
F80000000F80
FC0000000F80
FC0000001F80
7C0000001F80
7E0000001F00
7E0000003F00
3F0000007E00
3F8000007E00
1FC00000FC00
0FE00001FC00
0FF00007F800
07FC001FF000
03FF80FFE000
00FFFFFFC000
007FFFFF0000
001FFFFE0000
0007FFF00000
00007F000000
000000000000
000000000000
000000000000
000000000000
000000000000
000000000000
00003E000000
00007F000000
00007F800000
00007F800000
00007F800000
00007F000000
00007F000000
00001E000000
ENDCHAR
STARTCHAR 1EE4
ENCODING 7908
SWIDTH 504 0
DWIDTH 28 0
BBX 24 54 2 -15
BITMAP
FC001F
FC001F
FC001F
FC001F
FC001F
FC001F
FC001F
FC001F
FC001F
FC001F
FC001F
FC001F
FC001F
FC001F
FC001F
FC001F
FC001F
FC001F
FC001F
FC001F
FC001F
FC001F
FC001F
FC001F
FC001F
FC001F
FC001F
FC001F
FC003F
7C003F
7C003E
7E003E
7E007E
3F00FC
3FC3FC
1FFFF8
0FFFF0
07FFE0
01FFC0
007E00
000000
000000
000000
000000
000000
000000
003C00
007F00
00FF00
00FF00
00FF00
00FF00
007E00
003C00
ENDCHAR
STARTCHAR 1EE5
ENCODING 7909
SWIDTH 504 0
DWIDTH 28 0
BBX 24 54 2 -15
BITMAP
FC001F
FC001F
FC001F
FC001F
FC001F
FC001F
FC001F
FC001F
FC001F
FC001F
FC001F
FC001F
FC001F
FC001F
FC001F
FC001F
FC001F
FC001F
FC001F
FC001F
FC001F
FC001F
FC001F
FC001F
FC001F
FC001F
FC001F
FC001F
FC003F
7C003F
7C003E
7E003E
7E007E
3F00FC
3FC3FC
1FFFF8
0FFFF0
07FFE0
01FFC0
007E00
000000
000000
000000
000000
000000
000000
003C00
007F00
00FF00
00FF00
00FF00
00FF00
007E00
003C00
ENDCHAR
STARTCHAR 1EE6
ENCODING 7910
SWIDTH 504 0
DWIDTH 28 0
BBX 24 54 2 -1
BITMAP
003C00
001C00
001C00
001C00
001C00
003C00
003800
003800
003800
003800
003C00
000000
000000
000000
FC001F
FC001F
FC001F
FC001F
FC001F
FC001F
FC001F
FC001F
FC001F
FC001F
FC001F
FC001F
FC001F
FC001F
FC001F
FC001F
FC001F
FC001F
FC001F
FC001F
FC001F
FC001F
FC001F
FC001F
FC001F
FC001F
FC001F
FC001F
FC003F
7C003F
7C003E
7E003E
7E007E
3F00FC
3FC3FC
1FFFF8
0FFFF0
07FFE0
01FFC0
007E00
ENDCHAR
STARTCHAR 1EE7
ENCODING 7911
SWIDTH 504 0
DWIDTH 28 0
BBX 24 54 2 -1
BITMAP
003C00
001C00
001C00
001C00
001C00
003C00
003800
003800
003800
003800
003C00
000000
000000
000000
FC001F
FC001F
FC001F
FC001F
FC001F
FC001F
FC001F
FC001F
FC001F
FC001F
FC001F
FC001F
FC001F
FC001F
FC001F
FC001F
FC001F
FC001F
FC001F
FC001F
FC001F
FC001F
FC001F
FC001F
FC001F
FC001F
FC001F
FC001F
FC003F
7C003F
7C003E
7E003E
7E007E
3F00FC
3FC3FC
1FFFF8
0FFFF0
07FFE0
01FFC0
007E00
ENDCHAR
STARTCHAR 1EE8
ENCODING 7912
SWIDTH 504 0
DWIDTH 28 0
BBX 28 50 2 -1
BITMAP
0007C000
00078000
000F0000
001E0000
001C0000
003C00F0
003800F0
000000F0
000000F0
000001E0
FC001FE0
FC001F80
FC001F00
FC001F00
FC001F00
FC001F00
FC001F00
FC001F00
FC001F00
FC001F00
FC001F00
FC001F00
FC001F00
FC001F00
FC001F00
FC001F00
FC001F00
FC001F00
FC001F00
FC001F00
FC001F00
FC001F00
FC001F00
FC001F00
FC001F00
FC001F00
FC001F00
FC001F00
FC003F00
7C003F00
7C003E00
7E003E00
7E007E00
3F00FC00
3FC3FC00
1FFFF800
0FFFF000
07FFE000
01FFC000
007E0000
ENDCHAR
STARTCHAR 1EE9
ENCODING 7913
SWIDTH 504 0
DWIDTH 28 0
BBX 28 50 2 -1
BITMAP
0007C000
00078000
000F0000
001E0000
001C0000
003C00F0
003800F0
000000F0
000000F0
000001E0
FC001FE0
FC001F80
FC001F00
FC001F00
FC001F00
FC001F00
FC001F00
FC001F00
FC001F00
FC001F00
FC001F00
FC001F00
FC001F00
FC001F00
FC001F00
FC001F00
FC001F00
FC001F00
FC001F00
FC001F00
FC001F00
FC001F00
FC001F00
FC001F00
FC001F00
FC001F00
FC001F00
FC001F00
FC003F00
7C003F00
7C003E00
7E003E00
7E007E00
3F00FC00
3FC3FC00
1FFFF800
0FFFF000
07FFE000
01FFC000
007E0000
ENDCHAR
STARTCHAR 1EEA
ENCODING 7914
SWIDTH 504 0
DWIDTH 28 0
BBX 28 50 2 -1
BITMAP
01E00000
00F00000
00F00000
00780000
00380000
001C00F0
001E00F0
000000F0
000000F0
000001E0
FC001FE0
FC001F80
FC001F00
FC001F00
FC001F00
FC001F00
FC001F00
FC001F00
FC001F00
FC001F00
FC001F00
FC001F00
FC001F00
FC001F00
FC001F00
FC001F00
FC001F00
FC001F00
FC001F00
FC001F00
FC001F00
FC001F00
FC001F00
FC001F00
FC001F00
FC001F00
FC001F00
FC001F00
FC003F00
7C003F00
7C003E00
7E003E00
7E007E00
3F00FC00
3FC3FC00
1FFFF800
0FFFF000
07FFE000
01FFC000
007E0000
ENDCHAR
STARTCHAR 1EEB
ENCODING 7915
SWIDTH 504 0
DWIDTH 28 0
BBX 28 50 2 -1
BITMAP
01E00000
00F00000
00F00000
00780000
00380000
001C00F0
001E00F0
000000F0
000000F0
000001E0
FC001FE0
FC001F80
FC001F00
FC001F00
FC001F00
FC001F00
FC001F00
FC001F00
FC001F00
FC001F00
FC001F00
FC001F00
FC001F00
FC001F00
FC001F00
FC001F00
FC001F00
FC001F00
FC001F00
FC001F00
FC001F00
FC001F00
FC001F00
FC001F00
FC001F00
FC001F00
FC001F00
FC001F00
FC003F00
7C003F00
7C003E00
7E003E00
7E007E00
3F00FC00
3FC3FC00
1FFFF800
0FFFF000
07FFE000
01FFC000
007E0000
ENDCHAR
STARTCHAR 1EEC
ENCODING 7916
SWIDTH 504 0
DWIDTH 28 0
BBX 28 54 2 -1
BITMAP
003C0000
001C0000
001C0000
001C0000
001C0000
003C0000
00380000
00380000
00380000
003800F0
003C00F0
000000F0
000000F0
000001E0
FC001FE0
FC001F80
FC001F00
FC001F00
FC001F00
FC001F00
FC001F00
FC001F00
FC001F00
FC001F00
FC001F00
FC001F00
FC001F00
FC001F00
FC001F00
FC001F00
FC001F00
FC001F00
FC001F00
FC001F00
FC001F00
FC001F00
FC001F00
FC001F00
FC001F00
FC001F00
FC001F00
FC001F00
FC003F00
7C003F00
7C003E00
7E003E00
7E007E00
3F00FC00
3FC3FC00
1FFFF800
0FFFF000
07FFE000
01FFC000
007E0000
ENDCHAR
STARTCHAR 1EED
ENCODING 7917
SWIDTH 504 0
DWIDTH 28 0
BBX 28 54 2 -1
BITMAP
003C0000
001C0000
001C0000
001C0000
001C0000
003C0000
00380000
00380000
00380000
003800F0
003C00F0
000000F0
000000F0
000001E0
FC001FE0
FC001F80
FC001F00
FC001F00
FC001F00
FC001F00
FC001F00
FC001F00
FC001F00
FC001F00
FC001F00
FC001F00
FC001F00
FC001F00
FC001F00
FC001F00
FC001F00
FC001F00
FC001F00
FC001F00
FC001F00
FC001F00
FC001F00
FC001F00
FC001F00
FC001F00
FC001F00
FC001F00
FC003F00
7C003F00
7C003E00
7E003E00
7E007E00
3F00FC00
3FC3FC00
1FFFF800
0FFFF000
07FFE000
01FFC000
007E0000
ENDCHAR
STARTCHAR 1EEE
ENCODING 7918
SWIDTH 504 0
DWIDTH 28 0
BBX 28 50 2 -1
BITMAP
07E00000
07FFC000
07FFC000
043FC000
00020000
000000F0
000000F0
000000F0
000000F0
000001E0
FC001FE0
FC001F80
FC001F00
FC001F00
FC001F00
FC001F00
FC001F00
FC001F00
FC001F00
FC001F00
FC001F00
FC001F00
FC001F00
FC001F00
FC001F00
FC001F00
FC001F00
FC001F00
FC001F00
FC001F00
FC001F00
FC001F00
FC001F00
FC001F00
FC001F00
FC001F00
FC001F00
FC001F00
FC003F00
7C003F00
7C003E00
7E003E00
7E007E00
3F00FC00
3FC3FC00
1FFFF800
0FFFF000
07FFE000
01FFC000
007E0000
ENDCHAR
STARTCHAR 1EEF
ENCODING 7919
SWIDTH 504 0
DWIDTH 28 0
BBX 28 50 2 -1
BITMAP
07E00000
07FFC000
07FFC000
043FC000
00020000
000000F0
000000F0
000000F0
000000F0
000001E0
FC001FE0
FC001F80
FC001F00
FC001F00
FC001F00
FC001F00
FC001F00
FC001F00
FC001F00
FC001F00
FC001F00
FC001F00
FC001F00
FC001F00
FC001F00
FC001F00
FC001F00
FC001F00
FC001F00
FC001F00
FC001F00
FC001F00
FC001F00
FC001F00
FC001F00
FC001F00
FC001F00
FC001F00
FC003F00
7C003F00
7C003E00
7E003E00
7E007E00
3F00FC00
3FC3FC00
1FFFF800
0FFFF000
07FFE000
01FFC000
007E0000
ENDCHAR
STARTCHAR 1EF0
ENCODING 7920
SWIDTH 504 0
DWIDTH 28 0
BBX 28 59 2 -15
BITMAP
000000F0
000000F0
000000F0
000000F0
000001E0
FC001FE0
FC001F80
FC001F00
FC001F00
FC001F00
FC001F00
FC001F00
FC001F00
FC001F00
FC001F00
FC001F00
FC001F00
FC001F00
FC001F00
FC001F00
FC001F00
FC001F00
FC001F00
FC001F00
FC001F00
FC001F00
FC001F00
FC001F00
FC001F00
FC001F00
FC001F00
FC001F00
FC001F00
FC003F00
7C003F00
7C003E00
7E003E00
7E007E00
3F00FC00
3FC3FC00
1FFFF800
0FFFF000
07FFE000
01FFC000
007E0000
00000000
00000000
00000000
00000000
00000000
00000000
003C0000
007F0000
00FF0000
00FF0000
00FF0000
00FF0000
007E0000
003C0000
ENDCHAR
STARTCHAR 1EF1
ENCODING 7921
SWIDTH 504 0
DWIDTH 28 0
BBX 28 59 2 -15
BITMAP
000000F0
000000F0
000000F0
000000F0
000001E0
FC001FE0
FC001F80
FC001F00
FC001F00
FC001F00
FC001F00
FC001F00
FC001F00
FC001F00
FC001F00
FC001F00
FC001F00
FC001F00
FC001F00
FC001F00
FC001F00
FC001F00
FC001F00
FC001F00
FC001F00
FC001F00
FC001F00
FC001F00
FC001F00
FC001F00
FC001F00
FC001F00
FC001F00
FC003F00
7C003F00
7C003E00
7E003E00
7E007E00
3F00FC00
3FC3FC00
1FFFF800
0FFFF000
07FFE000
01FFC000
007E0000
00000000
00000000
00000000
00000000
00000000
00000000
003C0000
007F0000
00FF0000
00FF0000
00FF0000
00FF0000
007E0000
003C0000
ENDCHAR
STARTCHAR 1EF2
ENCODING 7922
SWIDTH 486 0
DWIDTH 27 0
BBX 24 49 2 0
BITMAP
03E000
01E000
00F000
007800
007800
003C00
001C00
000000
000000
000000
F8003F
F8003F
F8003F
F8003F
F8003F
F8003F
F8003F
F8003F
F8003F
F8003F
F8003F
F8003F
F8003F
F8003F
F8003F
F8003F
F8003F
F8003F
FC003F
FC003E
FC003E
7C007E
7E007E
7F00FC
3F83FC
1FFFF8
0FFFF0
07FFE0
03FFC0
007E00
007E00
007E00
007E00
007E00
007E00
007E00
007E00
007E00
007E00
ENDCHAR
STARTCHAR 1EF3
ENCODING 7923
SWIDTH 486 0
DWIDTH 27 0
BBX 24 49 2 0
BITMAP
03E000
01E000
00F000
007800
007800
003C00
001C00
000000
000000
000000
F8003F
F8003F
F8003F
F8003F
F8003F
F8003F
F8003F
F8003F
F8003F
F8003F
F8003F
F8003F
F8003F
F8003F
F8003F
F8003F
F8003F
F8003F
FC003F
FC003E
FC003E
7C007E
7E007E
7F00FC
3F83FC
1FFFF8
0FFFF0
07FFE0
03FFC0
007E00
007E00
007E00
007E00
007E00
007E00
007E00
007E00
007E00
007E00
ENDCHAR
STARTCHAR 1EF4
ENCODING 7924
SWIDTH 486 0
DWIDTH 27 0
BBX 24 54 2 -15
BITMAP
F8003F
F8003F
F8003F
F8003F
F8003F
F8003F
F8003F
F8003F
F8003F
F8003F
F8003F
F8003F
F8003F
F8003F
F8003F
F8003F
F8003F
F8003F
FC003F
FC003E
FC003E
7C007E
7E007E
7F00FC
3F83FC
1FFFF8
0FFFF0
07FFE0
03FFC0
007E00
007E00
007E00
007E00
007E00
007E00
007E00
007E00
007E00
007E00
000000
000000
000000
000000
000000
000000
000000
003C00
007E00
00FF00
00FF00
00FF00
00FF00
007E00
003C00
ENDCHAR
STARTCHAR 1EF5
ENCODING 7925
SWIDTH 486 0
DWIDTH 27 0
BBX 24 54 2 -15
BITMAP
F8003F
F8003F
F8003F
F8003F
F8003F
F8003F
F8003F
F8003F
F8003F
F8003F
F8003F
F8003F
F8003F
F8003F
F8003F
F8003F
F8003F
F8003F
FC003F
FC003E
FC003E
7C007E
7E007E
7F00FC
3F83FC
1FFFF8
0FFFF0
07FFE0
03FFC0
007E00
007E00
007E00
007E00
007E00
007E00
007E00
007E00
007E00
007E00
000000
000000
000000
000000
000000
000000
000000
003C00
007E00
00FF00
00FF00
00FF00
00FF00
007E00
003C00
ENDCHAR
STARTCHAR 1EF6
ENCODING 7926
SWIDTH 486 0
DWIDTH 27 0
BBX 24 53 2 0
BITMAP
003C00
001C00
001C00
001C00
003C00
003800
003800
007800
007800
003800
003800
000000
000000
000000
F8003F
F8003F
F8003F
F8003F
F8003F
F8003F
F8003F
F8003F
F8003F
F8003F
F8003F
F8003F
F8003F
F8003F
F8003F
F8003F
F8003F
F8003F
FC003F
FC003E
FC003E
7C007E
7E007E
7F00FC
3F83FC
1FFFF8
0FFFF0
07FFE0
03FFC0
007E00
007E00
007E00
007E00
007E00
007E00
007E00
007E00
007E00
007E00
ENDCHAR
STARTCHAR 1EF7
ENCODING 7927
SWIDTH 486 0
DWIDTH 27 0
BBX 24 53 2 0
BITMAP
003C00
001C00
001C00
001C00
003C00
003800
003800
007800
007800
003800
003800
000000
000000
000000
F8003F
F8003F
F8003F
F8003F
F8003F
F8003F
F8003F
F8003F
F8003F
F8003F
F8003F
F8003F
F8003F
F8003F
F8003F
F8003F
F8003F
F8003F
FC003F
FC003E
FC003E
7C007E
7E007E
7F00FC
3F83FC
1FFFF8
0FFFF0
07FFE0
03FFC0
007E00
007E00
007E00
007E00
007E00
007E00
007E00
007E00
007E00
007E00
ENDCHAR
STARTCHAR 1EF8
ENCODING 7928
SWIDTH 486 0
DWIDTH 27 0
BBX 24 49 2 0
BITMAP
07E000
0FFFC0
0FFFC0
0C3FC0
000600
000000
000000
000000
000000
000000
F8003F
F8003F
F8003F
F8003F
F8003F
F8003F
F8003F
F8003F
F8003F
F8003F
F8003F
F8003F
F8003F
F8003F
F8003F
F8003F
F8003F
F8003F
FC003F
FC003E
FC003E
7C007E
7E007E
7F00FC
3F83FC
1FFFF8
0FFFF0
07FFE0
03FFC0
007E00
007E00
007E00
007E00
007E00
007E00
007E00
007E00
007E00
007E00
ENDCHAR
STARTCHAR 1EF9
ENCODING 7929
SWIDTH 486 0
DWIDTH 27 0
BBX 24 49 2 0
BITMAP
07E000
0FFFC0
0FFFC0
0C3FC0
000600
000000
000000
000000
000000
000000
F8003F
F8003F
F8003F
F8003F
F8003F
F8003F
F8003F
F8003F
F8003F
F8003F
F8003F
F8003F
F8003F
F8003F
F8003F
F8003F
F8003F
F8003F
FC003F
FC003E
FC003E
7C007E
7E007E
7F00FC
3F83FC
1FFFF8
0FFFF0
07FFE0
03FFC0
007E00
007E00
007E00
007E00
007E00
007E00
007E00
007E00
007E00
007E00
ENDCHAR
STARTCHAR 2013
ENCODING 8211
SWIDTH 576 0
DWIDTH 32 0
BBX 26 4 3 13
BITMAP
FFFFFFC0
FFFFFFC0
FFFFFFC0
FFFFFFC0
ENDCHAR
STARTCHAR 2014
ENCODING 8212
SWIDTH 792 0
DWIDTH 44 0
BBX 39 4 3 13
BITMAP
FFFFFFFFFE
FFFFFFFFFE
FFFFFFFFFE
FFFFFFFFFE
ENDCHAR
STARTCHAR 2018
ENCODING 8216
SWIDTH 234 0
DWIDTH 13 0
BBX 7 11 3 28
BITMAP
0E
1E
1E
1C
3C
3C
3C
7C
78
F8
F8
ENDCHAR
STARTCHAR 2019
ENCODING 8217
SWIDTH 234 0
DWIDTH 13 0
BBX 7 11 3 28
BITMAP
3E
3E
3C
7C
7C
78
78
70
F0
F0
E0
ENDCHAR
STARTCHAR 201A
ENCODING 8218
SWIDTH 234 0
DWIDTH 13 0
BBX 7 11 3 -7
BITMAP
3E
3E
3C
7C
78
78
78
70
F0
F0
E0
ENDCHAR
STARTCHAR 201C
ENCODING 8220
SWIDTH 396 0
DWIDTH 22 0
BBX 17 11 3 28
BITMAP
0E0780
0E0700
1E0700
1E0F00
1E0F00
3C1F00
3C1E00
3C1E00
7C3E00
7C3E00
F83E00
ENDCHAR
STARTCHAR 201D
ENCODING 8221
SWIDTH 396 0
DWIDTH 22 0
BBX 16 11 3 28
BITMAP
3E1F
3E1F
3C1E
7C1E
7C3E
783C
783C
703C
F038
F078
E070
ENDCHAR
STARTCHAR 201E
ENCODING 8222
SWIDTH 414 0
DWIDTH 23 0
BBX 17 11 3 -7
BITMAP
3E0F80
3E0F80
3C0F00
7C0F00
781F00
781E00
781E00
701E00
F01C00
F03C00
E03800
ENDCHAR
STARTCHAR 2020
ENCODING 8224
SWIDTH 414 0
DWIDTH 23 0
BBX 17 27 3 13
BITMAP
01E000
01E000
01E000
01E000
01E000
01E000
FFFF80
FFFF80
FFFF80
FFFF80
01E000
01E000
01E000
01E000
01E000
01E000
01E000
01E000
01E000
01E000
01E000
01E000
01E000
01E000
01E000
01E000
01E000
ENDCHAR
STARTCHAR 2021
ENCODING 8225
SWIDTH 414 0
DWIDTH 23 0
BBX 17 27 3 13
BITMAP
01E000
01E000
01E000
01E000
01E000
01E000
FFFF80
FFFF80
FFFF80
FFFF80
01E000
01E000
01E000
01E000
01E000
01E000
01E000
FFFF80
FFFF80
FFFF80
FFFF80
01E000
01E000
01E000
01E000
01E000
01E000
ENDCHAR
STARTCHAR 2022
ENCODING 8226
SWIDTH 306 0
DWIDTH 17 0
BBX 12 11 3 9
BITMAP
1F80
3FC0
7FE0
FFE0
FFF0
FFF0
FFF0
FFE0
7FE0
7FC0
1F80
ENDCHAR
STARTCHAR 2026
ENCODING 8230
SWIDTH 666 0
DWIDTH 37 0
BBX 32 8 3 -1
BITMAP
7E07C07C
7F0FE0FE
FF0FF1FE
FF0FF1FF
FF0FF1FE
FF0FE0FE
7E07E0FC
18018010
ENDCHAR
STARTCHAR 2030
ENCODING 8240
SWIDTH 1278 0
DWIDTH 71 0
BBX 65 41 3 -1
BITMAP
00E000000000000000
07FC0000F800000000
1FFF0000F000000000
3FFF8001E000000000
3F3FC003E000000000
7C07C003C000000000
7803E0078000000000
F803E00F8000000000
F801E00F0000000000
F001E01E0000000000
F001E03E0000000000
F801E07C0000000000
F803E0780000000000
7C07C0F00000000000
7E0FC1F00000000000
3FFF81E00000000000
1FFF03C00000000000
0FFE07C00000000000
03F807800000000000
00000F000000000000
00001F000000000000
00003E000000000000
00003C07F8000FE000
0000781FFE003FF800
0000F83FFF007FFE00
0000F07FFF80FFFE00
0001E07C0F81F83F00
0003E0F807C1F00F80
0003C0F803C3E00F80
000780F003E3E00780
000F81F003E3E00780
001F01F003E3E00780
001E00F003E3E00780
003C00F003C3E00F80
007C00F807C1F00F80
007800FC0FC1F81F00
00F0007FBF80FEFF00
01F0003FFF007FFE00
01E0001FFE003FFC00
03C0000FFC001FF000
00000000E000030000
ENDCHAR
STARTCHAR 2039
ENCODING 8249
SWIDTH 360 0
DWIDTH 20 0
BBX 14 24 3 5
BITMAP
007C
00F8
01F0
03E0
03E0
07C0
0F80
1F00
1F00
3E00
7C00
F800
FC00
7C00
3E00
1F00
1F80
0F80
07C0
03E0
03F0
01F0
00F8
007C
ENDCHAR
STARTCHAR 203A
ENCODING 8250
SWIDTH 360 0
DWIDTH 20 0
BBX 14 24 3 5
BITMAP
FC00
7C00
3E00
1F00
1F80
0F80
07C0
03E0
01F0
01F0
00F8
007C
007C
00F8
01F0
01F0
03E0
07C0
0F80
0F80
1F00
3E00
7C00
7C00
ENDCHAR
STARTCHAR 2044
ENCODING 8260
SWIDTH 666 0
DWIDTH 37 0
BBX 31 39 3 0
BITMAP
0000001E
0000003C
0000007C
00000078
000000F0
000001F0
000001E0
000003C0
000007C0
00000F80
00000F00
00001E00
00003E00
00003C00
00007800
0000F800
0000F000
0001E000
0003E000
0007C000
00078000
000F0000
001F0000
001E0000
003C0000
007C0000
00780000
00F00000
01F00000
03E00000
03C00000
07800000
0F800000
0F000000
1E000000
3E000000
3C000000
78000000
F8000000
ENDCHAR
STARTCHAR 20AC
ENCODING 8364
SWIDTH 648 0
DWIDTH 36 0
BBX 30 40 3 0
BITMAP
00001FFC
0000FFFC
0003FFFC
0007FFFC
001FFFFC
003FF000
007F8000
007F0000
00FE0000
01FC0000
01F80000
03F00000
03F00000
03E00000
FFFFFF80
FFFFFF80
FFFFFF80
FFFFFF80
07C00000
07C00000
07C00000
FFFFFF80
FFFFFF80
FFFFFF80
FFFFFF80
03E00000
03F00000
03F00000
01F80000
01FC0000
00FE0000
007F0000
007F8000
003FE000
001FFFFC
0007FFFC
0003FFFC
0000FFFC
00003FFC
000000E0
ENDCHAR
STARTCHAR 2122
ENCODING 8482
SWIDTH 792 0
DWIDTH 44 0
BBX 39 22 3 18
BITMAP
FFFC004000
FFFF00603E
FFFF80783E
FFFFE07C3E
0783F07F3E
0781FC7FBE
0781FE7FFE
0781FFFBFE
0781EFF9FE
0781E7F87E
0781E1F83E
0781E0F83E
0781E0783E
0781E0783E
0781E0783E
0781E0783E
0781E0783E
0781E0783E
0781E0783E
0781E0783E
0781E0783E
0781E0783E
ENDCHAR
STARTCHAR 2190
ENCODING 8592
SWIDTH 810 0
DWIDTH 45 0
BBX 40 26 3 7
BITMAP
000C000000
001E000000
003F000000
007E000000
00FC000000
01F8000000
03F0000000
07E0000000
0FC0000000
1F80000000
3F00000000
7FFFFFFFFF
FFFFFFFFFF
FFFFFFFFFF
7FFFFFFFFF
3F00000000
1F80000000
0FC0000000
07E0000000
03F0000000
01F8000000
00FC000000
007E000000
003F000000
001E000000
000C000000
ENDCHAR
STARTCHAR 2191
ENCODING 8593
SWIDTH 576 0
DWIDTH 32 0
BBX 26 40 3 0
BITMAP
00040000
000E0000
001F0000
003F8000
007FC000
00FFE000
01FFF000
03FFF800
07DEFC00
0F9E7E00
1F1E3F00
3E1E1F80
7C1E0FC0
F81E07C0
701E0380
201E0100
001E0000
001F0000
001F0000
001F0000
001F0000
001F0000
001F0000
001F0000
001F0000
001F0000
001F0000
001F0000
001F0000
001F0000
001F0000
001F0000
001F0000
001F0000
001F0000
001F0000
001F0000
001F0000
001F0000
001F0000
ENDCHAR
STARTCHAR 2192
ENCODING 8594
SWIDTH 810 0
DWIDTH 45 0
BBX 39 26 3 7
BITMAP
0000002000
0000007000
000000F800
0000007C00
0000003E00
0000001F00
0000000FC0
00000007E0
00000003F0
00000001F8
00000000FC
FFFFFFFFFE
FFFFFFFFFE
FFFFFFFFFE
FFFFFFFFFC
00000000F8
00000001F0
00000003E0
00000007C0
0000000F80
0000001F00
0000003E00
0000007C00
000000F800
0000007000
0000002000
ENDCHAR
STARTCHAR 2193
ENCODING 8595
SWIDTH 576 0
DWIDTH 32 0
BBX 26 40 3 -1
BITMAP
001F0000
001F0000
001F0000
001F0000
001F0000
001F0000
001F0000
001F0000
001F0000
001F0000
001F0000
001F0000
001F0000
001F0000
001F0000
001F0000
001F0000
001F0000
001F0000
001E0000
001E0000
001E0000
001E0000
001E0000
201E0100
701E0380
F81E07C0
7C1E0FC0
3E1E1F80
1F1E3F00
0F9E7E00
07DEFC00
03FFF800
01FFF000
00FFE000
007FC000
003F8000
001F0000
000E0000
00040000
ENDCHAR
STARTCHAR 2194
ENCODING 8596
SWIDTH 882 0
DWIDTH 49 0
BBX 43 26 3 7
BITMAP
000C00020000
001E00070000
003F000F8000
007E0007C000
00FC0003E000
01F80001F000
03F00000F800
07E000007C00
0FC000003E00
1F8000001F00
3F0000000F80
7FFFFFFFFFC0
FFFFFFFFFFE0
FFFFFFFFFFE0
7FFFFFFFFFC0
3F0000000F80
1F8000001F00
0FC000003E00
07E000007C00
03F00000F800
01F80001F000
00FC0003E000
007E0007C000
003F000F8000
001E00070000
000C00020000
ENDCHAR
STARTCHAR 2195
ENCODING 8597
SWIDTH 612 0
DWIDTH 34 0
BBX 28 41 3 -1
BITMAP
00020000
00070000
001F8000
003FE000
007FF000
00FFF800
01FFFC00
07FFFF00
0FCFBF80
1F8F8FC0
3F0F87E0
FE0F83F0
FC0F81F0
700F80F0
200F8020
000F8000
000F8000
000F8000
000F8000
000F8000
000F8000
000F8000
000F8000
000F8000
000F8000
000F8000
200F8020
700F80F0
FC0F81F0
FE0F83F0
3F0F87E0
1F8F8FC0
0FCFBF80
07FFFF00
03FFFC00
00FFF800
007FF000
003FE000
001FC000
000F0000
00020000
ENDCHAR
STARTCHAR 2196
ENCODING 8598
SWIDTH 630 0
DWIDTH 35 0
BBX 30 30 3 4
BITMAP
FFFFE000
FFFFE000
FFFFE000
FFFFE000
FF000000
FF800000
FFC00000
F7E00000
F3F00000
F1F80000
F0FC0000
F07E0000
F07F0000
F03F8000
F01FC000
F00FE000
F007F000
F003F800
F001FC00
0000FE00
00007F00
00003F80
00001FC0
00000FE0
000007F0
000003F8
000001FC
000000F8
00000070
00000020
ENDCHAR
STARTCHAR 2197
ENCODING 8599
SWIDTH 630 0
DWIDTH 35 0
BBX 30 30 3 4
BITMAP
001FFFFC
001FFFFC
001FFFFC
001FFFFC
000003FC
000007FC
00000FFC
00001FBC
00003F3C
00007E3C
0000FC3C
0001F83C
0003F03C
0007E03C
000FC03C
001F803C
003F003C
007E003C
00FC003C
01F80000
03F00000
07E00000
0FC00000
1F800000
3F000000
7E000000
FC000000
7C000000
38000000
10000000
ENDCHAR
STARTCHAR 2198
ENCODING 8600
SWIDTH 630 0
DWIDTH 35 0
BBX 30 30 3 4
BITMAP
10000000
38000000
7C000000
FE000000
7F000000
3F800000
1FC00000
0FE00000
07F00000
03F80000
01FC0000
00FE003C
007F003C
003F803C
001FC03C
000FE03C
0007F03C
0003F83C
0001FC3C
0000FE3C
00007F3C
00003FBC
00001FFC
00000FFC
000007FC
000003FC
001FFFFC
001FFFFC
001FFFFC
001FFFFC
ENDCHAR
STARTCHAR 2199
ENCODING 8601
SWIDTH 630 0
DWIDTH 35 0
BBX 30 30 3 4
BITMAP
00000020
00000070
000000F8
000001FC
000003F8
000007F0
00000FE0
00001FC0
00003F80
00007F00
0000FE00
F001FC00
F003F800
F007E000
F00FC000
F01F8000
F03F0000
F07E0000
F0FC0000
F1F80000
F3F00000
F7E00000
FFC00000
FF800000
FF000000
FE000000
FFFFE000
FFFFE000
FFFFE000
FFFFE000
ENDCHAR
STARTCHAR 2202
ENCODING 8706
SWIDTH 558 0
DWIDTH 31 0
BBX 26 42 3 -1
BITMAP
00800000
01E00000
01F80000
03FC0000
03FF0000
01FF8000
007FC000
001FE000
000FF000
0003F800
0001FC00
0000FC00
0000FE00
00007E00
00003F00
00001F00
00381F80
01FF8F80
07FFEF80
0FFFFF80
1FFFFFC0
3FE1FFC0
3F807FC0
7F001FC0
7E001FC0
FC000FC0
FC000FC0
FC000FC0
F8000FC0
F8000F80
F8000F80
FC001F80
FC001F80
FC003F00
7E007F00
7F00FE00
3FC3FC00
1FFFF800
1FFFF000
07FFE000
03FF8000
007E0000
ENDCHAR
STARTCHAR 2205
ENCODING 8709
SWIDTH 720 0
DWIDTH 40 0
BBX 34 34 3 3
BITMAP
0003F00080
001FFF01C0
007FFFC3C0
01FE0FEF80
03E001FF00
0780007E00
0F00003C00
1E00007E00
3C0000FF00
380001E700
780003C780
7000078380
70001F03C0
70003E01C0
F0007C01C0
E000F801C0
E001F001C0
E003E001C0
E007C001C0
F00F8001C0
701F0001C0
703E0003C0
707C000380
78F8000780
3DF0000700
3FE0000F00
1FC0001E00
0F80003C00
1F80007C00
3FE001F800
7DFC0FE000
F87FFFC000
F01FFF0000
6001E00000
ENDCHAR
STARTCHAR 220F
ENCODING 8719
SWIDTH 612 0
DWIDTH 34 0
BBX 28 46 3 -6
BITMAP
FFFFFFF0
FFFFFFF0
FFFFFFF0
FFFFFFF0
0F000F00
0F000F00
0F000F00
0F000F00
0F000F00
0F000F00
0F000F00
0F000F00
0F000F00
0F000F00
0F000F00
0F000F00
0F000F00
0F000F00
0F000F00
0F000F00
0F000F00
0F000F00
0F000F00
0F000F00
0F000F00
0F000F00
0F000F00
0F000F00
0F000F00
0F000F00
0F000F00
0F000F00
0F000F00
0F000F00
0F000F00
0F000F00
0F000F00
0F000F00
0F000F00
0F000F00
0F000F00
0F000F00
0F000F00
0F000F00
0F000F00
0F000F00
ENDCHAR
STARTCHAR 2211
ENCODING 8721
SWIDTH 486 0
DWIDTH 27 0
BBX 21 46 3 -6
BITMAP
FFFFF8
FFFFF8
FFFFF8
FFFFF8
F80000
7C0000
7E0000
3E0000
3F0000
1F0000
1F8000
0F8000
07C000
07C000
03E000
03F000
01F000
01F800
00F800
00FC00
007C00
003E00
003E00
003E00
007E00
007C00
00FC00
00F800
01F000
01F000
03E000
07E000
07C000
0FC000
0F8000
1F0000
1F0000
3E0000
3E0000
7C0000
FC0000
FFFFF8
FFFFF8
FFFFF8
FFFFF8
FFFFF8
ENDCHAR
STARTCHAR 2212
ENCODING 8722
SWIDTH 558 0
DWIDTH 31 0
BBX 25 5 3 16
BITMAP
FFFFFF80
FFFFFF80
FFFFFF80
FFFFFF80
FFFFFF80
ENDCHAR
STARTCHAR 221A
ENCODING 8730
SWIDTH 666 0
DWIDTH 37 0
BBX 32 46 3 -6
BITMAP
00000FFF
00000FFF
00000FFF
00001FFF
00001FFF
00001F00
00003E00
00003E00
00003E00
00003E00
00007C00
00007C00
00007C00
00007800
0000F800
0000F800
0000F800
0001F000
0001F000
0001F000
0001E000
0003E000
0003E000
F803E000
F803C000
7C07C000
7C07C000
7C078000
3E0F8000
3E0F8000
3E0F8000
1F0F0000
1F1F0000
1F1F0000
0F1E0000
0F9E0000
0FBE0000
07BE0000
07FC0000
07FC0000
07FC0000
03F80000
03F80000
03F80000
01F80000
01F00000
ENDCHAR
STARTCHAR 221E
ENCODING 8734
SWIDTH 792 0
DWIDTH 44 0
BBX 39 18 3 11
BITMAP
03F0001F00
0FFC00FFC0
1FFF01FFF0
3FFF83FFF8
7C0FC7E0F8
7803EF803C
F001FF003C
F000FE001E
F0007C001E
F0007C001E
F000FE001E
F001FF001C
F803EF803C
7C07CFC07C
7F3FC7F1F8
3FFF03FFF0
1FFE00FFE0
07F8003FC0
ENDCHAR
STARTCHAR 222B
ENCODING 8747
SWIDTH 486 0
DWIDTH 27 0
BBX 22 46 3 -6
BITMAP
00007C
0001FC
0003FC
0007FC
000FE0
000F80
000F80
001F00
001F00
001F00
001F00
001E00
003E00
003E00
003E00
003E00
003C00
003C00
007C00
007C00
007C00
007800
007800
007800
00F800
00F800
00F800
00F000
00F000
01F000
01F000
01F000
01E000
01E000
01E000
03E000
03E000
03E000
03C000
07C000
07C000
0FC000
7F8000
FF0000
FE0000
F80000
ENDCHAR
STARTCHAR 2248
ENCODING 8776
SWIDTH 540 0
DWIDTH 30 0
BBX 24 18 3 9
BITMAP
3F8000
FFFC01
FFFFFF
FFFFFF
F1FFFF
000FFF
000000
000000
000000
000000
000000
0E0000
FFF000
FFFFFF
FFFFFF
FFFFFF
003FFF
0001F8
ENDCHAR
STARTCHAR 2260
ENCODING 8800
SWIDTH 558 0
DWIDTH 31 0
BBX 25 26 3 5
BITMAP
0003E000
0003C000
0007C000
00078000
00078000
FFFFFF80
FFFFFF80
FFFFFF80
FFFFFF80
001E0000
003E0000
003E0000
003C0000
007C0000
00780000
00780000
FFFFFF80
FFFFFF80
FFFFFF80
FFFFFF80
FFFFFF80
03E00000
03E00000
03C00000
07C00000
07800000
ENDCHAR
STARTCHAR 2264
ENCODING 8804
SWIDTH 558 0
DWIDTH 31 0
BBX 25 23 3 6
BITMAP
00000180
00001F80
0001FF80
001FFF80
03FFFE00
3FFFC000
FFFC0000
FF800000
FE000000
FFE00000
FFFE0000
1FFFE000
01FFFF00
000FFF80
0000FF80
00000F80
00000080
00000000
00000000
FFFFFF80
FFFFFF80
FFFFFF80
FFFFFF80
ENDCHAR
STARTCHAR 2265
ENCODING 8805
SWIDTH 558 0
DWIDTH 31 0
BBX 25 23 3 6
BITMAP
C0000000
FC000000
FFC00000
FFFC0000
3FFFE000
01FFFE00
001FFF80
0001FF80
00001F80
0001FF80
003FFF80
03FFFC00
7FFFC000
FFF80000
FF800000
F8000000
80000000
00000000
00000000
FFFFFF80
FFFFFF80
FFFFFF80
FFFFFF80
ENDCHAR
STARTCHAR 25CA
ENCODING 9674
SWIDTH 486 0
DWIDTH 27 0
BBX 21 31 3 5
BITMAP
00F800
01FC00
01FC00
03FE00
03DE00
07DF00
078F00
0F8F80
0F0780
1F07C0
1E03C0
3E03E0
3C01F0
7C01F0
7800F8
F800F8
F800F8
7800F0
7C01F0
3C01E0
3E03E0
1E03C0
1F07C0
0F0780
0F8F80
078F00
07DF00
03DE00
03FE00
01FC00
01FC00
ENDCHAR
ENDFONT
